<svg height="1024" node-id="1" sillyvg="true" template-height="1024" template-width="1024" version="1.1" viewBox="0 0 1024 1024" width="1024" xmlns="http://www.w3.org/2000/svg" xmlns:xlink="http://www.w3.org/1999/xlink"><defs node-id="86"></defs><g node-id="253"><path d="M 855.66 600.31 C 855.84 596.81 858.76 594.08 862.27 594.14 L 908.47 595.72 C 902.56 579.14 894.44 563.42 884.34 549.00 C 709.13 295.33 933.12 381.22 761.84 158.75 C 590.56 -63.72 255.54 118.62 216.64 251.54 C 202.00 301.54 167.70 335.14 144.48 358.16 C 133.55 369.00 122.48 378.84 112.01 389.07 L 144.65 411.77 C 146.99 413.35 148.01 416.28 147.17 418.98 C 146.33 421.67 143.82 423.50 141.00 423.47 C 139.69 423.47 138.42 423.07 137.35 422.32 L 102.91 398.32 C 82.00 420.47 65.13 446.05 59.76 487.67 C 44.08 609.17 62.29 649.67 255.54 835.14 C 476.63 1047.26 973.00 840.89 912.43 608.67 L 861.84 606.93 C 860.14 606.87 858.54 606.14 857.38 604.90 C 856.22 603.66 855.60 602.01 855.66 600.31 Z" fill="#8a9ff2" fill-rule="nonzero" group-id="1" node-id="90" stroke="none" target-height="1110.98" target-width="928.92" target-x="44.08" target-y="-63.72"></path></g><path d="M 520.73 933.33 L 345.79 933.33 L 345.79 613.33 L 324.46 441.33 C 369.01 407.04 427.55 381.43 502.52 382.89 L 538.93 382.89 C 609.21 381.56 665.05 404.00 708.46 435.00 L 695.66 604.80 L 695.66 933.33 L 520.73 933.33" fill="#ffffff" fill-rule="nonzero" node-id="93" stroke="none" target-height="551.9" target-width="384.00003" target-x="324.46" target-y="381.43"></path><path d="M 695.66 935.47 L 345.79 935.47 C 345.22 935.47 344.68 935.24 344.28 934.84 C 343.88 934.44 343.66 933.90 343.66 933.33 L 343.66 613.33 L 322.34 441.63 C 322.24 440.86 322.55 440.10 323.16 439.63 C 375.61 399.27 435.99 379.51 502.56 380.76 L 538.91 380.76 C 601.81 379.55 659.30 397.20 709.70 433.26 C 710.31 433.69 710.64 434.41 710.59 435.15 L 697.79 605.00 L 697.79 933.33 C 697.79 933.90 697.57 934.44 697.17 934.84 C 696.77 935.24 696.23 935.47 695.66 935.47 Z M 347.93 931.20 L 693.53 931.20 L 693.53 604.80 L 706.24 436.07 C 656.85 401.07 600.54 383.87 539.05 385.07 L 502.52 385.07 C 437.27 383.78 378.16 403.07 326.73 442.32 L 347.91 613.07 Z" fill="#040000" fill-rule="nonzero" node-id="95" stroke="none" target-height="555.95996" target-width="388.40002" target-x="322.24" target-y="379.51"></path><path d="M 407.66 310.49 L 437.33 310.49 L 437.33 310.49 L 437.33 360.21 L 437.33 360.21 L 407.66 360.21 C 393.95 360.21 382.83 349.09 382.83 335.38 L 382.83 335.38 C 382.81 328.78 385.42 322.45 390.08 317.78 C 394.74 313.11 401.06 310.49 407.66 310.49 Z" fill="#ffffff" fill-rule="nonzero" node-id="97" stroke="none" target-height="49.72" target-width="54.51999" target-x="382.81" target-y="310.49"></path><path d="M 437.33 362.34 L 406.51 362.34 C 392.26 362.32 380.71 350.77 380.69 336.52 L 380.69 334.18 C 380.71 319.93 392.26 308.38 406.51 308.36 L 437.33 308.36 C 438.51 308.36 439.46 309.31 439.46 310.49 L 439.46 360.21 C 439.46 361.39 438.51 362.34 437.33 362.34 Z M 406.51 312.62 C 394.63 312.66 385.01 322.30 385.00 334.18 L 385.00 336.52 C 385.02 348.41 394.66 358.05 406.55 358.07 L 435.20 358.07 L 435.20 312.62 Z" fill="#040000" fill-rule="nonzero" node-id="99" stroke="none" target-height="53.98001" target-width="58.76999" target-x="380.69" target-y="308.36"></path><path d="M 597.36 360.21 L 567.71 360.21 L 567.71 360.21 L 567.71 310.49 L 567.71 310.49 L 597.36 310.49 L 600.77 310.73 L 603.99 311.38 L 607.04 312.44 L 609.92 313.89 L 612.55 315.67 L 614.94 317.77 L 617.04 320.16 L 618.82 322.79 L 620.27 325.67 L 621.33 328.72 L 621.98 331.94 L 622.22 335.35 L 622.22 335.35 L 621.98 338.76 L 621.33 341.98 L 620.27 345.03 L 618.82 347.91 L 617.04 350.54 L 614.94 352.93 L 612.55 355.03 L 609.92 356.81 L 607.04 358.26 L 603.99 359.32 L 600.77 359.97 L 597.36 360.21 Z" fill="#ffffff" fill-rule="nonzero" group-id="2" node-id="103" stroke="none" target-height="49.72" target-width="54.50995" target-x="567.71" target-y="310.49"></path><path d="M 598.53 362.34 L 567.71 362.34 C 566.53 362.34 565.58 361.39 565.58 360.21 L 565.58 310.49 C 565.58 309.31 566.53 308.36 567.71 308.36 L 598.53 308.36 C 612.78 308.38 624.33 319.93 624.35 334.18 L 624.35 336.52 C 624.33 350.77 612.78 362.32 598.53 362.34 Z M 569.85 358.07 L 598.53 358.07 C 610.43 358.06 620.07 348.42 620.09 336.52 L 620.09 334.18 C 620.08 322.28 610.43 312.63 598.53 312.62 L 569.85 312.62 Z" fill="#040000" fill-rule="nonzero" node-id="106" stroke="none" target-height="53.98001" target-width="58.76996" target-x="565.58" target-y="308.36"></path><path d="M 572.00 415.59 C 572.76 433.59 543.75 449.49 507.20 451.04 C 470.65 452.59 440.36 439.20 439.60 421.16 C 438.84 403.12 467.86 387.26 504.44 385.71 C 541.02 384.16 571.27 397.55 572.00 415.59 Z" fill="#040000" fill-rule="nonzero" node-id="108" stroke="none" target-height="68.42999" target-width="133.92001" target-x="438.84" target-y="384.16"></path><path d="M 483.18 228.00 L 521.85 228.00 C 558.34 228.00 587.93 257.59 587.93 294.08 L 587.93 357.22 C 587.93 404.40 549.69 442.64 502.51 442.64 L 502.51 442.64 C 455.33 442.64 417.09 404.40 417.09 357.22 L 417.09 294.11 C 417.08 276.58 424.04 259.76 436.44 247.36 C 448.83 234.96 465.65 228.00 483.18 228.00 Z" fill="#ffffff" fill-rule="nonzero" node-id="110" stroke="none" target-height="214.64001" target-width="170.85" target-x="417.08" target-y="228"></path><path d="M 505.44 444.80 L 499.61 444.80 C 452.90 444.73 415.06 406.87 415.00 360.16 L 415.00 228.00 C 415.00 226.82 415.95 225.87 417.13 225.87 L 587.94 225.87 C 589.12 225.87 590.07 226.82 590.07 228.00 L 590.07 360.16 C 590.02 406.88 552.16 444.74 505.44 444.80 Z M 419.24 230.16 L 419.24 360.16 C 419.29 404.53 455.24 440.48 499.61 440.53 L 505.44 440.53 C 549.80 440.48 585.76 404.52 585.80 360.16 L 585.80 230.16 Z" fill="#040000" fill-rule="nonzero" node-id="112" stroke="none" target-height="218.93" target-width="175.07" target-x="415" target-y="225.87"></path><path d="M 608.86 198.15 C 608.93 197.38 608.98 196.60 608.98 195.81 C 609.00 181.00 596.17 169.00 580.36 169.00 C 576.58 168.97 572.83 169.65 569.30 171.00 C 560.61 162.54 547.56 157.16 532.97 157.16 C 517.97 157.16 504.56 162.88 495.88 171.78 C 488.01 164.64 477.75 160.72 467.12 160.78 C 450.19 160.78 435.66 170.38 429.34 184.08 C 425.47 182.42 421.31 181.56 417.10 181.56 C 400.95 181.56 387.58 193.91 385.00 210.11 C 373.41 215.33 365.47 225.90 365.47 238.11 C 365.47 252.17 375.97 264.11 390.47 268.11 C 395.17 280.63 406.54 289.43 419.84 290.83 C 433.14 292.24 446.10 286.02 453.32 274.76 C 468.86 284.63 489.15 282.51 502.32 269.65 C 509.83 280.43 521.74 287.43 535.19 287.43 C 545.60 287.37 555.57 283.18 562.90 275.78 C 570.58 280.23 579.30 282.56 588.17 282.54 C 614.57 282.54 635.98 262.65 635.98 238.11 C 635.93 220.51 624.86 205.33 608.86 198.15 Z" fill="#040000" fill-rule="nonzero" node-id="114" stroke="none" target-height="135.07999" target-width="270.50998" target-x="365.47" target-y="157.16"></path><path d="M 396.90 332.40 C 396.90 332.40 412.30 329.04 417.10 338.85" fill="#ffffff" fill-rule="nonzero" node-id="116" stroke="none" target-height="9.809998" target-width="20.200012" target-x="396.9" target-y="329.04"></path><path d="M 417.11 341.00 C 416.29 341.00 415.55 340.54 415.19 339.80 C 411.19 331.59 397.49 334.46 397.35 334.50 C 396.20 334.75 395.06 334.02 394.81 332.87 C 394.56 331.72 395.29 330.58 396.44 330.33 C 397.14 330.17 413.54 326.74 419.02 337.92 C 419.27 338.43 419.30 339.02 419.11 339.56 C 418.93 340.09 418.53 340.53 418.02 340.78 C 417.74 340.92 417.43 341.00 417.11 341.00 Z" fill="#040000" fill-rule="nonzero" node-id="118" stroke="none" target-height="14.26001" target-width="24.73999" target-x="394.56" target-y="326.74"></path><path d="M 608.15 332.40 C 608.15 332.40 592.75 329.04 587.95 338.85" fill="#ffffff" fill-rule="nonzero" node-id="120" stroke="none" target-height="9.809998" target-width="20.200012" target-x="587.95" target-y="329.04"></path><path d="M 588.00 341.00 C 587.67 341.00 587.35 340.93 587.06 340.78 C 586.55 340.53 586.15 340.09 585.97 339.56 C 585.78 339.02 585.81 338.43 586.06 337.92 C 591.54 326.74 607.94 330.17 608.64 330.33 C 609.79 330.58 610.52 331.71 610.27 332.86 C 610.01 334.01 608.88 334.74 607.73 334.50 C 607.59 334.50 593.90 331.62 589.89 339.80 C 589.54 340.53 588.81 340.99 588.00 341.00 Z" fill="#040000" fill-rule="nonzero" node-id="122" stroke="none" target-height="14.26001" target-width="24.73999" target-x="585.78" target-y="326.74"></path><path d="M 211.50 662.69 C 206.72 662.69 202.32 659.32 198.42 652.69 C 195.34 647.45 192.18 644.69 189.29 644.62 L 189.22 644.62 C 185.59 644.62 182.49 648.92 181.32 650.78 C 179.63 653.67 177.45 656.24 174.88 658.38 C 167.43 664.24 159.52 663.23 153.19 655.62 C 150.05 651.85 147.05 649.94 144.27 649.94 C 141.49 649.94 139.34 651.85 138.00 653.46 C 135.00 657.04 132.11 659.36 129.11 660.55 C 124.81 662.25 118.36 662.91 112.06 656.33 C 109.56 653.72 106.98 652.47 104.49 652.75 C 99.62 653.20 95.88 658.75 95.85 658.75 C 95.18 659.66 93.91 659.88 92.97 659.27 C 92.02 658.65 91.71 657.40 92.27 656.42 C 92.47 656.12 97.12 649.12 104.09 648.48 C 107.96 648.13 111.70 649.76 115.15 653.36 C 118.89 657.27 123.06 658.36 127.54 656.56 C 129.86 655.64 132.21 653.73 134.72 650.71 C 136.65 648.40 139.86 645.65 144.27 645.65 C 148.37 645.65 152.48 648.08 156.46 652.87 C 161.39 658.78 166.55 659.48 172.24 655.00 C 174.42 653.16 176.27 650.96 177.71 648.49 C 179.63 645.49 183.71 640.34 189.22 640.34 L 189.35 640.34 C 193.87 640.40 198.16 643.83 202.10 650.52 C 205.18 655.75 208.34 658.41 211.50 658.41 L 211.56 658.41 C 216.12 658.41 220.31 652.67 221.56 650.48 C 222.13 649.45 223.43 649.08 224.46 649.65 C 225.49 650.22 225.86 651.52 225.29 652.55 C 225.06 652.96 219.61 662.55 211.64 662.67 Z" fill="#040000" fill-rule="nonzero" node-id="124" stroke="none" target-height="23.899963" target-width="134.15" target-x="91.71" target-y="640.34"></path><path d="M 211.50 688.00 C 206.72 688.00 202.32 684.64 198.42 678.00 C 195.34 672.76 192.18 670.00 189.29 669.92 L 189.22 669.92 C 185.59 669.92 182.49 674.22 181.32 676.08 C 179.63 678.96 177.45 681.53 174.88 683.67 C 167.43 689.53 159.52 688.53 153.19 680.91 C 150.05 677.14 147.05 675.23 144.27 675.23 C 141.49 675.23 139.34 677.15 138.00 678.75 C 135.00 682.33 132.11 684.65 129.11 685.84 C 124.81 687.55 118.36 688.20 112.06 681.62 C 109.56 679.01 106.98 677.77 104.49 678.04 C 99.62 678.49 95.88 684.04 95.85 684.04 C 95.18 684.95 93.91 685.17 92.97 684.56 C 92.02 683.94 91.71 682.69 92.27 681.71 C 92.47 681.41 97.12 674.41 104.09 673.71 C 107.96 673.35 111.70 674.99 115.15 678.59 C 118.89 682.50 123.06 683.59 127.54 681.80 C 129.86 680.87 132.21 678.96 134.72 675.94 C 136.65 673.63 139.86 670.88 144.27 670.88 C 148.37 670.88 152.48 673.31 156.46 678.10 C 161.39 684.01 166.55 684.71 172.24 680.24 C 174.42 678.40 176.27 676.20 177.71 673.73 C 179.63 670.67 183.71 665.57 189.22 665.57 L 189.35 665.57 C 193.87 665.64 198.16 669.07 202.10 675.76 C 205.18 680.99 208.34 683.64 211.50 683.64 L 211.56 683.64 C 216.12 683.64 220.31 677.90 221.56 675.71 C 222.17 674.76 223.41 674.45 224.40 675.00 C 225.38 675.55 225.77 676.77 225.29 677.79 C 225.06 678.20 219.61 687.79 211.64 687.91 Z" fill="#040000" fill-rule="nonzero" node-id="126" stroke="none" target-height="23.960022" target-width="134.06" target-x="91.71" target-y="665.57"></path><path d="M 909.89 389.62 C 905.11 389.62 900.71 386.26 896.81 379.62 C 893.73 374.38 890.57 371.62 887.68 371.54 L 887.62 371.54 C 883.98 371.54 880.88 375.84 879.72 377.69 C 878.02 380.57 875.84 383.14 873.27 385.29 C 865.82 391.15 857.91 390.14 851.58 382.53 C 848.44 378.76 845.44 376.85 842.66 376.85 C 839.88 376.85 837.73 378.76 836.39 380.37 C 833.39 383.95 830.51 386.27 827.51 387.46 C 823.21 389.16 816.76 389.83 810.45 383.24 C 807.96 380.64 805.45 379.41 802.89 379.66 C 797.98 380.10 794.27 385.66 794.24 385.66 C 793.59 386.65 792.27 386.92 791.29 386.27 C 790.30 385.63 790.02 384.31 790.67 383.32 C 790.86 383.03 795.51 376.03 802.48 375.38 C 806.36 375.02 810.09 376.66 813.54 380.26 C 817.27 384.17 821.45 385.26 825.93 383.46 C 828.25 382.54 830.60 380.63 833.11 377.61 C 835.04 375.30 838.25 372.55 842.66 372.55 C 846.77 372.55 850.87 374.98 854.86 379.77 C 859.78 385.68 864.94 386.38 870.63 381.91 C 872.81 380.06 874.66 377.86 876.10 375.40 C 878.04 372.31 882.04 366.97 887.75 367.24 C 892.27 367.31 896.55 370.73 900.49 377.42 C 903.59 382.69 906.75 385.22 909.95 385.31 C 914.51 385.26 918.70 379.57 919.95 377.38 C 920.56 376.43 921.80 376.12 922.79 376.67 C 923.77 377.22 924.16 378.44 923.68 379.46 C 923.45 379.87 918.00 389.46 910.03 389.58 Z" fill="#040000" fill-rule="nonzero" node-id="128" stroke="none" target-height="24.179993" target-width="134.13995" target-x="790.02" target-y="366.97"></path><path d="M 909.89 414.93 C 905.11 414.93 900.71 411.57 896.81 404.93 C 893.73 399.69 890.57 396.93 887.68 396.85 L 887.62 396.85 C 883.98 396.85 880.88 401.15 879.72 403.01 C 878.02 405.89 875.84 408.46 873.27 410.61 C 865.82 416.46 857.91 415.45 851.58 407.84 C 848.44 404.08 845.44 402.16 842.66 402.16 C 839.88 402.16 837.73 404.08 836.39 405.69 C 833.39 409.26 830.51 411.58 827.51 412.78 C 823.21 414.48 816.76 415.14 810.45 408.56 C 807.96 405.95 805.45 404.74 802.89 404.97 C 797.98 405.42 794.27 410.97 794.24 410.97 C 793.59 411.96 792.27 412.23 791.29 411.58 C 790.30 410.94 790.02 409.62 790.67 408.63 C 790.86 408.33 795.51 401.33 802.48 400.69 C 806.36 400.33 810.09 401.97 813.54 405.57 C 817.27 409.47 821.45 410.57 825.93 408.77 C 828.25 407.85 830.60 405.93 833.11 402.92 C 835.04 400.61 838.25 397.86 842.66 397.86 C 846.77 397.86 850.87 400.29 854.86 405.07 C 859.78 410.99 864.94 411.69 870.63 407.21 C 872.81 405.37 874.66 403.17 876.10 400.70 C 878.04 397.62 882.04 392.29 887.75 392.55 C 892.27 392.61 896.55 396.04 900.49 402.73 C 903.59 407.99 906.75 410.66 909.95 410.62 C 914.51 410.57 918.70 404.87 919.95 402.68 C 920.56 401.73 921.80 401.42 922.79 401.97 C 923.77 402.52 924.16 403.74 923.68 404.76 C 923.45 405.17 918.00 414.76 910.03 414.88 Z" fill="#040000" fill-rule="nonzero" node-id="130" stroke="none" target-height="24.169983" target-width="134.13995" target-x="790.02" target-y="392.29"></path><path d="M 837.84 306.75 C 829.51 306.75 822.01 301.74 818.82 294.05 C 815.63 286.36 817.39 277.50 823.28 271.62 C 829.16 265.73 838.02 263.97 845.71 267.16 C 853.40 270.35 858.41 277.85 858.41 286.18 C 858.39 297.53 849.19 306.73 837.84 306.75 Z M 837.84 269.87 C 828.83 269.87 821.53 277.17 821.53 286.18 C 821.53 295.19 828.83 302.49 837.84 302.49 C 846.85 302.49 854.15 295.19 854.15 286.18 C 854.14 277.17 846.85 269.88 837.84 269.87 Z" fill="#040000" fill-rule="nonzero" node-id="132" stroke="none" target-height="42.78" target-width="42.77997" target-x="815.63" target-y="263.97"></path><path d="M 477.72 351.11 C 477.72 354.55 474.93 357.34 471.49 357.34 C 468.05 357.34 465.26 354.55 465.26 351.11 C 465.26 347.67 468.05 344.88 471.49 344.88 C 474.93 344.88 477.72 347.67 477.72 351.11 Z" fill="#040000" fill-rule="nonzero" node-id="134" stroke="none" target-height="12.459991" target-width="12.459991" target-x="465.26" target-y="344.88"></path><path d="M 542.06 351.11 C 542.06 354.55 539.27 357.34 535.83 357.34 C 532.39 357.34 529.60 354.55 529.60 351.11 C 529.60 347.67 532.39 344.88 535.83 344.88 C 539.27 344.88 542.06 347.67 542.06 351.11 Z" fill="#040000" fill-rule="nonzero" node-id="136" stroke="none" target-height="12.459991" target-width="12.460022" target-x="529.6" target-y="344.88"></path><path d="M 455.68 373.38 L 455.56 373.38 L 435.28 372.27 C 434.11 372.20 433.22 371.20 433.28 370.03 C 433.31 369.46 433.56 368.93 433.98 368.55 C 434.41 368.18 434.96 367.99 435.53 368.03 L 455.81 369.15 C 456.99 369.18 457.92 370.16 457.88 371.33 C 457.85 372.51 456.88 373.44 455.70 373.41 Z" fill="#040000" fill-rule="nonzero" node-id="138" stroke="none" target-height="5.450012" target-width="24.700012" target-x="433.22" target-y="367.99"></path><path d="M 550.59 373.38 C 549.41 373.41 548.44 372.48 548.41 371.31 C 548.37 370.13 549.30 369.15 550.48 369.12 L 570.76 368.00 C 571.33 367.96 571.88 368.15 572.31 368.52 C 572.73 368.90 572.98 369.43 573.01 370.00 C 573.07 371.17 572.18 372.17 571.01 372.24 L 550.73 373.35 Z" fill="#040000" fill-rule="nonzero" node-id="140" stroke="none" target-height="5.450012" target-width="24.700012" target-x="548.37" target-y="367.96"></path><path d="M 554.89 298.26 C 548.09 298.26 539.39 295.75 530.80 286.26 C 530.01 285.38 530.08 284.03 530.95 283.24 C 531.83 282.46 533.18 282.52 533.97 283.40 C 549.67 300.82 565.25 291.63 565.41 291.54 C 566.42 290.93 567.73 291.24 568.34 292.25 C 568.95 293.26 568.64 294.57 567.63 295.18 C 563.70 297.24 559.33 298.30 554.89 298.26 Z" fill="#040000" fill-rule="nonzero" node-id="142" stroke="none" target-height="18.360016" target-width="38.940002" target-x="530.01" target-y="282.46"></path><path d="M 450.16 298.26 C 445.72 298.29 441.34 297.22 437.41 295.15 C 436.44 294.52 436.15 293.24 436.74 292.26 C 437.34 291.27 438.62 290.94 439.62 291.51 C 440.26 291.89 455.46 300.70 471.07 283.37 C 471.86 282.49 473.21 282.43 474.08 283.21 C 474.96 284.00 475.03 285.35 474.24 286.23 C 465.66 295.75 457.00 298.26 450.16 298.26 Z" fill="#040000" fill-rule="nonzero" node-id="144" stroke="none" target-height="18.27002" target-width="38.880005" target-x="436.15" target-y="282.43"></path><path d="M 463.62 368.00 C 447.12 368.00 433.75 354.63 433.75 338.13 C 433.75 321.63 447.12 308.26 463.62 308.26 C 480.12 308.26 493.49 321.63 493.49 338.13 C 493.47 354.62 480.11 367.98 463.62 368.00 Z M 463.62 312.53 C 449.48 312.53 438.02 323.99 438.02 338.13 C 438.02 352.27 449.48 363.73 463.62 363.73 C 477.76 363.73 489.22 352.27 489.22 338.13 C 489.20 324.00 477.75 312.55 463.62 312.53 Z" fill="#040000" fill-rule="nonzero" node-id="146" stroke="none" target-height="59.73999" target-width="59.73999" target-x="433.75" target-y="308.26"></path><path d="M 541.42 368.00 C 524.92 368.00 511.55 354.63 511.55 338.13 C 511.55 321.63 524.92 308.26 541.42 308.26 C 557.92 308.26 571.29 321.63 571.29 338.13 C 571.27 354.62 557.91 367.98 541.42 368.00 Z M 541.42 312.53 C 527.28 312.53 515.82 323.99 515.82 338.13 C 515.82 352.27 527.28 363.73 541.42 363.73 C 555.56 363.73 567.02 352.27 567.02 338.13 C 567.00 324.00 555.55 312.55 541.42 312.53 Z" fill="#040000" fill-rule="nonzero" node-id="148" stroke="none" target-height="59.73999" target-width="59.73999" target-x="511.55" target-y="308.26"></path><path d="M 513.69 342.40 C 513.16 342.40 512.65 342.21 512.26 341.86 C 504.10 334.55 493.01 341.73 492.54 342.04 C 491.56 342.69 490.23 342.43 489.58 341.45 C 488.93 340.47 489.19 339.14 490.17 338.49 C 495.08 335.22 506.60 331.05 515.11 338.68 C 515.77 339.27 516.00 340.20 515.68 341.03 C 515.37 341.86 514.57 342.40 513.69 342.40 Z" fill="#040000" fill-rule="nonzero" node-id="150" stroke="none" target-height="11.640015" target-width="27.070007" target-x="488.93" target-y="331.05"></path><path d="M 524.44 414.93 L 524.04 414.93 L 519.69 414.10 C 507.99 411.87 495.97 411.92 484.29 414.27 L 481.02 414.92 C 479.26 415.06 477.54 414.31 476.45 412.92 C 475.45 411.64 475.12 409.96 475.55 408.39 L 475.91 407.02 C 478.04 398.82 481.60 385.10 501.91 385.10 C 523.21 385.10 527.23 400.10 529.39 408.20 C 529.88 409.82 529.57 411.57 528.55 412.92 C 527.56 414.19 526.05 414.93 524.44 414.93 Z M 502.00 389.33 C 484.94 389.33 482.24 399.71 480.08 408.06 L 479.71 409.47 C 479.63 409.75 479.69 410.06 479.87 410.29 C 480.06 410.53 480.35 410.67 480.65 410.67 L 483.50 410.06 C 495.71 407.60 508.27 407.54 520.50 409.88 L 524.60 410.66 C 524.85 410.62 525.07 410.49 525.23 410.29 C 525.41 410.06 525.47 409.75 525.39 409.47 C 523.19 401.33 520.00 389.33 502.00 389.33 Z" fill="#040000" fill-rule="nonzero" node-id="152" stroke="none" target-height="29.959991" target-width="54.76001" target-x="475.12" target-y="385.1"></path><path d="M 431.16 764.51 L 441.64 879.76 C 441.83 881.83 442.85 883.73 444.45 885.04 C 446.06 886.36 448.13 886.98 450.19 886.76 L 571.92 870.52 C 575.17 870.17 577.86 867.82 578.64 864.65 C 579.43 861.47 578.14 858.14 575.42 856.32 L 546.65 832.00 C 543.20 829.70 542.16 825.09 544.30 821.54 L 588.00 748.64 C 590.07 745.19 589.16 740.73 585.90 738.36 L 551.00 713.00 C 547.54 710.49 542.71 711.24 540.17 714.68 L 489.72 783.14 C 488.48 784.83 486.62 785.94 484.55 786.23 C 482.48 786.52 480.37 785.97 478.72 784.69 L 443.63 757.69 C 441.19 755.83 437.88 755.58 435.18 757.05 C 432.49 758.53 430.91 761.45 431.16 764.51 Z" fill="#040000" fill-rule="nonzero" node-id="154" stroke="none" target-height="176.48999" target-width="159.16" target-x="430.91" target-y="710.49"></path><path d="M 253.11 587.73 C 253.11 587.73 186.06 833.67 351.25 916.27 C 359.78 920.53 363.91 914.86 368.31 916.27 C 368.31 916.27 385.38 920.53 389.65 912.00 C 389.65 912.00 402.45 912.00 398.18 899.20 C 398.18 899.20 419.51 890.67 398.18 877.87 C 385.30 870.14 371.31 860.77 366.18 854.87 C 365.73 854.37 365.60 853.66 365.83 853.04 C 366.06 852.41 366.63 851.96 367.29 851.87 C 377.10 850.46 395.51 856.98 398.16 843.75 C 402.43 822.42 357.26 836.99 351.23 830.95 C 347.23 826.95 336.95 825.88 325.63 828.75 C 324.04 829.13 322.42 828.24 321.89 826.69 C 317.25 813.51 293.72 740.27 308.56 664.55 C 311.20 651.08 321.03 606.97 325.63 592.02 Z" fill="#ffffff" fill-rule="nonzero" node-id="156" stroke="none" target-height="332.80005" target-width="233.45001" target-x="186.06" target-y="587.73"></path><path d="M 357.55 920.00 C 355.02 919.97 352.53 919.34 350.29 918.15 C 185.45 835.73 250.38 589.63 251.05 587.15 L 251.51 585.48 L 328.51 590.01 L 327.72 592.61 C 323.20 607.29 313.44 650.93 310.72 664.92 C 295.95 740.34 319.17 812.28 323.97 825.92 C 324.14 826.42 324.65 826.72 325.17 826.62 C 337.04 823.62 348.17 824.72 352.80 829.38 C 354.27 830.85 362.48 830.32 368.47 829.93 C 379.96 829.17 392.99 828.33 398.30 834.40 C 400.44 836.85 401.12 840.11 400.30 844.11 C 398.04 855.44 386.38 854.65 377.02 854.02 C 374.10 853.73 371.17 853.67 368.24 853.85 C 372.71 858.73 384.24 866.95 399.31 876.00 C 406.64 880.40 410.17 885.00 409.80 889.72 C 409.36 895.17 403.71 898.79 400.80 900.32 C 401.70 904.07 401.27 907.19 399.53 909.61 C 397.16 912.90 393.06 913.77 390.99 914.01 C 385.27 922.53 368.60 918.48 367.87 918.30 C 366.72 917.94 365.56 918.30 363.74 918.83 C 361.75 919.55 359.66 919.94 357.55 920.00 Z M 254.74 590.00 C 249.33 611.73 197.58 837.08 352.20 914.39 C 356.66 916.62 359.58 915.71 362.41 914.83 C 364.47 914.18 366.61 913.52 368.96 914.26 C 373.11 915.26 384.87 916.80 387.74 911.08 L 388.32 909.91 L 389.64 909.91 C 389.64 909.91 394.10 909.84 396.00 907.18 C 397.17 905.55 397.22 903.11 396.16 899.91 L 395.52 898.01 L 397.38 897.26 C 399.54 896.39 405.21 893.26 405.51 889.45 C 405.74 886.54 402.83 883.18 397.08 879.74 C 389.44 875.15 370.97 863.68 364.58 856.27 C 363.64 855.18 363.37 853.66 363.87 852.30 C 364.38 850.95 365.58 849.98 367.01 849.78 C 370.43 849.47 373.87 849.49 377.28 849.84 C 387.71 850.55 394.66 850.48 396.09 843.35 C 396.62 840.69 396.28 838.70 395.09 837.29 C 391.17 832.81 378.74 833.61 368.75 834.29 C 358.45 834.96 352.48 835.21 349.75 832.51 C 346.75 829.51 337.66 827.96 326.18 830.87 C 323.52 831.53 320.79 830.04 319.91 827.44 C 315.04 813.61 291.51 740.69 306.50 664.19 C 309.10 650.88 318.04 610.83 322.85 594.04 Z" fill="#040000" fill-rule="nonzero" node-id="158" stroke="none" target-height="337.05005" target-width="224.72002" target-x="185.45" target-y="585.48"></path><path d="M 398.18 899.20 C 398.18 899.20 372.58 886.40 364.05 873.60" fill="#ffffff" fill-rule="nonzero" node-id="160" stroke="none" target-height="25.600037" target-width="34.130005" target-x="364.05" target-y="873.6"></path><path d="M 398.18 901.33 C 397.83 901.34 397.49 901.26 397.18 901.11 C 396.12 900.57 370.98 887.90 362.18 874.78 C 361.53 873.80 361.79 872.48 362.77 871.83 C 363.76 871.17 365.08 871.44 365.73 872.42 C 373.85 884.59 398.79 897.17 399.04 897.29 C 399.88 897.75 400.32 898.72 400.09 899.65 C 399.87 900.59 399.05 901.26 398.09 901.29 Z" fill="#040000" fill-rule="nonzero" node-id="162" stroke="none" target-height="30.170044" target-width="38.79001" target-x="361.53" target-y="871.17"></path><path d="M 389.65 912.00 C 389.65 912.00 359.78 899.20 351.25 882.13" fill="#ffffff" fill-rule="nonzero" node-id="164" stroke="none" target-height="29.869995" target-width="38.399994" target-x="351.25" target-y="882.13"></path><path d="M 389.65 914.13 C 389.36 914.13 389.07 914.08 388.81 913.96 C 387.56 913.42 358.12 900.65 349.34 883.09 C 348.81 882.04 349.24 880.76 350.29 880.23 C 351.34 879.70 352.62 880.13 353.15 881.18 C 361.24 897.36 390.15 909.91 390.49 910.04 C 391.42 910.44 391.95 911.44 391.74 912.43 C 391.54 913.42 390.66 914.13 389.65 914.13 Z" fill="#040000" fill-rule="nonzero" node-id="166" stroke="none" target-height="34.429993" target-width="43.140015" target-x="348.81" target-y="879.7"></path><path d="M 338.45 890.67 C 338.45 890.67 351.25 907.73 368.31 916.27" fill="#ffffff" fill-rule="nonzero" node-id="168" stroke="none" target-height="25.600037" target-width="29.859985" target-x="338.45" target-y="890.67"></path><path d="M 368.31 918.40 C 367.98 918.40 367.65 918.32 367.36 918.17 C 350.00 909.52 337.27 892.66 336.74 892.00 C 336.03 891.06 336.22 889.72 337.16 889.01 C 338.11 888.31 339.44 888.50 340.15 889.44 C 340.28 889.60 352.87 906.21 369.27 914.44 C 370.12 914.90 370.55 915.89 370.32 916.83 C 370.08 917.77 369.24 918.43 368.27 918.44 Z" fill="#040000" fill-rule="nonzero" node-id="170" stroke="none" target-height="30.130005" target-width="34.51999" target-x="336.03" target-y="888.31"></path><path d="M 779.81 587.73 C 779.81 587.73 846.86 833.67 681.68 916.27 C 673.14 920.53 669.01 914.86 664.61 916.27 C 664.61 916.27 647.54 920.53 643.28 912.00 C 643.28 912.00 630.48 912.00 634.74 899.20 C 634.74 899.20 613.41 890.67 634.74 877.87 C 647.62 870.14 661.61 860.77 666.74 854.87 C 667.19 854.37 667.32 853.66 667.09 853.04 C 666.86 852.41 666.29 851.96 665.63 851.87 C 655.82 850.46 637.41 856.98 634.76 843.75 C 630.50 822.42 675.66 836.99 681.70 830.95 C 685.70 826.95 695.98 825.88 707.30 828.75 C 708.89 829.13 710.51 828.24 711.03 826.69 C 715.67 813.51 739.20 740.27 724.36 664.55 C 721.70 651.06 711.87 607.00 707.28 592.00 Z" fill="#ffffff" fill-rule="nonzero" node-id="172" stroke="none" target-height="332.80005" target-width="233.45001" target-x="613.41" target-y="587.73"></path><path d="M 675.37 920.00 C 673.28 919.94 671.22 919.55 669.25 918.85 C 667.43 918.28 666.25 917.95 665.25 918.28 C 664.40 918.50 647.71 922.55 642.00 914.03 C 639.93 913.79 635.83 912.92 633.46 909.63 C 631.72 907.21 631.29 904.09 632.19 900.34 C 629.19 898.81 623.59 895.19 623.19 889.74 C 622.82 885.04 626.35 880.42 633.68 876.02 C 648.77 867.02 660.28 858.75 664.75 853.87 C 661.82 853.69 658.89 853.75 655.97 854.04 C 646.61 854.67 634.97 855.46 632.69 844.13 C 631.89 840.13 632.57 836.87 634.69 834.42 C 640.00 828.37 653.00 829.21 664.50 830.00 C 670.50 830.38 678.70 830.92 680.17 829.45 C 684.83 824.79 695.93 823.68 707.80 826.69 C 708.32 826.82 708.85 826.51 709.00 825.99 C 713.80 812.33 737.00 740.39 722.25 664.99 C 719.51 650.99 709.75 607.36 705.25 592.68 L 704.45 590.08 L 781.45 585.55 L 781.91 587.22 C 782.58 589.70 847.51 835.80 682.67 918.22 C 680.41 919.39 677.91 920.00 675.37 920.00 Z M 666.10 913.87 C 667.61 913.95 669.09 914.25 670.51 914.78 C 673.34 915.65 676.26 916.57 680.72 914.34 C 835.38 837.00 783.60 611.70 778.18 590.00 L 710.08 594.00 C 714.89 610.79 723.83 650.84 726.44 664.15 C 741.44 740.65 717.89 813.57 713.02 827.40 C 712.14 830.00 709.41 831.49 706.75 830.83 C 695.27 827.92 686.20 829.45 683.18 832.47 C 680.49 835.17 674.53 834.93 664.18 834.25 C 654.18 833.60 641.76 832.80 637.84 837.25 C 636.60 838.66 636.26 840.65 636.84 843.31 C 638.27 850.44 645.22 850.51 655.65 849.80 C 659.07 849.44 662.51 849.42 665.93 849.74 C 667.36 849.95 668.56 850.92 669.06 852.27 C 669.57 853.62 669.29 855.14 668.35 856.23 C 661.96 863.64 643.49 875.11 635.85 879.70 C 630.10 883.15 627.18 886.51 627.42 889.42 C 627.72 893.26 633.53 896.42 635.54 897.22 L 637.41 897.97 L 636.77 899.87 C 635.71 903.08 635.77 905.53 636.93 907.16 C 638.83 909.79 643.24 909.87 643.28 909.87 L 644.60 909.87 L 645.19 911.05 C 648.60 917.86 663.95 914.24 664.10 914.20 C 664.75 913.99 665.42 913.89 666.10 913.89 Z" fill="#040000" fill-rule="nonzero" node-id="174" stroke="none" target-height="337" target-width="224.69" target-x="622.82" target-y="585.55"></path><path d="M 634.74 899.20 C 634.74 899.20 660.34 886.40 668.88 873.60" fill="#ffffff" fill-rule="nonzero" node-id="176" stroke="none" target-height="25.600037" target-width="34.140015" target-x="634.74" target-y="873.6"></path><path d="M 634.74 901.33 C 633.77 901.32 632.93 900.66 632.69 899.72 C 632.46 898.78 632.89 897.79 633.74 897.33 C 633.99 897.21 658.93 884.63 667.05 872.46 C 667.70 871.48 669.02 871.21 670.01 871.86 C 670.99 872.52 671.25 873.84 670.60 874.82 C 661.85 887.94 636.71 900.61 635.65 901.15 C 635.36 901.27 635.05 901.34 634.74 901.33 Z" fill="#040000" fill-rule="nonzero" node-id="178" stroke="none" target-height="30.130005" target-width="38.789978" target-x="632.46" target-y="871.21"></path><path d="M 643.28 912.00 C 643.28 912.00 673.14 899.20 681.68 882.13" fill="#ffffff" fill-rule="nonzero" node-id="180" stroke="none" target-height="29.869995" target-width="38.399963" target-x="643.28" target-y="882.13"></path><path d="M 643.28 914.13 C 642.26 914.14 641.38 913.43 641.18 912.43 C 640.97 911.44 641.50 910.44 642.43 910.04 C 642.72 909.91 671.69 897.34 679.77 881.18 C 680.30 880.13 681.58 879.70 682.63 880.23 C 683.68 880.76 684.11 882.04 683.58 883.09 C 674.80 900.65 645.36 913.42 644.11 913.96 C 643.85 914.08 643.57 914.13 643.28 914.13 Z" fill="#040000" fill-rule="nonzero" node-id="182" stroke="none" target-height="34.440002" target-width="43.140015" target-x="640.97" target-y="879.7"></path><path d="M 694.48 890.67 C 694.48 890.67 681.68 907.73 664.61 916.27" fill="#ffffff" fill-rule="nonzero" node-id="184" stroke="none" target-height="25.600037" target-width="29.869995" target-x="664.61" target-y="890.67"></path><path d="M 664.61 918.40 C 663.64 918.39 662.80 917.73 662.56 916.79 C 662.33 915.85 662.76 914.86 663.61 914.40 C 680.01 906.20 692.61 889.59 692.73 889.40 C 693.44 888.46 694.77 888.27 695.72 888.97 C 696.66 889.68 696.85 891.02 696.14 891.96 C 695.61 892.67 682.84 909.53 665.52 918.18 C 665.24 918.32 664.93 918.40 664.61 918.40 Z" fill="#040000" fill-rule="nonzero" node-id="186" stroke="none" target-height="30.130005" target-width="34.51996" target-x="662.33" target-y="888.27"></path><path d="M 119.89 929.07 L 925.82 929.07 C 928.31 929.07 930.32 931.08 930.32 933.57 L 930.32 962.97 C 930.32 965.46 928.31 967.47 925.82 967.47 L 119.89 967.47 C 117.40 967.47 115.39 965.46 115.39 962.97 L 115.39 933.57 C 115.39 931.08 117.40 929.07 119.89 929.07 Z" fill="#ffffff" fill-rule="nonzero" node-id="188" stroke="none" target-height="38.399963" target-width="814.93" target-x="115.39" target-y="929.07"></path><path d="M 911.13 969.60 L 134.59 969.60 C 122.99 969.35 113.71 959.87 113.71 948.26 C 113.71 936.66 122.99 927.18 134.59 926.93 L 911.13 926.93 C 922.73 927.18 932.01 936.66 932.01 948.26 C 932.01 959.87 922.73 969.35 911.13 969.60 Z M 134.59 931.20 C 125.33 931.42 117.93 939.00 117.93 948.26 C 117.93 957.53 125.33 965.11 134.59 965.33 L 911.13 965.33 C 920.39 965.11 927.79 957.53 927.79 948.26 C 927.79 939.00 920.39 931.42 911.13 931.20 Z" fill="#040000" fill-rule="nonzero" node-id="190" stroke="none" target-height="42.669983" target-width="818.3" target-x="113.71" target-y="926.93"></path><path d="M 119.89 929.07 L 477.82 929.07 C 480.31 929.07 482.32 931.08 482.32 933.57 L 482.32 962.97 C 482.32 965.46 480.31 967.47 477.82 967.47 L 119.89 967.47 C 117.40 967.47 115.39 965.46 115.39 962.97 L 115.39 933.57 C 115.39 931.08 117.40 929.07 119.89 929.07 Z" fill="#060001" fill-rule="nonzero" node-id="192" stroke="none" target-height="38.399963" target-width="366.93" target-x="115.39" target-y="929.07"></path><path d="M 463.13 969.60 L 134.59 969.60 C 122.99 969.35 113.71 959.87 113.71 948.26 C 113.71 936.66 122.99 927.18 134.59 926.93 L 463.13 926.93 C 474.73 927.18 484.01 936.66 484.01 948.26 C 484.01 959.87 474.73 969.35 463.13 969.60 Z M 134.59 931.20 C 125.33 931.42 117.93 939.00 117.93 948.26 C 117.93 957.53 125.33 965.11 134.59 965.33 L 463.13 965.33 C 472.39 965.11 479.79 957.53 479.79 948.26 C 479.79 939.00 472.39 931.42 463.13 931.20 Z" fill="#040000" fill-rule="nonzero" node-id="194" stroke="none" target-height="42.669983" target-width="370.30002" target-x="113.71" target-y="926.93"></path><path d="M 529.26 690.13 L 503.66 630.40" fill="#060001" fill-rule="nonzero" node-id="196" stroke="none" target-height="59.72998" target-width="25.600006" target-x="503.66" target-y="630.4"></path><path d="M 529.26 692.27 C 528.39 692.28 527.60 691.77 527.26 690.97 L 501.66 631.24 C 501.20 630.16 501.70 628.90 502.78 628.44 C 503.86 627.98 505.12 628.48 505.58 629.56 L 531.18 689.29 C 531.40 689.81 531.41 690.40 531.20 690.92 C 530.99 691.45 530.58 691.87 530.06 692.09 C 529.81 692.20 529.54 692.26 529.26 692.27 Z" fill="#040000" fill-rule="nonzero" node-id="198" stroke="none" target-height="64.30005" target-width="30.20996" target-x="501.2" target-y="627.98"></path><path d="M 465.26 677.33 L 499.39 702.93" fill="#060001" fill-rule="nonzero" node-id="200" stroke="none" target-height="25.599976" target-width="34.130005" target-x="465.26" target-y="677.33"></path><path d="M 499.39 705.07 C 498.93 705.07 498.48 704.92 498.11 704.64 L 464.00 679.00 C 463.06 678.29 462.87 676.96 463.57 676.01 C 464.28 675.07 465.62 674.88 466.56 675.59 L 500.69 701.19 C 501.43 701.74 501.73 702.70 501.44 703.57 C 501.15 704.45 500.33 705.03 499.41 705.03 Z" fill="#040000" fill-rule="nonzero" node-id="202" stroke="none" target-height="30.190002" target-width="38.860016" target-x="462.87" target-y="674.88"></path><path d="M 435.39 715.73 L 490.86 728.53" fill="#060001" fill-rule="nonzero" node-id="204" stroke="none" target-height="12.800049" target-width="55.46997" target-x="435.39" target-y="715.73"></path><path d="M 490.86 730.67 C 490.70 730.67 490.54 730.65 490.38 730.61 L 434.91 717.81 C 433.76 717.54 433.05 716.40 433.31 715.25 C 433.59 714.11 434.72 713.41 435.87 713.65 L 491.34 726.45 C 492.39 726.70 493.09 727.70 492.96 728.77 C 492.84 729.84 491.94 730.66 490.86 730.67 Z" fill="#040000" fill-rule="nonzero" node-id="206" stroke="none" target-height="17.26001" target-width="60.04001" target-x="433.05" target-y="713.41"></path><path d="M 641.00 803.10 C 640.44 803.10 639.89 802.88 639.49 802.48 C 630.70 793.68 627.05 785.15 628.66 777.12 C 630.50 767.91 638.76 761.98 643.66 759.21 C 639.87 756.55 637.10 752.66 635.82 748.21 C 632.29 736.36 637.88 721.14 642.16 712.04 C 621.03 721.71 593.16 697.20 591.89 696.04 C 591.01 695.26 590.94 693.91 591.72 693.03 C 592.50 692.15 593.85 692.08 594.73 692.86 C 595.06 693.15 628.14 722.26 646.61 703.78 C 647.37 703.00 648.60 702.91 649.46 703.59 C 650.31 704.26 650.52 705.48 649.94 706.40 C 649.79 706.64 635.17 731.11 639.94 747.01 C 641.27 751.65 644.59 755.46 649.00 757.43 C 649.76 757.80 650.23 758.57 650.20 759.42 C 650.18 760.26 649.67 761.01 648.89 761.33 C 648.75 761.39 634.95 767.22 632.81 777.97 C 631.51 784.51 634.81 791.74 642.48 799.46 C 643.09 800.07 643.27 800.98 642.95 801.77 C 642.63 802.57 641.86 803.09 641.00 803.10 Z" fill="#040000" fill-rule="nonzero" node-id="208" stroke="none" target-height="111.01996" target-width="59.580017" target-x="590.94" target-y="692.08"></path><path d="M 610.33 267.73 C 610.33 267.73 597.53 301.87 601.79 310.40 C 601.79 310.40 597.53 306.13 588.99 310.40 L 588.99 280.53 Z" fill="#040000" fill-rule="nonzero" node-id="210" stroke="none" target-height="42.669983" target-width="21.340027" target-x="588.99" target-y="267.73"></path><path d="M 397.00 267.73 C 397.00 267.73 409.80 301.87 405.54 310.40 C 405.54 310.40 409.80 306.13 418.34 310.40 L 418.34 280.53 Z" fill="#040000" fill-rule="nonzero" node-id="212" stroke="none" target-height="42.669983" target-width="21.339996" target-x="397" target-y="267.73"></path><path d="M 661.53 181.62 C 661.53 181.62 708.46 114.13 729.79 139.73 C 743.79 156.52 722.98 158.34 712.79 159.78 C 706.64 160.61 700.57 161.95 694.64 163.78 C 684.52 167.00 671.00 172.54 661.53 181.62 Z" fill="#ffffff" fill-rule="nonzero" node-id="214" stroke="none" target-height="67.49" target-width="82.25995" target-x="661.53" target-y="114.13"></path><path d="M 661.53 183.75 C 660.73 183.76 660.00 183.32 659.63 182.61 C 659.26 181.91 659.31 181.05 659.77 180.40 C 661.12 178.46 693.10 132.87 717.08 131.82 C 722.65 131.52 728.01 133.97 731.43 138.37 C 736.05 143.91 737.57 148.49 736.06 152.37 C 733.44 159.13 722.57 160.60 714.65 161.67 L 713.03 161.90 C 707.00 162.71 701.04 164.03 695.23 165.83 C 685.66 168.83 672.30 174.29 663.00 183.16 C 662.60 183.54 662.08 183.75 661.53 183.75 Z M 717.94 136.07 L 717.27 136.07 C 702.55 136.71 683.34 157.45 672.27 171.07 C 679.14 167.17 686.42 164.04 693.97 161.73 C 700.01 159.86 706.19 158.49 712.46 157.64 L 714.09 157.42 C 720.19 156.59 730.39 155.21 732.09 150.79 C 733.18 147.97 730.55 143.95 728.15 141.07 C 725.72 137.89 721.94 136.04 717.94 136.07 Z" fill="#040000" fill-rule="nonzero" node-id="216" stroke="none" target-height="52.23999" target-width="78.31" target-x="659.26" target-y="131.52"></path><path d="M 314.86 279.48 C 314.86 279.48 232.96 286.48 244.51 317.77 C 252.08 338.27 264.04 321.15 270.39 312.99 C 274.18 308.08 278.37 303.48 282.92 299.26 C 290.69 292.10 302.25 283.20 314.86 279.48 Z" fill="#ffffff" fill-rule="nonzero" node-id="218" stroke="none" target-height="58.789978" target-width="81.89998" target-x="232.96" target-y="279.48"></path><path d="M 253.58 329.60 C 253.17 329.60 252.75 329.57 252.34 329.51 C 248.23 328.88 245.01 325.29 242.51 318.51 C 240.40 313.35 240.95 307.48 243.99 302.81 C 256.85 282.54 312.32 277.56 314.67 277.36 C 315.77 277.24 316.77 278.00 316.95 279.09 C 317.15 280.17 316.51 281.22 315.46 281.53 C 303.13 285.17 291.74 294.03 284.36 300.82 C 279.90 304.96 275.79 309.47 272.08 314.30 L 271.08 315.58 C 266.48 321.55 260.28 329.60 253.58 329.60 Z M 300.39 283.53 C 283.04 286.34 255.49 292.65 247.59 305.10 C 245.28 308.64 244.87 313.10 246.51 317.00 C 247.81 320.52 249.99 324.80 252.98 325.26 C 257.67 325.98 263.98 317.82 267.70 312.95 L 268.70 311.64 C 272.56 306.63 276.83 301.95 281.46 297.64 C 287.24 292.27 293.59 287.54 300.39 283.53 Z" fill="#040000" fill-rule="nonzero" node-id="220" stroke="none" target-height="52.360016" target-width="76.75" target-x="240.4" target-y="277.24"></path><path d="M 692.21 203.77 L 697.93 204.79 L 702.76 206.09 L 707.10 207.75 L 710.03 209.39 L 711.60 210.74 L 712.33 211.91 L 712.48 212.99 L 712.05 213.98 L 711.03 214.91 L 709.16 215.79 L 705.90 216.59 L 701.27 217.04 L 696.28 217.00 L 690.49 216.46 L 684.76 215.44 L 679.93 214.14 L 675.59 212.48 L 672.66 210.84 L 671.09 209.49 L 670.36 208.32 L 670.21 207.25 L 670.64 206.25 L 671.66 205.32 L 673.53 204.44 L 676.79 203.64 L 681.42 203.19 L 686.42 203.23 L 692.21 203.77 Z" fill="#ffffff" fill-rule="nonzero" group-id="3" node-id="224" stroke="none" target-height="13.849991" target-width="42.26996" target-x="670.21" target-y="203.19"></path><path d="M 699.32 219.23 C 696.29 219.22 693.26 219.01 690.25 218.59 C 679.05 217.07 667.35 212.79 668.14 206.97 C 668.52 204.19 671.41 202.35 676.72 201.51 C 681.98 200.83 687.30 200.89 692.54 201.68 C 703.74 203.20 715.44 207.48 714.65 213.29 C 714.27 216.08 711.38 217.92 706.07 218.75 C 703.84 219.08 701.58 219.24 699.32 219.23 Z M 683.54 205.30 C 676.54 205.30 672.72 206.74 672.36 207.58 C 672.53 208.73 678.45 212.68 690.82 214.36 C 703.19 216.04 709.82 213.86 710.41 212.72 C 710.15 211.46 704.22 207.57 691.97 205.91 C 689.18 205.51 686.36 205.31 683.54 205.30 Z M 710.42 212.75 L 710.42 212.75 Z" fill="#040000" fill-rule="nonzero" node-id="227" stroke="none" target-height="18.410004" target-width="48.090027" target-x="667.35" target-y="200.83"></path><path d="M 631.66 150.40 C 631.52 150.41 631.38 150.41 631.24 150.40 C 630.09 150.16 629.34 149.04 629.57 147.89 C 629.79 146.76 635.26 120.12 648.78 112.80 C 652.95 110.50 657.96 110.28 662.32 112.19 C 668.26 114.57 671.32 117.67 671.32 121.40 C 671.34 121.63 671.34 121.86 671.32 122.09 C 672.18 122.65 672.95 123.32 673.62 124.09 C 676.75 127.71 677.47 133.50 672.81 137.58 C 670.99 139.20 668.98 140.57 666.81 141.68 C 665.77 142.12 664.57 141.67 664.07 140.66 C 663.56 139.66 663.93 138.43 664.90 137.86 C 666.76 136.92 668.49 135.75 670.05 134.37 C 672.75 132.01 672.19 128.91 670.44 126.88 C 670.24 126.65 670.03 126.43 669.80 126.23 C 665.92 132.05 656.22 136.47 653.89 137.47 C 653.07 137.82 652.11 137.62 651.50 136.97 C 650.88 136.32 650.75 135.35 651.15 134.55 C 653.39 130.17 656.39 126.21 660.00 122.87 C 661.89 121.17 664.39 120.31 666.92 120.50 C 666.28 119.00 664.16 117.50 660.78 116.11 C 657.59 114.67 653.91 114.82 650.85 116.51 C 639.09 122.87 633.85 148.43 633.79 148.69 C 633.59 149.70 632.69 150.42 631.66 150.40 Z M 665.45 124.80 C 664.44 124.98 663.50 125.43 662.73 126.12 C 661.45 127.22 660.29 128.44 659.25 129.77 C 661.54 128.41 663.63 126.74 665.45 124.80 Z" fill="#040000" fill-rule="nonzero" node-id="229" stroke="none" target-height="40.14" target-width="48.129944" target-x="629.34" target-y="110.28"></path><path d="M 217.15 611.10 C 212.62 609.48 208.99 606.01 207.16 601.56 C 205.34 597.11 205.48 592.09 207.56 587.75 C 227.56 545.65 285.15 421.33 344.88 425.60 C 421.06 431.04 421.62 492.98 347.52 642.33 C 343.65 650.13 334.55 653.78 326.37 650.82 Z" fill="#040000" fill-rule="nonzero" node-id="231" stroke="none" target-height="232.45004" target-width="216.28" target-x="205.34" target-y="421.33"></path><path d="M 815.77 611.10 C 820.30 609.48 823.93 606.01 825.76 601.56 C 827.58 597.11 827.44 592.09 825.36 587.75 C 805.36 545.65 747.77 421.33 688.04 425.60 C 611.86 431.00 611.30 493.00 685.40 642.33 C 689.27 650.13 698.37 653.78 706.55 650.82 Z" fill="#040000" fill-rule="nonzero" node-id="233" stroke="none" target-height="232.45004" target-width="216.28003" target-x="611.3" target-y="421.33"></path><path d="M 315.93 250.67 C 315.93 250.67 268.99 212.27 264.73 229.33 C 259.15 251.62 280.79 246.40 290.33 246.40 C 307.39 246.40 315.93 250.67 315.93 250.67 Z" fill="#ffffff" fill-rule="nonzero" node-id="235" stroke="none" target-height="39.34999" target-width="56.78" target-x="259.15" target-y="212.27"></path><path d="M 315.92 252.80 C 315.59 252.80 315.27 252.73 314.98 252.58 C 314.90 252.58 306.58 248.53 290.33 248.53 C 288.97 248.53 287.33 248.64 285.62 248.76 C 278.26 249.26 269.10 249.88 264.39 244.26 C 261.49 240.79 260.92 235.74 262.66 228.82 C 263.18 226.23 265.04 224.12 267.55 223.30 C 280.21 219.11 313.55 245.94 317.28 249.01 C 317.98 249.58 318.24 250.53 317.93 251.38 C 317.63 252.23 316.82 252.80 315.92 252.80 Z M 290.33 244.27 C 295.53 244.24 300.73 244.67 305.85 245.56 C 292.39 235.66 275.24 225.26 268.85 227.35 C 267.73 227.71 266.92 228.69 266.76 229.85 C 265.40 235.28 265.69 239.21 267.62 241.52 C 270.93 245.52 279.24 244.91 285.30 244.52 C 287.18 244.38 288.89 244.27 290.33 244.27 Z" fill="#040000" fill-rule="nonzero" node-id="237" stroke="none" target-height="33.690002" target-width="57.319977" target-x="260.92" target-y="219.11"></path><path d="M 405.53 218.67 C 404.87 218.67 404.25 218.37 403.85 217.85 C 403.39 217.27 357.38 159.49 320.85 171.62 C 320.11 171.99 319.22 171.89 318.57 171.37 C 317.92 170.85 317.64 170.00 317.84 169.20 C 318.04 168.39 318.69 167.78 319.50 167.62 C 358.86 154.48 405.23 212.77 407.18 215.25 C 407.69 215.89 407.79 216.77 407.43 217.51 C 407.08 218.24 406.33 218.71 405.51 218.71 Z" fill="#040000" fill-rule="nonzero" node-id="239" stroke="none" target-height="64.23001" target-width="90.149994" target-x="317.64" target-y="154.48"></path><path d="M 357.11 176.00 C 356.23 176.01 355.44 175.47 355.11 174.66 C 354.89 174.10 349.72 160.96 353.65 152.46 C 354.99 149.49 357.54 147.23 360.65 146.24 C 361.70 146.04 362.73 146.64 363.07 147.65 C 363.41 148.66 362.96 149.77 362.00 150.24 C 359.99 150.85 358.35 152.32 357.50 154.24 C 354.33 161.06 359.00 172.95 359.04 173.06 C 359.25 173.59 359.25 174.18 359.02 174.70 C 358.80 175.22 358.38 175.63 357.85 175.84 C 357.61 175.94 357.36 175.99 357.11 176.00 Z" fill="#040000" fill-rule="nonzero" node-id="241" stroke="none" target-height="29.970001" target-width="13.690002" target-x="349.72" target-y="146.04"></path><path d="M 354.32 201.60 C 353.90 201.60 353.49 201.47 353.14 201.24 C 352.66 200.92 352.33 200.43 352.21 199.86 C 352.10 199.30 352.22 198.71 352.55 198.24 C 361.94 184.16 384.05 192.80 384.99 193.18 C 386.09 193.62 386.63 194.87 386.19 195.97 C 385.76 197.08 384.50 197.62 383.40 197.18 C 383.21 197.10 363.57 189.45 356.10 200.65 C 355.70 201.25 355.04 201.60 354.32 201.60 Z" fill="#040000" fill-rule="nonzero" node-id="243" stroke="none" target-height="17.440002" target-width="34.53" target-x="352.1" target-y="184.16"></path><path d="M 0.00 0.00 L 1024.00 0.00 L 1024.00 1024.00 L 0.00 1024.00 Z" fill="none" node-id="245" stroke="none" target-height="1024" target-width="1024" target-x="0" target-y="0"></path><path d="M 444.32 236.21 C 433.94 236.21 426.26 233.64 421.41 228.52 C 414.72 221.46 416.16 212.30 416.22 211.92 C 416.41 210.76 417.51 209.97 418.67 210.16 C 419.83 210.35 420.62 211.45 420.43 212.61 C 420.43 212.68 419.31 220.13 424.55 225.61 C 429.79 231.09 439.00 233.00 452.22 231.48 C 453.39 231.35 454.45 232.19 454.58 233.36 C 454.71 234.53 453.87 235.59 452.70 235.72 C 449.92 236.04 447.12 236.20 444.32 236.21 Z" fill="#fffdfd" fill-rule="nonzero" node-id="247" stroke="none" target-height="26.240005" target-width="39.98999" target-x="414.72" target-y="209.97"></path><path d="M 473.79 231.47 C 472.67 231.39 471.80 230.46 471.80 229.34 C 471.80 228.21 472.67 227.28 473.79 227.20 C 473.96 227.20 490.67 227.20 502.99 223.04 C 504.11 222.67 505.32 223.27 505.69 224.39 C 506.06 225.51 505.46 226.72 504.34 227.09 C 491.36 231.42 474.50 231.47 473.79 231.47 Z" fill="#fffdfd" fill-rule="nonzero" node-id="249" stroke="none" target-height="8.800003" target-width="34.26001" target-x="471.8" target-y="222.67"></path><path d="M 0.00 0.00 L 1024.00 0.00 L 1024.00 1024.00 L 0.00 1024.00 Z" fill="none" node-id="251" stroke="none" target-height="1024" target-width="1024" target-x="0" target-y="0"></path></svg>