<svg height="1024" node-id="1" sillyvg="true" template-height="1024" template-width="1024" version="1.1" viewBox="0 0 1024 1024" width="1024" xmlns="http://www.w3.org/2000/svg" xmlns:xlink="http://www.w3.org/1999/xlink"><defs node-id="100"></defs><g node-id="302"><path d="M 699.60 94.73 C 679.18 107.57 662.75 129.85 662.52 130.16 C 661.21 132.10 658.95 133.18 656.61 132.96 C 654.28 132.74 652.25 131.26 651.33 129.11 C 650.41 126.96 650.73 124.47 652.18 122.63 C 653.10 121.35 667.40 101.94 687.11 87.79 C 617.00 50.71 526.08 35.00 420.88 61.20 C 196.65 117.00 236.60 351.61 285.44 395.33 C 322.69 428.67 325.85 471.18 323.83 495.80 C 323.02 505.69 320.22 514.93 316.58 523.80 C 302.90 557.08 320.01 600.30 338.75 633.14 C 359.70 669.86 390.48 703.25 428.27 728.61 C 523.78 792.71 613.86 777.48 677.76 733.61 C 658.59 706.44 651.55 675.93 651.10 673.89 C 650.33 670.44 652.51 667.02 655.96 666.25 C 659.41 665.48 662.83 667.66 663.60 671.11 C 663.70 671.58 670.43 700.64 688.23 726.00 C 738.33 687.44 769.93 631.43 771.44 586.21 C 776.38 438.86 821.04 468.69 839.44 330.28 C 850.10 250.59 796.88 151.75 699.60 94.73 Z" fill="#8a9ff2" fill-rule="nonzero" group-id="1" node-id="104" stroke="none" target-height="757.71" target-width="653.44995" target-x="196.65" target-y="35"></path></g><path d="M 54.89 931.00 C 54.89 931.00 56.22 884.12 124.66 875.94 C 139.04 874.21 152.96 869.74 165.66 862.77 C 196.82 845.65 258.45 820.39 298.36 860.30 C 298.36 860.30 320.79 892.30 360.83 892.30 C 400.87 892.30 527.13 883.79 526.51 921.13 C 525.89 958.47 569.44 939.87 588.28 958.72 C 607.12 977.57 554.65 975.59 554.65 975.59 C 554.65 975.59 526.21 967.59 470.75 967.59 C 415.29 967.59 347.90 991.00 315.65 958.74 C 283.40 926.48 231.78 954.46 181.77 954.46 C 131.76 954.46 54.89 988.87 54.89 931.00 Z" fill="#040000" fill-rule="nonzero" node-id="107" stroke="none" target-height="170.60999" target-width="552.23" target-x="54.89" target-y="820.39"></path><path d="M 505.61 857.12 L 541.94 853.82 L 547.42 914.07 L 511.09 917.38 Z" fill="#ffffff" fill-rule="nonzero" group-id="2" node-id="111" stroke="none" target-height="63.559998" target-width="41.809998" target-x="505.61" target-y="853.82"></path><path d="M 511.07 919.53 C 509.97 919.52 509.05 918.69 508.95 917.59 L 503.47 857.33 C 503.41 856.76 503.58 856.20 503.95 855.76 C 504.31 855.32 504.83 855.05 505.40 855.00 L 541.73 851.69 C 542.30 851.63 542.86 851.81 543.29 852.18 C 543.72 852.54 544.00 853.06 544.05 853.62 L 549.53 913.88 C 549.63 915.05 548.77 916.08 547.60 916.19 L 511.27 919.50 Z M 507.91 859.07 L 513.01 915.07 L 545.09 912.16 L 539.99 856.16 Z" fill="#040000" fill-rule="nonzero" node-id="114" stroke="none" target-height="67.900024" target-width="46.22" target-x="503.41" target-y="851.63"></path><path d="M 511.08 917.39 C 511.08 917.39 540.73 914.75 547.85 904.08 C 547.85 904.08 595.18 904.08 617.85 921.63 C 620.79 923.90 622.16 927.67 621.37 931.30 C 620.58 934.94 617.76 937.79 614.14 938.63 L 525.86 958.43 C 522.90 959.09 519.80 958.43 517.38 956.62 C 514.95 954.80 513.43 952.02 513.22 949.00 Z" fill="#ffffff" fill-rule="nonzero" node-id="116" stroke="none" target-height="55.01001" target-width="111.07999" target-x="511.08" target-y="904.08"></path><path d="M 523.60 960.87 C 517.00 960.87 511.54 955.76 511.09 949.18 L 509.00 917.54 C 508.92 916.38 509.78 915.37 510.94 915.27 C 518.94 914.56 540.76 910.95 546.13 902.89 C 546.52 902.30 547.19 901.94 547.90 901.94 L 547.90 901.94 C 549.90 901.94 596.23 902.20 619.23 919.94 C 622.88 922.72 624.57 927.38 623.56 931.86 C 622.60 936.31 619.13 939.79 614.68 940.76 L 526.40 960.56 C 525.48 960.77 524.54 960.88 523.60 960.87 Z M 513.34 919.30 L 515.34 948.89 C 515.51 951.30 516.72 953.51 518.65 954.96 C 520.59 956.40 523.05 956.93 525.41 956.40 L 613.68 936.60 C 616.52 936.00 618.74 933.78 619.34 930.94 C 620.01 928.07 618.92 925.08 616.56 923.32 C 596.56 907.90 556.00 906.32 548.90 906.23 C 541.59 915.27 520.17 918.49 513.34 919.30 Z" fill="#040000" fill-rule="nonzero" node-id="118" stroke="none" target-height="58.940002" target-width="115.649994" target-x="508.92" target-y="901.94"></path><path d="M 243.50 593.76 L 207.12 596.58 L 202.45 536.26 L 238.82 533.44 Z" fill="#ffffff" fill-rule="nonzero" group-id="3" node-id="122" stroke="none" target-height="63.140015" target-width="41.050003" target-x="202.45" target-y="533.44"></path><path d="M 207.12 598.72 C 206.61 598.72 206.12 598.54 205.73 598.21 C 205.30 597.84 205.03 597.32 204.99 596.75 L 200.31 536.43 C 200.27 535.86 200.46 535.30 200.83 534.87 C 201.21 534.44 201.74 534.18 202.31 534.14 L 238.67 531.32 C 239.24 531.28 239.80 531.47 240.23 531.83 C 240.66 532.20 240.92 532.72 240.97 533.28 L 245.64 593.61 C 245.68 594.18 245.49 594.74 245.12 595.17 C 244.74 595.60 244.21 595.86 243.64 595.90 L 207.27 598.72 Z M 204.73 538.23 L 209.08 594.30 L 241.19 591.81 L 236.85 535.74 Z" fill="#040000" fill-rule="nonzero" node-id="125" stroke="none" target-height="67.43994" target-width="45.40999" target-x="200.27" target-y="531.28"></path><path d="M 238.81 533.45 C 238.81 533.45 209.12 535.69 201.86 546.27 C 201.86 546.27 154.53 545.59 132.08 527.78 C 129.13 525.48 127.78 521.67 128.63 518.02 C 129.47 514.38 132.36 511.55 136.02 510.78 L 224.55 492.16 C 227.52 491.53 230.62 492.23 233.03 494.08 C 235.44 495.93 236.93 498.74 237.09 501.77 Z" fill="#ffffff" fill-rule="nonzero" node-id="127" stroke="none" target-height="54.74002" target-width="111.03" target-x="127.78" target-y="491.53"></path><path d="M 201.86 548.41 L 201.86 548.41 C 199.86 548.41 153.54 547.50 130.78 529.41 C 127.19 526.59 125.56 521.94 126.59 517.50 C 127.63 513.05 131.14 509.61 135.61 508.66 L 224.15 490.04 C 227.73 489.29 231.46 490.14 234.36 492.36 C 237.27 494.59 239.05 497.98 239.25 501.63 L 240.97 533.29 C 241.03 534.46 240.14 535.46 238.97 535.54 C 230.97 536.14 209.09 539.46 203.62 547.44 C 203.23 548.03 202.57 548.40 201.86 548.41 Z M 226.70 494.08 C 226.13 494.08 225.55 494.13 224.99 494.25 L 136.46 512.87 C 133.61 513.43 131.36 515.62 130.73 518.46 C 130.02 521.31 131.07 524.32 133.40 526.11 C 153.19 541.80 193.73 543.87 200.82 544.11 C 208.27 535.11 229.73 532.23 236.57 531.52 L 235.00 501.90 C 234.77 497.51 231.14 494.07 226.74 494.08 Z" fill="#040000" fill-rule="nonzero" node-id="129" stroke="none" target-height="59.119965" target-width="115.47" target-x="125.56" target-y="489.29"></path><path d="M 484.70 528.69 C 484.70 528.69 561.70 562.53 572.55 855.24 C 572.55 855.24 504.48 879.62 470.30 845.43 C 470.30 845.43 485.16 717.43 407.88 615.88 C 407.88 615.88 207.08 928.18 183.05 571.40 L 269.36 558.05 L 275.58 630.12 C 275.58 630.12 304.06 522.46 345.00 513.56 C 385.94 504.66 484.70 528.69 484.70 528.69 Z" fill="#040000" fill-rule="nonzero" node-id="131" stroke="none" target-height="423.52" target-width="389.5" target-x="183.05" target-y="504.66"></path><path d="M 655.66 331.21 L 767.49 289.41 C 785.35 293.16 789.57 286.41 796.49 282.41 C 798.37 281.34 811.13 277.74 813.28 277.53 C 819.67 276.93 828.15 273.43 828.60 269.00 C 828.97 265.48 824.83 264.64 824.83 264.64 C 824.83 264.64 830.30 262.94 830.63 259.91 C 831.27 254.04 824.08 254.91 824.08 254.91 C 827.07 254.19 829.22 251.58 829.35 248.51 C 829.95 242.68 821.56 244.51 821.56 244.51 C 821.56 244.51 828.62 240.45 822.72 233.20 C 815.12 223.87 749.93 259.96 749.93 259.96 L 645.10 292.83 L 597.17 304.32 C 597.17 304.32 593.45 339.17 595.17 341.32 C 596.89 343.47 655.66 331.21 655.66 331.21 Z" fill="#ffffff" fill-rule="nonzero" node-id="133" stroke="none" target-height="119.600006" target-width="237.82" target-x="593.45" target-y="223.87"></path><path d="M 596.88 343.54 C 594.25 343.54 593.88 343.05 593.54 342.66 C 592.91 341.89 591.23 339.83 595.05 304.09 C 595.15 303.19 595.80 302.46 596.68 302.25 L 644.60 290.75 L 749.07 258.00 C 764.95 249.21 816.29 221.95 824.35 231.87 C 826.65 234.69 827.55 237.50 827.05 240.22 C 826.92 240.94 826.69 241.64 826.36 242.30 C 827.61 242.48 828.78 243.01 829.75 243.83 C 831.11 245.08 831.75 246.93 831.45 248.75 C 831.29 250.56 830.64 252.29 829.56 253.75 C 830.12 254.03 830.63 254.40 831.07 254.84 C 832.44 256.25 833.05 258.23 832.73 260.17 C 832.36 262.17 831.12 263.90 829.34 264.89 C 830.41 266.07 830.92 267.67 830.71 269.25 C 830.09 275.31 820.05 279.06 813.46 279.69 C 811.35 279.89 798.99 283.46 797.53 284.30 C 796.27 285.01 795.10 285.83 793.93 286.65 C 788.60 290.38 782.57 294.60 767.66 291.65 L 656.41 333.21 C 656.31 333.25 656.20 333.28 656.09 333.30 C 616.17 341.62 602.10 343.54 596.88 343.54 Z M 599.14 306.04 C 597.67 320.11 596.54 335.25 596.92 339.45 C 602.92 339.38 630.47 334.28 655.07 329.16 L 766.74 287.41 C 767.12 287.27 767.53 287.23 767.93 287.32 C 781.48 290.16 786.34 286.77 791.48 283.17 C 792.77 282.27 794.04 281.38 795.42 280.60 C 797.59 279.36 810.54 275.69 813.06 275.45 C 819.42 274.85 826.19 271.50 826.46 268.82 C 826.62 267.31 824.59 266.82 824.36 266.77 C 823.41 266.56 822.72 265.75 822.68 264.78 C 822.64 263.81 823.25 262.93 824.17 262.64 C 826.17 262.03 828.39 260.64 828.49 259.72 C 828.63 258.44 828.20 258.02 828.07 257.88 C 827.22 257.04 825.16 256.96 824.30 257.06 C 823.13 257.23 822.05 256.42 821.89 255.25 C 821.72 254.09 822.52 253.01 823.69 252.84 C 823.98 252.78 826.82 252.09 827.21 248.32 C 827.30 247.37 827.01 247.11 826.90 247.01 C 826.02 246.21 823.44 246.30 821.98 246.60 C 820.96 246.81 819.93 246.25 819.55 245.27 C 819.18 244.30 819.57 243.19 820.48 242.67 C 821.66 241.92 822.50 240.76 822.86 239.41 C 823.11 237.98 822.50 236.35 821.04 234.56 C 817.04 229.64 781.55 244.89 750.95 261.83 C 750.82 261.90 750.69 261.96 750.55 262.00 L 645.74 294.86 Z M 596.00 339.40 M 655.64 331.21 L 655.64 331.21 Z" fill="#040000" fill-rule="nonzero" node-id="135" stroke="none" target-height="121.59001" target-width="241.82" target-x="591.23" target-y="221.95"></path><path d="M 773.14 279.53 C 772.09 279.53 771.05 279.48 770.01 279.37 C 769.44 279.31 768.92 279.03 768.56 278.58 C 768.20 278.14 768.04 277.57 768.10 277.00 C 768.24 275.84 769.27 274.99 770.44 275.09 C 775.44 275.62 779.24 274.76 781.74 272.56 C 783.54 270.90 784.66 268.64 784.88 266.20 C 784.90 265.42 785.35 264.71 786.05 264.36 C 787.19 263.78 789.19 262.94 791.47 262.00 C 795.47 260.33 800.94 258.00 802.61 256.68 C 803.42 256.19 803.76 255.20 803.42 254.32 C 803.02 253.55 801.69 252.92 799.25 253.63 C 794.10 255.15 788.79 256.11 783.43 256.48 C 782.29 256.47 781.36 255.57 781.31 254.44 C 781.26 253.30 782.11 252.32 783.24 252.21 C 788.26 251.86 793.22 250.96 798.05 249.54 C 802.96 248.11 806.05 250.14 807.20 252.33 C 808.49 255.01 807.70 258.22 805.31 259.99 C 803.31 261.61 798.80 263.56 793.11 265.93 C 791.52 266.59 790.11 267.20 788.99 267.69 C 788.46 270.81 786.90 273.66 784.55 275.77 C 781.73 278.28 777.90 279.53 773.14 279.53 Z" fill="#040000" fill-rule="nonzero" node-id="137" stroke="none" target-height="31.419998" target-width="40.450012" target-x="768.04" target-y="248.11"></path><path d="M 803.77 253.58 C 802.74 253.59 801.85 252.86 801.66 251.85 C 801.46 250.83 802.03 249.83 802.99 249.46 L 820.76 242.53 C 821.86 242.10 823.11 242.65 823.53 243.75 C 823.96 244.86 823.41 246.10 822.31 246.53 L 804.54 253.46 C 804.29 253.55 804.03 253.59 803.77 253.58 Z" fill="#040000" fill-rule="nonzero" node-id="139" stroke="none" target-height="11.48999" target-width="22.5" target-x="801.46" target-y="242.1"></path><path d="M 787.39 270.00 C 786.36 269.99 785.48 269.24 785.30 268.22 C 785.13 267.20 785.71 266.20 786.68 265.85 L 823.35 252.96 C 824.08 252.62 824.95 252.73 825.58 253.23 C 826.21 253.74 826.50 254.56 826.32 255.35 C 826.15 256.14 825.54 256.76 824.76 256.96 L 788.10 269.86 C 787.87 269.95 787.63 269.99 787.39 270.00 Z" fill="#040000" fill-rule="nonzero" node-id="141" stroke="none" target-height="17.380005" target-width="41.369995" target-x="785.13" target-y="252.62"></path><path d="M 803.68 273.05 C 802.61 273.06 801.70 272.28 801.55 271.22 C 801.40 270.17 802.05 269.16 803.08 268.87 L 824.20 262.63 C 825.33 262.30 826.52 262.94 826.85 264.07 C 827.18 265.20 826.54 266.39 825.41 266.72 L 804.29 273.00 C 804.09 273.05 803.88 273.06 803.68 273.05 Z" fill="#040000" fill-rule="nonzero" node-id="143" stroke="none" target-height="10.76001" target-width="25.779968" target-x="801.4" target-y="262.3"></path><path d="M 529.35 282.87 L 567.75 282.87 C 580.55 282.87 603.54 274.34 603.54 274.34 L 593.35 304.21 L 572.00 312.74 L 550.66 299.94 Z" fill="#040000" fill-rule="nonzero" node-id="145" stroke="none" target-height="38.399994" target-width="74.19" target-x="529.35" target-y="274.34"></path><path d="M 618.60 281.94 L 638.79 349.94 C 640.53 356.03 636.61 362.49 630.03 364.38 L 582.03 375.21 C 558.58 381.93 534.53 369.77 528.31 348.05 L 526.52 341.80 C 520.30 320.09 534.27 297.04 557.73 290.33 L 603.50 274.33 C 610.11 272.44 616.86 275.85 618.60 281.94 Z" fill="#040000" fill-rule="nonzero" node-id="147" stroke="none" target-height="109.48999" target-width="120.23004" target-x="520.3" target-y="272.44"></path><path d="M 362.10 415.16 C 341.18 441.33 324.34 483.66 316.63 505.07 C 313.85 512.84 317.13 521.47 324.38 525.42 C 404.06 568.81 475.92 566.26 499.38 563.90 C 504.40 563.43 508.92 560.67 511.64 556.43 C 554.95 487.67 559.22 398.07 559.22 398.07 C 560.85 375.16 561.22 354.75 561.08 338.31 C 560.76 302.16 531.82 272.79 495.68 271.93 C 491.36 271.83 486.68 271.78 481.53 271.63 C 336.12 267.63 337.88 407.47 337.88 407.47" fill="#ffffff" fill-rule="nonzero" node-id="149" stroke="none" target-height="301.18" target-width="247.36996" target-x="313.85" target-y="267.63"></path><path d="M 475.38 567.17 C 440.79 567.17 384.60 560.65 323.38 527.29 C 315.26 522.80 311.58 513.10 314.66 504.35 C 322.79 481.77 339.55 439.98 360.46 413.83 C 361.21 412.97 362.51 412.85 363.41 413.57 C 364.30 414.28 364.48 415.57 363.80 416.50 C 343.27 442.16 326.71 483.50 318.67 505.79 C 316.28 512.57 319.14 520.08 325.43 523.55 C 403.35 565.98 472.90 564.42 499.20 561.78 C 503.56 561.36 507.49 558.97 509.87 555.29 C 552.35 487.79 557.00 398.86 557.09 398.00 C 558.51 378.10 559.09 358.00 558.95 338.36 C 558.76 303.31 530.67 274.80 495.63 274.10 L 490.07 273.98 C 487.36 273.93 484.50 273.88 481.47 273.80 C 438.18 272.58 403.90 284.19 379.47 308.22 C 339.72 347.38 340.00 406.85 340.00 407.45 C 340.01 408.63 339.07 409.59 337.89 409.61 L 337.89 409.61 C 336.72 409.61 335.77 408.67 335.75 407.50 C 335.75 406.88 335.46 345.60 376.51 305.15 C 401.78 280.27 437.12 268.28 481.60 269.50 C 484.60 269.58 487.46 269.64 490.15 269.69 L 495.74 269.80 C 533.09 270.55 563.03 300.93 563.23 338.29 C 563.41 358.10 562.78 378.29 561.35 398.22 C 561.35 399.07 556.57 489.13 513.46 557.56 C 510.37 562.35 505.26 565.46 499.59 566.00 C 491.54 566.80 483.46 567.19 475.38 567.17 Z" fill="#040000" fill-rule="nonzero" node-id="151" stroke="none" target-height="298.91" target-width="251.82999" target-x="311.58" target-y="268.28"></path><path d="M 449.83 214.00 L 468.39 214.00 L 468.39 214.00 L 468.39 245.13 L 468.39 245.13 L 449.83 245.13 C 441.24 245.13 434.27 238.16 434.27 229.57 L 434.27 229.57 C 434.27 225.44 435.91 221.48 438.82 218.56 C 441.74 215.64 445.70 214.00 449.83 214.00 Z" fill="#ffffff" fill-rule="nonzero" node-id="153" stroke="none" target-height="31.130005" target-width="34.120026" target-x="434.27" target-y="214"></path><path d="M 468.39 247.22 L 449.10 247.22 C 439.71 247.22 432.10 239.61 432.10 230.22 L 432.10 228.80 C 432.10 219.41 439.71 211.80 449.10 211.80 L 468.39 211.80 C 469.57 211.80 470.53 212.76 470.53 213.94 L 470.53 245.06 C 470.54 245.63 470.32 246.18 469.91 246.59 C 469.51 247.00 468.96 247.22 468.39 247.22 Z M 449.10 216.10 C 442.09 216.11 436.41 221.79 436.40 228.80 L 436.40 230.26 C 436.39 233.63 437.73 236.87 440.11 239.26 C 442.49 241.65 445.73 242.99 449.10 243.00 L 466.26 243.00 L 466.26 216.10 Z" fill="#040000" fill-rule="nonzero" node-id="155" stroke="none" target-height="35.42" target-width="38.440002" target-x="432.1" target-y="211.8"></path><path d="M 572.86 245.06 L 549.54 245.06 L 549.54 245.06 L 549.54 213.93 L 549.54 213.93 L 570.80 213.93 L 573.15 214.15 L 575.30 214.74 L 577.30 215.69 L 579.10 216.97 L 580.63 218.50 L 581.91 220.30 L 582.86 222.30 L 583.45 224.45 L 583.67 226.80 L 583.67 234.24 L 583.46 236.36 L 582.85 238.38 L 581.86 240.24 L 580.51 241.89 L 578.86 243.24 L 577.00 244.24 L 574.98 244.85 L 572.86 245.06 Z" fill="#ffffff" fill-rule="nonzero" group-id="4" node-id="159" stroke="none" target-height="31.130005" target-width="34.130005" target-x="549.54" target-y="213.93"></path><path d="M 568.84 247.22 L 549.55 247.22 C 548.37 247.22 547.42 246.27 547.42 245.09 L 547.42 214.00 C 547.42 213.43 547.64 212.89 548.04 212.49 C 548.44 212.09 548.98 211.86 549.55 211.86 L 568.84 211.86 C 578.23 211.86 585.84 219.47 585.84 228.86 L 585.84 230.32 C 585.79 239.67 578.19 247.22 568.84 247.22 Z M 551.68 243.00 L 568.84 243.00 C 575.85 242.99 581.53 237.31 581.54 230.30 L 581.54 228.80 C 581.53 221.79 575.85 216.11 568.84 216.10 L 551.68 216.10 Z" fill="#040000" fill-rule="nonzero" node-id="162" stroke="none" target-height="35.36" target-width="38.420044" target-x="547.42" target-y="211.86"></path><path d="M 486.69 287.55 L 491.59 288.26 L 496.13 289.21 L 500.33 290.37 L 504.46 291.81 L 508.06 293.38 L 511.20 295.06 L 514.16 297.03 L 516.47 299.00 L 518.21 300.97 L 519.55 303.19 L 520.22 305.33 L 520.29 307.47 L 519.74 309.54 L 518.61 311.48 L 516.80 313.34 L 514.66 314.87 L 511.97 316.27 L 508.64 317.52 L 505.21 318.45 L 501.34 319.17 L 497.00 319.65 L 492.64 319.83 L 488.00 319.73 L 483.07 319.32 L 478.17 318.61 L 473.64 317.67 L 469.43 316.51 L 465.30 315.06 L 461.70 313.50 L 458.56 311.82 L 455.60 309.85 L 453.29 307.88 L 451.55 305.90 L 450.21 303.69 L 449.54 301.54 L 449.47 299.40 L 450.02 297.33 L 451.16 295.39 L 452.96 293.54 L 455.10 292.01 L 457.79 290.61 L 461.12 289.35 L 464.55 288.42 L 468.42 287.71 L 472.76 287.23 L 477.12 287.04 L 481.76 287.14 L 486.69 287.55 Z" fill="#040000" fill-rule="nonzero" group-id="5" node-id="166" stroke="none" target-height="32.789978" target-width="70.81998" target-x="449.47" target-y="287.04"></path><path d="M 477.83 281.57 L 468.94 304.00 C 468.94 304.00 486.02 318.30 505.24 309.64 L 515.47 286.56 Z" fill="#ffffff" fill-rule="nonzero" node-id="169" stroke="none" target-height="36.72998" target-width="46.52997" target-x="468.94" target-y="281.57"></path><path d="M 492.29 314.59 C 478.47 314.59 468.14 306.11 467.57 305.64 C 466.87 305.05 466.62 304.07 466.96 303.22 L 475.84 280.79 C 476.21 279.88 477.14 279.33 478.11 279.46 L 515.75 284.46 C 516.41 284.55 517.00 284.95 517.33 285.53 C 517.66 286.12 517.70 286.83 517.42 287.44 L 507.19 310.50 C 506.98 310.98 506.60 311.37 506.12 311.58 C 501.78 313.56 497.06 314.59 492.29 314.59 Z M 471.53 303.27 C 475.53 306.09 488.98 314.16 503.63 308.01 L 512.37 288.30 L 479.20 283.91 Z" fill="#040000" fill-rule="nonzero" node-id="171" stroke="none" target-height="35.26001" target-width="51.080017" target-x="466.62" target-y="279.33"></path><path d="M 511.00 142.57 L 511.00 142.57 C 540.54 142.57 564.48 166.51 564.48 196.05 L 564.48 243.67 C 564.48 272.94 540.75 296.67 511.48 296.67 L 510.62 296.67 C 481.35 296.67 457.62 272.94 457.62 243.67 L 457.62 196.05 C 457.62 166.55 481.50 142.63 511.00 142.57 Z" fill="#ffffff" fill-rule="nonzero" node-id="173" stroke="none" target-height="154.1" target-width="106.859985" target-x="457.62" target-y="142.57"></path><path d="M 512.87 298.85 L 509.22 298.85 C 479.53 298.82 455.46 274.75 455.43 245.06 L 455.43 196.06 C 455.43 165.35 480.33 140.45 511.04 140.45 C 541.75 140.45 566.65 165.35 566.65 196.06 L 566.65 245.06 C 566.62 274.75 542.56 298.81 512.87 298.85 Z M 511.00 144.71 C 482.66 144.74 459.69 167.71 459.66 196.05 L 459.66 245.05 C 459.69 272.39 481.84 294.54 509.18 294.57 L 512.83 294.57 C 540.16 294.54 562.31 272.38 562.34 245.05 L 562.34 196.05 C 562.31 167.71 539.34 144.74 511.00 144.71 Z" fill="#040000" fill-rule="nonzero" node-id="175" stroke="none" target-height="158.40001" target-width="111.22003" target-x="455.43" target-y="140.45"></path><path d="M 443.08 227.68 C 443.08 227.68 452.72 225.58 455.73 231.68" fill="#ffffff" fill-rule="nonzero" node-id="177" stroke="none" target-height="6.099991" target-width="12.650024" target-x="443.08" target-y="225.58"></path><path d="M 455.73 233.86 C 454.92 233.86 454.17 233.39 453.82 232.66 C 451.59 228.10 443.62 229.75 443.53 229.77 C 442.38 230.01 441.25 229.28 441.00 228.13 C 440.75 226.98 441.48 225.85 442.63 225.60 C 443.09 225.50 453.94 223.22 457.63 230.78 C 457.88 231.29 457.91 231.88 457.72 232.42 C 457.54 232.95 457.14 233.39 456.63 233.64 C 456.35 233.78 456.04 233.85 455.73 233.86 Z" fill="#040000" fill-rule="nonzero" node-id="179" stroke="none" target-height="10.639999" target-width="17.160004" target-x="440.75" target-y="223.22"></path><path d="M 574.87 227.68 C 572.45 227.21 569.95 227.23 567.54 227.75" fill="#ffffff" fill-rule="nonzero" node-id="181" stroke="none" target-height="0.5399933" target-width="7.330017" target-x="567.54" target-y="227.21"></path><path d="M 567.54 229.88 C 566.47 229.86 565.58 229.06 565.45 228.00 C 565.32 226.94 565.99 225.94 567.03 225.67 C 569.76 225.09 572.59 225.06 575.33 225.60 C 576.47 225.85 577.20 226.98 576.95 228.13 C 576.70 229.28 575.57 230.01 574.42 229.77 C 572.32 229.36 570.16 229.36 568.06 229.77 C 567.89 229.83 567.72 229.86 567.54 229.88 Z" fill="#040000" fill-rule="nonzero" node-id="183" stroke="none" target-height="4.949997" target-width="11.880005" target-x="565.32" target-y="225.06"></path><path d="M 491.00 244.39 C 482.02 244.39 473.93 238.99 470.49 230.70 C 467.05 222.40 468.95 212.86 475.30 206.51 C 481.65 200.16 491.19 198.26 499.49 201.70 C 507.78 205.14 513.18 213.23 513.18 222.21 C 513.16 234.45 503.24 244.37 491.00 244.39 Z M 491.00 204.29 C 481.10 204.29 473.08 212.31 473.08 222.21 C 473.08 232.11 481.10 240.13 491.00 240.13 C 500.90 240.13 508.92 232.11 508.92 222.21 C 508.91 212.32 500.89 204.30 491.00 204.29 Z" fill="#040000" fill-rule="nonzero" node-id="185" stroke="none" target-height="46.130005" target-width="46.130005" target-x="467.05" target-y="198.26"></path><path d="M 545.28 244.39 C 536.30 244.39 528.21 238.98 524.78 230.69 C 521.34 222.40 523.24 212.85 529.59 206.51 C 535.94 200.16 545.49 198.26 553.78 201.70 C 562.07 205.14 567.47 213.23 567.47 222.21 C 567.45 234.46 557.53 244.38 545.28 244.39 Z M 545.28 204.29 C 535.38 204.29 527.36 212.31 527.36 222.21 C 527.36 232.11 535.38 240.13 545.28 240.13 C 555.18 240.13 563.20 232.11 563.20 222.21 C 563.19 212.32 555.17 204.30 545.28 204.29 Z" fill="#040000" fill-rule="nonzero" node-id="187" stroke="none" target-height="46.130005" target-width="46.129944" target-x="521.34" target-y="198.26"></path><path d="M 493.84 500.05 L 419.22 500.05 C 413.44 500.09 407.92 497.63 404.08 493.31 C 400.60 489.42 398.99 484.21 399.68 479.04 L 414.79 364.46 C 416.02 355.12 424.42 348.09 434.32 348.09 L 508.94 348.09 C 514.72 348.05 520.24 350.50 524.08 354.82 C 527.56 358.71 529.17 363.93 528.48 369.10 L 513.37 483.68 C 512.14 493.00 503.74 500.05 493.84 500.05 Z M 434.32 352.36 C 426.55 352.36 419.97 357.80 419.02 365.01 L 403.91 479.60 C 403.39 483.55 404.63 487.53 407.29 490.50 C 410.32 493.90 414.67 495.82 419.22 495.78 L 493.84 495.78 C 501.61 495.78 508.19 490.34 509.14 483.12 L 524.25 368.54 C 524.77 364.59 523.53 360.61 520.87 357.64 C 517.84 354.24 513.49 352.32 508.94 352.36 Z" fill="#040000" fill-rule="nonzero" node-id="189" stroke="none" target-height="152.04001" target-width="130.18" target-x="398.99" target-y="348.05"></path><path d="M 403.65 447.73 C 403.65 440.12 406.46 415.30 406.46 415.30 L 362.26 410.30" fill="#ffffff" fill-rule="nonzero" node-id="191" stroke="none" target-height="37.430023" target-width="44.19998" target-x="362.26" target-y="410.3"></path><path d="M 403.65 449.86 C 402.47 449.86 401.52 448.91 401.52 447.73 C 401.52 441.32 403.43 423.39 404.11 417.17 L 362.00 412.38 C 360.83 412.25 359.99 411.19 360.12 410.02 C 360.25 408.85 361.31 408.01 362.48 408.14 L 406.68 413.14 C 407.24 413.20 407.76 413.48 408.11 413.92 C 408.46 414.36 408.62 414.93 408.56 415.49 C 408.56 415.74 405.76 440.29 405.76 447.69 C 405.77 448.26 405.55 448.81 405.16 449.21 C 404.76 449.62 404.22 449.85 403.65 449.86 Z" fill="#040000" fill-rule="nonzero" node-id="193" stroke="none" target-height="41.849976" target-width="48.630005" target-x="359.99" target-y="408.01"></path><path d="M 359.56 410.26 C 359.56 410.26 353.19 441.71 353.22 466.86 C 353.20 473.28 355.79 479.43 360.39 483.91 C 364.99 488.39 371.21 490.81 377.63 490.62 C 403.41 489.77 446.72 475.23 504.00 452.11 L 524.79 444.32 C 530.92 442.24 536.40 438.59 540.70 433.75 C 544.50 429.35 548.06 424.75 542.21 422.25 C 542.21 422.25 550.45 413.40 541.21 411.25 C 541.21 411.25 545.71 401.60 535.21 403.45 C 535.21 403.45 533.90 394.45 526.47 399.07 C 519.47 403.43 514.76 410.96 504.18 414.48 C 504.18 414.48 511.18 404.88 506.18 401.76 C 501.18 398.64 496.39 404.68 489.05 421.07 C 489.05 421.07 487.71 425.70 484.83 426.33 C 482.22 426.90 429.83 437.20 392.76 452.92" fill="#ffffff" fill-rule="nonzero" node-id="195" stroke="none" target-height="96.359985" target-width="197.26001" target-x="353.19" target-y="394.45"></path><path d="M 376.83 492.77 C 370.17 492.78 363.77 490.19 359.00 485.54 C 353.92 480.66 351.06 473.91 351.08 466.87 C 351.08 441.78 357.40 410.15 357.47 409.87 C 357.58 409.31 357.91 408.83 358.38 408.51 C 358.85 408.20 359.43 408.09 359.98 408.21 C 361.13 408.45 361.88 409.57 361.65 410.72 C 361.58 411.03 355.33 442.26 355.35 466.90 C 355.33 472.74 357.69 478.34 361.87 482.42 C 366.06 486.50 371.72 488.70 377.56 488.53 C 400.63 487.77 439.37 475.94 503.20 450.17 L 524.05 442.36 C 529.83 440.38 535.00 436.94 539.05 432.36 C 540.49 430.70 543.47 427.25 543.11 425.68 C 542.96 425.02 541.93 424.48 541.33 424.22 C 540.69 423.95 540.23 423.38 540.09 422.70 C 539.95 422.02 540.14 421.32 540.61 420.81 C 541.99 419.32 543.82 416.43 543.36 414.94 C 543.10 414.07 541.77 413.59 540.71 413.34 C 540.09 413.19 539.56 412.77 539.28 412.20 C 539.00 411.62 539.00 410.95 539.28 410.37 C 539.88 409.04 540.38 406.77 539.75 405.95 C 539.28 405.33 537.75 405.19 535.63 405.56 C 535.06 405.67 534.48 405.53 534.01 405.19 C 533.54 404.85 533.23 404.34 533.14 403.77 C 532.99 402.77 532.29 400.61 531.07 400.05 C 530.07 399.59 528.66 400.26 527.64 400.89 C 525.23 402.50 522.96 404.30 520.86 406.29 C 516.74 409.96 512.07 414.12 504.86 416.51 C 503.98 416.80 503.01 416.49 502.47 415.74 C 501.92 414.99 501.92 413.98 502.47 413.23 C 503.99 411.13 506.26 406.95 505.81 404.67 C 505.74 404.21 505.47 403.81 505.07 403.58 C 504.50 403.15 503.76 403.01 503.07 403.21 C 499.28 404.37 494.38 414.46 491.07 421.95 C 491.00 422.27 489.36 427.55 485.36 428.42 L 484.36 428.63 C 467.52 432.11 424.97 441.63 393.65 454.90 C 392.62 455.17 391.55 454.64 391.14 453.66 C 390.73 452.68 391.09 451.55 392.00 451.00 C 423.67 437.57 466.55 428.00 483.51 424.48 L 484.46 424.29 C 485.51 424.06 486.66 421.94 487.09 420.51 C 493.38 406.40 497.50 400.51 501.87 399.16 C 503.74 398.60 505.77 398.90 507.39 399.99 C 508.80 400.85 509.77 402.27 510.06 403.89 C 510.33 405.96 510.02 408.06 509.17 409.97 C 512.34 407.99 515.30 405.69 518.00 403.10 C 520.28 400.94 522.75 398.99 525.37 397.26 C 528.15 395.52 530.67 395.16 532.85 396.17 C 534.80 397.21 536.24 398.99 536.85 401.11 C 539.77 400.95 541.85 401.68 543.13 403.34 C 544.68 405.34 544.41 408.04 543.93 409.92 C 545.61 410.60 546.90 411.97 547.47 413.69 C 548.34 416.56 546.74 419.69 545.36 421.69 C 546.32 422.45 547.00 423.50 547.29 424.69 C 548.07 428.09 545.37 431.56 542.29 435.11 C 537.76 440.24 531.97 444.09 525.49 446.30 L 504.73 454.08 C 440.47 480.02 401.27 491.94 377.73 492.72 Z" fill="#040000" fill-rule="nonzero" node-id="197" stroke="none" target-height="97.619995" target-width="197.28003" target-x="351.06" target-y="395.16"></path><path d="M 535.26 403.45 C 535.26 403.45 535.62 411.61 515.43 420.45" fill="#ffffff" fill-rule="nonzero" node-id="199" stroke="none" target-height="17" target-width="20.190002" target-x="515.43" target-y="403.45"></path><path d="M 515.43 422.55 C 514.42 422.55 513.55 421.85 513.34 420.86 C 513.13 419.87 513.65 418.88 514.57 418.47 C 532.68 410.56 533.13 403.53 533.13 403.47 C 533.12 402.90 533.34 402.35 533.74 401.95 C 534.15 401.56 534.70 401.34 535.27 401.37 C 536.40 401.35 537.35 402.24 537.40 403.37 C 537.40 404.37 537.21 413.25 516.28 422.37 C 516.01 422.49 515.72 422.55 515.43 422.55 Z" fill="#040000" fill-rule="nonzero" node-id="201" stroke="none" target-height="21.209991" target-width="24.27002" target-x="513.13" target-y="401.34"></path><path d="M 541.69 409.26 C 541.69 409.26 534.92 424.18 518.56 427.80" fill="#ffffff" fill-rule="nonzero" node-id="203" stroke="none" target-height="18.539978" target-width="23.130005" target-x="518.56" target-y="409.26"></path><path d="M 518.56 429.94 C 517.48 429.92 516.59 429.10 516.47 428.03 C 516.36 426.96 517.05 425.97 518.10 425.72 C 533.17 422.38 539.69 408.52 539.75 408.38 C 540.24 407.31 541.50 406.83 542.57 407.32 C 543.64 407.81 544.12 409.07 543.63 410.14 C 543.34 410.79 536.22 426.08 519.02 429.89 C 518.87 429.92 518.71 429.94 518.56 429.94 Z" fill="#040000" fill-rule="nonzero" node-id="205" stroke="none" target-height="23.110016" target-width="27.76001" target-x="516.36" target-y="406.83"></path><path d="M 543.39 420.62 C 543.39 420.62 532.97 433.38 520.31 434.92" fill="#ffffff" fill-rule="nonzero" node-id="207" stroke="none" target-height="14.300018" target-width="23.080017" target-x="520.31" target-y="420.62"></path><path d="M 520.31 437.05 C 519.16 437.08 518.19 436.20 518.12 435.05 C 518.05 433.90 518.90 432.91 520.05 432.80 C 531.73 431.38 541.64 419.39 541.74 419.27 C 542.21 418.63 543.00 418.31 543.78 418.43 C 544.56 418.55 545.21 419.10 545.47 419.85 C 545.72 420.60 545.54 421.42 545.00 422.00 C 544.55 422.54 533.89 435.44 520.53 437.06 C 520.46 437.06 520.38 437.06 520.31 437.05 Z" fill="#040000" fill-rule="nonzero" node-id="209" stroke="none" target-height="18.769989" target-width="27.669983" target-x="518.05" target-y="418.31"></path><path d="M 679.33 541.00 C 678.57 540.99 677.87 540.59 677.49 539.93 C 677.11 539.28 677.11 538.47 677.48 537.81 L 695.93 505.32 C 696.51 504.30 697.82 503.94 698.84 504.52 C 699.86 505.10 700.22 506.41 699.64 507.43 L 681.19 539.92 C 680.81 540.59 680.10 541.00 679.33 541.00 Z" fill="#040000" fill-rule="nonzero" node-id="211" stroke="none" target-height="37.059998" target-width="23.109985" target-x="677.11" target-y="503.94"></path><path d="M 706.50 530.00 C 706.30 530.00 706.09 529.97 705.90 529.91 L 670.00 519.46 C 669.22 519.28 668.61 518.69 668.41 517.92 C 668.20 517.15 668.44 516.33 669.03 515.80 C 669.61 515.26 670.45 515.09 671.20 515.36 L 707.07 525.81 C 707.62 525.96 708.08 526.33 708.35 526.82 C 708.63 527.32 708.69 527.91 708.53 528.45 C 708.27 529.36 707.44 529.99 706.50 530.00 Z" fill="#040000" fill-rule="nonzero" node-id="213" stroke="none" target-height="14.909973" target-width="40.48999" target-x="668.2" target-y="515.09"></path><path d="M 205.23 384.82 C 200.45 384.82 196.05 381.46 192.15 374.82 C 189.07 369.57 185.91 366.82 183.02 366.74 L 183.00 366.74 C 179.37 366.74 176.27 371.04 175.11 372.89 C 173.41 375.78 171.23 378.35 168.66 380.49 C 161.21 386.34 153.30 385.34 146.97 377.73 C 143.83 373.96 140.83 372.05 138.05 372.05 C 135.27 372.05 133.12 373.97 131.78 375.57 C 128.78 379.15 125.90 381.47 122.90 382.66 C 118.59 384.37 112.15 385.03 105.84 378.44 C 103.35 375.84 100.84 374.61 98.28 374.86 C 93.37 375.30 89.66 380.86 89.63 380.86 C 89.00 381.86 87.67 382.16 86.67 381.53 C 85.67 380.90 85.37 379.57 86.00 378.57 C 86.19 378.27 90.84 371.27 97.81 370.62 C 101.68 370.26 105.42 371.90 108.87 375.50 C 112.61 379.41 116.78 380.50 121.26 378.71 C 123.58 377.78 125.93 375.87 128.44 372.85 C 130.37 370.55 133.58 367.80 137.99 367.80 C 142.10 367.80 146.20 370.22 150.19 375.01 C 155.11 380.92 160.27 381.62 165.96 377.15 C 168.14 375.31 169.99 373.11 171.43 370.64 C 173.35 367.58 177.43 362.48 182.94 362.48 L 183.07 362.48 C 187.60 362.55 191.88 365.97 195.82 372.67 C 198.92 377.93 202.24 380.52 205.28 380.55 C 209.84 380.55 214.03 374.81 215.28 372.62 C 215.91 371.71 217.12 371.42 218.09 371.96 C 219.05 372.50 219.45 373.69 219.00 374.70 C 218.77 375.11 213.32 384.70 205.35 384.82 Z" fill="#040000" fill-rule="nonzero" node-id="215" stroke="none" target-height="23.859985" target-width="134.07999" target-x="85.37" target-y="362.48"></path><path d="M 821.72 627.34 C 816.94 627.34 812.54 623.98 808.64 617.34 C 805.56 612.10 802.40 609.34 799.51 609.26 C 795.92 609.33 792.72 613.55 791.51 615.42 C 789.82 618.29 787.65 620.86 785.10 623.00 C 777.65 628.85 769.75 627.85 763.41 620.24 C 760.27 616.48 757.27 614.56 754.50 614.56 L 754.50 614.56 C 751.75 614.56 749.58 616.48 748.24 618.08 C 745.24 621.66 742.35 623.98 739.35 625.18 C 735.04 626.88 728.60 627.54 722.30 620.96 C 719.80 618.35 717.21 617.11 714.72 617.38 C 709.85 617.83 706.12 623.38 706.08 623.38 C 705.44 624.37 704.12 624.64 703.13 624.00 C 702.14 623.36 701.87 622.04 702.51 621.05 C 702.70 620.75 707.35 613.75 714.33 613.11 C 718.21 612.76 721.93 614.39 725.33 617.99 C 729.07 621.89 733.24 622.99 737.72 621.19 C 740.05 620.27 742.40 618.35 744.91 615.33 C 746.83 613.03 750.05 610.33 754.45 610.33 L 754.45 610.33 C 758.55 610.33 762.65 612.76 766.64 617.54 C 771.56 623.45 776.72 624.16 782.42 619.68 C 784.60 617.83 786.45 615.63 787.89 613.17 C 789.82 610.09 793.83 605.02 799.53 605.02 C 804.05 605.08 808.34 608.51 812.27 615.20 C 815.35 620.43 818.52 623.08 821.68 623.08 L 821.68 623.08 C 826.25 623.08 830.43 617.34 831.68 615.15 C 832.29 614.20 833.53 613.89 834.52 614.44 C 835.50 614.99 835.89 616.21 835.41 617.23 C 835.18 617.64 829.73 627.23 821.76 627.35 Z" fill="#040000" fill-rule="nonzero" node-id="217" stroke="none" target-height="23.829956" target-width="134.02002" target-x="701.87" target-y="605.02"></path><path d="M 821.72 601.74 C 816.94 601.74 812.54 598.38 808.64 591.74 C 805.56 586.50 802.40 583.74 799.51 583.66 C 795.92 583.66 792.72 587.95 791.51 589.82 C 789.81 592.70 787.63 595.27 785.06 597.41 C 777.61 603.26 769.71 602.27 763.37 594.65 C 760.23 590.89 757.23 588.97 754.46 588.97 L 754.46 588.97 C 751.71 588.97 749.54 590.89 748.20 592.49 C 745.20 596.07 742.31 598.39 739.31 599.59 C 735.00 601.29 728.56 601.95 722.26 595.37 C 719.76 592.76 717.17 591.53 714.68 591.79 C 709.81 592.24 706.08 597.79 706.04 597.79 C 705.40 598.78 704.08 599.05 703.09 598.41 C 702.10 597.77 701.83 596.45 702.47 595.46 C 702.66 595.16 707.31 588.16 714.29 587.52 C 718.17 587.17 721.89 588.80 725.29 592.40 C 729.03 596.30 733.20 597.40 737.68 595.60 C 740.01 594.68 742.36 592.76 744.87 589.74 C 746.79 587.44 750.01 584.74 754.41 584.74 L 754.41 584.74 C 758.51 584.74 762.61 587.17 766.60 591.95 C 771.52 597.86 776.68 598.57 782.38 594.09 C 784.56 592.24 786.41 590.04 787.85 587.58 C 789.78 584.50 793.79 579.43 799.49 579.43 C 804.01 579.49 808.30 582.92 812.23 589.61 C 815.33 594.88 818.68 597.50 821.69 597.49 C 826.26 597.49 830.44 591.75 831.69 589.56 C 832.30 588.61 833.54 588.30 834.53 588.85 C 835.51 589.40 835.90 590.62 835.42 591.64 C 835.19 592.05 829.74 601.64 821.77 601.76 Z" fill="#040000" fill-rule="nonzero" node-id="219" stroke="none" target-height="23.830017" target-width="134.07" target-x="701.83" target-y="579.43"></path><path d="M 205.23 410.13 C 200.45 410.13 196.05 406.77 192.15 400.13 C 189.07 394.89 185.91 392.13 183.02 392.05 L 183.00 392.05 C 179.37 392.05 176.27 396.35 175.11 398.21 C 173.41 401.09 171.23 403.66 168.66 405.81 C 161.21 411.66 153.30 410.66 146.97 403.05 C 143.83 399.28 140.83 397.37 138.05 397.37 C 135.27 397.37 133.12 399.28 131.78 400.89 C 128.78 404.46 125.90 406.78 122.90 407.98 C 118.59 409.68 112.15 410.34 105.84 403.76 C 103.35 401.15 100.84 399.94 98.28 400.17 C 93.37 400.62 89.66 406.17 89.63 406.17 C 89.00 407.17 87.67 407.47 86.67 406.84 C 85.67 406.21 85.37 404.88 86.00 403.88 C 86.19 403.58 90.84 396.58 97.81 395.94 C 101.68 395.58 105.42 397.22 108.87 400.82 C 112.61 404.72 116.78 405.82 121.26 404.02 C 123.58 403.10 125.93 401.18 128.44 398.17 C 130.37 395.86 133.58 393.11 137.99 393.11 C 142.10 393.11 146.20 395.54 150.19 400.33 C 155.11 406.24 160.27 406.93 165.96 402.46 C 168.14 400.62 169.99 398.42 171.43 395.95 C 173.37 392.87 177.61 387.67 183.07 387.80 C 187.60 387.86 191.88 391.29 195.82 397.98 C 198.90 403.21 202.06 405.87 205.22 405.87 L 205.28 405.87 C 209.84 405.82 214.03 400.12 215.28 397.93 C 215.91 397.03 217.12 396.75 218.07 397.29 C 219.03 397.82 219.43 398.99 219.00 400.00 C 218.77 400.41 213.32 410.00 205.35 410.12 Z" fill="#040000" fill-rule="nonzero" node-id="221" stroke="none" target-height="23.98999" target-width="134.06" target-x="85.37" target-y="387.67"></path><path d="M 413.34 424.55 L 342.99 415.55 C 336.71 414.68 332.38 408.49 333.31 401.71 L 342.77 353.45 C 346.09 329.29 366.93 312.20 389.30 315.28 L 395.74 316.16 C 418.12 319.24 433.56 341.33 430.24 365.49 L 426.40 413.83 C 425.46 420.62 419.62 425.41 413.34 424.55 Z" fill="#040000" fill-rule="nonzero" node-id="223" stroke="none" target-height="113.20999" target-width="101.17999" target-x="332.38" target-y="312.2"></path><path d="M 500.45 188.67 C 499.88 188.67 499.34 188.45 498.94 188.05 C 492.55 181.67 482.00 183.38 481.89 183.40 C 480.73 183.60 479.63 182.82 479.43 181.66 C 479.23 180.50 480.01 179.40 481.17 179.20 C 481.69 179.11 493.99 177.06 501.96 185.03 C 502.78 185.86 502.78 187.20 501.96 188.03 C 501.56 188.43 501.02 188.66 500.45 188.67 Z" fill="#040000" fill-rule="nonzero" node-id="225" stroke="none" target-height="11.610001" target-width="23.549988" target-x="479.23" target-y="177.06"></path><path d="M 530.88 188.67 C 530.32 188.67 529.77 188.45 529.37 188.05 C 528.55 187.22 528.55 185.88 529.37 185.05 C 537.37 177.05 549.64 179.13 550.17 179.22 C 551.33 179.42 552.11 180.53 551.90 181.69 C 551.70 182.84 550.60 183.62 549.44 183.42 C 549.33 183.42 538.77 181.68 532.39 188.07 C 531.98 188.46 531.44 188.68 530.88 188.67 Z" fill="#040000" fill-rule="nonzero" node-id="227" stroke="none" target-height="11.62999" target-width="23.559998" target-x="528.55" target-y="177.05"></path><path d="M 482.93 214.35 C 482.93 216.85 480.91 218.87 478.41 218.87 C 475.91 218.87 473.89 216.85 473.89 214.35 C 473.89 211.85 475.91 209.83 478.41 209.83 C 480.91 209.83 482.93 211.85 482.93 214.35 Z" fill="#040000" fill-rule="nonzero" node-id="229" stroke="none" target-height="9.039993" target-width="9.039978" target-x="473.89" target-y="209.83"></path><path d="M 537.88 214.86 C 537.88 217.36 535.86 219.38 533.36 219.38 C 530.86 219.38 528.84 217.36 528.84 214.86 C 528.84 212.36 530.86 210.34 533.36 210.34 C 535.86 210.34 537.88 212.36 537.88 214.86 Z" fill="#040000" fill-rule="nonzero" node-id="231" stroke="none" target-height="9.040009" target-width="9.039978" target-x="528.84" target-y="210.34"></path><path d="M 482.75 246.68 C 482.60 246.68 482.44 246.66 482.29 246.63 L 467.88 243.40 C 466.79 243.09 466.13 241.98 466.38 240.88 C 466.63 239.77 467.69 239.05 468.81 239.23 L 483.22 242.46 C 484.27 242.71 484.96 243.71 484.84 244.78 C 484.73 245.85 483.83 246.66 482.75 246.68 Z" fill="#040000" fill-rule="nonzero" node-id="233" stroke="none" target-height="7.6299896" target-width="18.829987" target-x="466.13" target-y="239.05"></path><path d="M 552.53 250.45 C 551.44 250.45 550.53 249.63 550.41 248.55 C 550.29 247.47 551.01 246.47 552.07 246.24 L 566.47 243.01 C 567.62 242.75 568.76 243.47 569.02 244.62 C 569.28 245.77 568.56 246.91 567.41 247.17 L 553.00 250.40 C 552.85 250.44 552.69 250.45 552.53 250.45 Z" fill="#040000" fill-rule="nonzero" node-id="235" stroke="none" target-height="7.699997" target-width="18.990051" target-x="550.29" target-y="242.75"></path><path d="M 516.46 236.70 C 516.08 236.70 515.70 236.66 515.33 236.60 L 515.47 234.46 L 515.88 232.37 C 517.03 232.59 518.20 232.11 518.88 231.16 C 519.61 230.21 519.74 228.92 519.20 227.84 C 518.56 226.49 518.15 225.03 517.99 223.54 C 517.89 222.37 518.75 221.33 519.92 221.23 C 521.10 221.12 522.14 221.99 522.24 223.16 C 522.35 224.12 522.61 225.05 523.02 225.93 C 524.27 228.44 523.99 231.44 522.31 233.69 C 520.95 235.57 518.78 236.69 516.46 236.70 Z" fill="#040000" fill-rule="nonzero" node-id="237" stroke="none" target-height="15.580002" target-width="8.940002" target-x="515.33" target-y="221.12"></path><path d="M 441.29 90.37 C 441.14 89.91 440.97 89.46 440.77 89.02 C 437.00 80.70 426.77 77.21 417.88 81.23 C 415.75 82.20 413.83 83.56 412.20 85.23 C 405.20 82.70 396.49 83.00 388.30 86.71 C 379.86 90.53 373.81 97.14 371.21 104.34 C 364.98 102.34 358.22 102.74 352.27 105.48 C 343.21 109.42 337.26 118.25 337.00 128.13 C 334.41 128.18 331.85 128.76 329.49 129.83 C 320.43 133.94 316.07 144.27 318.74 154.02 C 313.56 159.89 311.79 167.84 314.90 174.70 C 318.48 182.59 327.40 186.60 336.56 185.18 C 342.38 191.00 351.00 193.04 358.81 190.45 C 366.63 187.86 372.32 181.08 373.51 172.93 C 384.73 174.50 395.56 168.16 399.68 157.61 C 406.61 161.91 415.22 162.52 422.68 159.23 C 428.51 156.54 433.03 151.66 435.26 145.64 C 440.70 146.18 446.18 145.27 451.16 143.01 C 465.97 136.29 472.92 119.69 466.68 105.92 C 462.17 96.00 452.10 90.33 441.29 90.37 Z" fill="#040000" fill-rule="nonzero" node-id="239" stroke="none" target-height="115.829994" target-width="161.13" target-x="311.79" target-y="77.21"></path><path d="M 544.11 126.00 C 543.79 126.00 543.48 125.93 543.19 125.79 C 542.13 125.28 541.68 124.01 542.19 122.95 L 549.74 107.15 C 550.04 106.41 550.72 105.90 551.52 105.82 C 552.31 105.75 553.08 106.12 553.52 106.78 C 553.95 107.45 553.98 108.30 553.59 109.00 L 546.00 124.74 C 545.66 125.49 544.93 125.97 544.11 126.00 Z" fill="#040000" fill-rule="nonzero" node-id="241" stroke="none" target-height="20.25" target-width="12.299988" target-x="541.68" target-y="105.75"></path><path d="M 551.29 133.81 C 550.34 133.81 549.50 133.18 549.24 132.26 C 548.97 131.35 549.34 130.37 550.15 129.86 L 578.41 112.25 C 579.41 111.63 580.73 111.93 581.35 112.93 C 581.97 113.93 581.67 115.25 580.67 115.87 L 552.41 133.48 C 552.08 133.69 551.69 133.81 551.29 133.81 Z" fill="#040000" fill-rule="nonzero" node-id="243" stroke="none" target-height="22.18" target-width="33" target-x="548.97" target-y="111.63"></path><path d="M 561.58 144.71 C 560.52 144.69 559.64 143.91 559.49 142.86 C 559.35 141.82 559.99 140.82 561.00 140.52 L 577.31 136.00 C 578.44 135.68 579.62 136.35 579.94 137.48 C 580.26 138.61 579.59 139.79 578.46 140.11 L 562.15 144.67 C 561.96 144.71 561.77 144.72 561.58 144.71 Z" fill="#040000" fill-rule="nonzero" node-id="245" stroke="none" target-height="9.040009" target-width="20.910034" target-x="559.35" target-y="135.68"></path><path d="M 584.26 191.70 C 583.69 191.70 583.15 191.47 582.75 191.07 C 579.50 187.82 578.17 184.58 578.75 181.44 C 579.33 179.09 580.75 177.03 582.75 175.65 C 582.00 174.77 581.44 173.75 581.11 172.65 C 580.11 169.37 580.99 165.53 582.11 162.47 C 575.03 163.13 567.50 156.47 567.11 156.15 C 566.23 155.37 566.16 154.02 566.94 153.14 C 567.72 152.26 569.07 152.19 569.95 152.97 C 570.05 153.05 579.95 161.73 585.04 156.62 C 585.80 155.85 587.02 155.78 587.87 156.44 C 588.72 157.11 588.93 158.31 588.37 159.23 C 587.11 161.33 584.08 167.61 585.22 171.43 C 585.55 172.58 586.38 173.51 587.47 173.99 C 588.23 174.35 588.70 175.13 588.68 175.97 C 588.66 176.81 588.15 177.56 587.37 177.88 C 586.28 178.34 583.37 180.02 582.93 182.32 C 582.60 183.97 583.54 185.91 585.72 188.09 C 586.32 188.70 586.50 189.62 586.17 190.41 C 585.84 191.20 585.07 191.72 584.21 191.73 Z" fill="#040000" fill-rule="nonzero" node-id="247" stroke="none" target-height="39.539993" target-width="22.77002" target-x="566.16" target-y="152.19"></path><path d="M 473.56 375.78 C 459.45 375.76 448.02 364.33 448.00 350.22 L 448.00 348.09 L 499.12 348.09 L 499.12 350.22 C 499.11 364.33 487.67 375.77 473.56 375.78 Z M 452.37 352.36 C 453.48 363.23 462.63 371.50 473.56 371.50 C 484.49 371.50 493.64 363.23 494.75 352.36 Z" fill="#040000" fill-rule="nonzero" node-id="249" stroke="none" target-height="27.690002" target-width="51.119995" target-x="448" target-y="348.09"></path><path d="M 456.07 351.60 L 456.07 351.60 C 456.07 342.85 463.17 335.75 471.92 335.75 L 475.20 335.75 C 483.95 335.75 491.05 342.85 491.05 351.60 L 456.05 351.60 Z" fill="#040000" fill-rule="nonzero" node-id="251" stroke="none" target-height="15.850006" target-width="35" target-x="456.05" target-y="335.75"></path><path d="M 592.00 867.41 C 592.00 867.41 604.38 824.00 635.46 820.00 C 652.54 817.78 653.63 826.11 652.93 832.00 C 652.21 838.09 646.03 842.15 640.01 841.00 C 631.00 839.16 614.08 841.07 592.00 867.41 Z" fill="#8a9ff2" fill-rule="nonzero" group-id="6" node-id="255" stroke="none" target-height="49.629944" target-width="61.630005" target-x="592" target-y="817.78"></path><path d="M 599.19 892.92 C 599.19 892.92 620.71 882.84 632.19 882.71 C 654.12 882.45 656.82 898.53 643.90 896.43 C 630.98 894.33 621.11 883.91 599.19 892.92 Z" fill="#8a9ff2" fill-rule="nonzero" group-id="6" node-id="257" stroke="none" target-height="16.080017" target-width="57.630005" target-x="599.19" target-y="882.45"></path><path d="M 180.63 830.65 C 180.63 830.65 163.13 778.88 150.19 801.82 C 141.38 817.43 164.11 803.42 180.63 830.65 Z" fill="#8a9ff2" fill-rule="nonzero" group-id="6" node-id="259" stroke="none" target-height="51.77002" target-width="39.25" target-x="141.38" target-y="778.88"></path><path d="M 171.67 846.41 C 171.67 846.41 139.00 819.00 133.62 836.00 C 132.48 839.60 133.02 850.12 150.54 846.91 C 155.84 845.94 159.05 843.81 171.67 846.41 Z" fill="#8a9ff2" fill-rule="nonzero" group-id="6" node-id="261" stroke="none" target-height="31.119995" target-width="39.190002" target-x="132.48" target-y="819"></path><path d="M 829.00 350.76 C 813.00 350.76 795.22 341.28 794.30 340.76 C 793.80 340.49 793.43 340.04 793.26 339.50 C 793.10 338.95 793.16 338.37 793.43 337.87 C 794.00 336.84 795.29 336.46 796.33 337.01 C 796.59 337.15 823.12 351.33 838.80 344.74 C 842.90 343.04 846.15 339.75 847.80 335.63 C 842.00 334.24 837.05 330.48 834.94 326.63 C 833.44 323.92 833.40 321.21 834.83 319.20 C 837.03 316.11 839.47 314.43 842.07 314.20 C 844.49 314.03 846.82 315.04 849.07 317.29 C 852.80 321.15 854.42 326.57 853.44 331.84 C 860.06 331.41 865.44 326.53 869.06 317.73 C 869.43 316.82 870.38 316.29 871.35 316.43 C 874.89 316.96 885.44 317.43 887.50 312.74 C 890.73 305.48 892.75 301.44 892.75 301.44 C 893.32 300.47 894.55 300.10 895.55 300.61 C 896.56 301.11 897.01 302.31 896.57 303.35 C 896.57 303.35 894.57 307.35 891.40 314.48 C 888.23 321.61 876.83 321.28 872.40 320.84 C 867.00 332.84 859.26 335.78 853.62 336.11 C 853.16 336.11 852.70 336.11 852.24 336.11 C 850.29 341.74 846.03 346.28 840.53 348.59 C 836.87 350.08 832.95 350.82 829.00 350.76 Z M 842.61 318.51 L 842.40 318.51 C 840.80 318.64 839.28 320.32 838.29 321.71 C 837.69 322.56 838.29 323.89 838.66 324.61 C 840.30 327.56 844.40 330.55 849.11 331.61 C 850.03 327.58 848.86 323.35 846.00 320.36 C 845.16 319.32 843.93 318.65 842.60 318.51 Z" fill="#231815" fill-rule="nonzero" node-id="264" stroke="none" target-height="51.22998" target-width="103.910034" target-x="793.1" target-y="300.1"></path><path d="M 909.75 303.39 C 910.00 305.22 909.25 307.05 907.80 308.18 C 906.34 309.31 904.38 309.58 902.67 308.89 L 892.67 304.82 L 882.67 300.75 C 880.96 300.05 879.75 298.50 879.50 296.66 C 879.24 294.83 879.98 293.01 881.44 291.87 L 889.97 285.23 L 898.50 278.60 C 899.96 277.46 901.92 277.19 903.63 277.89 C 905.34 278.59 906.56 280.15 906.81 281.98 L 908.29 292.68 Z" fill="#231815" fill-rule="nonzero" node-id="266" stroke="none" target-height="32.389984" target-width="30.76001" target-x="879.24" target-y="277.19"></path><path d="M 784.58 170.31 C 783.43 170.31 782.49 169.40 782.45 168.25 C 782.34 164.95 787.19 142.48 800.78 135.96 C 815.31 128.96 816.41 119.48 816.45 119.07 C 816.58 117.91 817.61 117.06 818.77 117.15 C 819.93 117.25 820.80 118.28 820.70 119.44 C 820.70 119.94 819.51 131.72 802.62 139.81 C 791.62 145.09 786.62 164.67 786.72 168.11 C 786.74 168.67 786.53 169.22 786.15 169.64 C 785.76 170.05 785.23 170.29 784.66 170.31 Z" fill="#231815" fill-rule="nonzero" node-id="268" stroke="none" target-height="53.25" target-width="38.45996" target-x="782.34" target-y="117.06"></path><path d="M 793.20 458.32 C 786.18 458.32 779.86 454.10 777.17 447.62 C 774.49 441.14 775.97 433.67 780.93 428.72 C 785.89 423.76 793.36 422.28 799.84 424.96 C 806.32 427.65 810.54 433.98 810.53 441.00 C 810.52 450.56 802.76 458.31 793.20 458.32 Z M 793.20 427.92 C 785.98 427.92 780.13 433.77 780.13 440.99 C 780.13 448.20 785.98 454.06 793.19 454.06 C 800.41 454.06 806.26 448.22 806.27 441.00 C 806.27 433.78 800.42 427.93 793.20 427.92 Z" fill="#231815" fill-rule="nonzero" node-id="270" stroke="none" target-height="36.04001" target-width="36.049988" target-x="774.49" target-y="422.28"></path><path d="M 276.61 417.40 C 272.11 417.40 268.47 413.76 268.47 409.26 C 268.47 404.76 272.11 401.12 276.61 401.12 C 281.11 401.12 284.75 404.76 284.75 409.26 C 284.74 413.75 281.10 417.39 276.61 417.40 Z M 276.61 405.40 C 275.04 405.40 273.62 406.35 273.02 407.80 C 272.42 409.25 272.76 410.92 273.87 412.03 C 274.98 413.14 276.65 413.47 278.10 412.86 C 279.55 412.26 280.49 410.84 280.49 409.27 C 280.49 408.24 280.08 407.25 279.36 406.52 C 278.63 405.80 277.64 405.39 276.61 405.39 Z" fill="#231815" fill-rule="nonzero" node-id="272" stroke="none" target-height="16.279999" target-width="16.279999" target-x="268.47" target-y="401.12"></path><path d="M 275.38 285.11 C 278.27 284.11 277.83 279.93 276.98 277.06 C 270.98 256.74 260.25 238.14 245.67 222.78 C 243.52 219.66 239.69 218.16 236.00 219.00 C 231.78 219.46 226.50 221.29 226.47 225.43 C 226.47 227.43 227.76 229.14 229.00 230.71 L 251.87 259.42 L 267.82 279.42 C 267.82 279.42 272.55 286.08 275.38 285.11 Z" fill="#231815" fill-rule="nonzero" node-id="274" stroke="none" target-height="67.91998" target-width="51.799988" target-x="226.47" target-y="218.16"></path><path d="M 294.68 295.67 C 294.68 300.38 290.86 304.20 286.15 304.20 C 281.44 304.20 277.62 300.38 277.62 295.67 C 277.62 290.96 281.44 287.14 286.15 287.14 C 290.86 287.14 294.68 290.96 294.68 295.67 Z" fill="#231815" fill-rule="nonzero" node-id="276" stroke="none" target-height="17.059998" target-width="17.059998" target-x="277.62" target-y="287.14"></path><path d="M 301.00 259.51 C 303.89 258.51 303.45 254.33 302.60 251.51 C 296.60 231.19 285.87 212.59 271.29 197.23 C 269.13 194.10 265.27 192.62 261.57 193.49 C 257.35 193.95 252.07 195.78 252.04 199.92 C 252.04 201.92 253.33 203.63 254.57 205.20 L 277.44 233.91 L 293.39 253.91 C 293.39 253.91 298.15 260.48 301.00 259.51 Z" fill="#231815" fill-rule="nonzero" node-id="278" stroke="none" target-height="67.860016" target-width="51.85002" target-x="252.04" target-y="192.62"></path><path d="M 320.28 270.07 C 320.28 274.78 316.46 278.60 311.75 278.60 C 307.04 278.60 303.22 274.78 303.22 270.07 C 303.22 265.36 307.04 261.54 311.75 261.54 C 316.46 261.54 320.28 265.36 320.28 270.07 Z" fill="#231815" fill-rule="nonzero" node-id="280" stroke="none" target-height="17.059998" target-width="17.059998" target-x="303.22" target-y="261.54"></path><path d="M 858.49 222.71 C 857.76 222.70 857.08 222.33 856.70 221.71 C 856.31 221.09 856.26 220.32 856.57 219.66 C 856.82 219.12 881.75 165.90 849.38 146.32 C 848.54 145.85 848.13 144.87 848.36 143.94 C 848.59 143.01 849.42 142.35 850.38 142.32 C 850.85 142.32 897.04 139.86 914.07 116.40 C 920.47 107.58 921.96 96.73 918.50 84.15 C 918.27 83.30 918.59 82.40 919.29 81.88 C 920.00 81.35 920.95 81.31 921.70 81.78 C 922.10 82.04 961.85 107.78 971.12 160.50 C 971.15 160.71 971.15 160.91 971.12 161.12 C 965.76 207.76 923.92 206.04 910.18 205.47 L 909.65 205.47 C 897.37 204.97 869.52 210.17 860.15 221.89 C 859.75 222.40 859.14 222.70 858.49 222.71 Z M 856.49 146.13 C 877.82 163.96 869.34 197.53 863.80 213.13 C 876.93 204.49 898.80 200.75 909.87 201.22 L 910.41 201.22 C 924.49 201.80 961.84 203.34 966.90 160.94 C 959.72 120.68 934.30 96.94 923.90 88.68 C 925.90 100.22 923.74 110.37 917.54 118.93 C 902.89 139.10 870.00 144.67 856.45 146.13 Z" fill="#231815" fill-rule="nonzero" node-id="282" stroke="none" target-height="141.40001" target-width="123.02002" target-x="848.13" target-y="81.31"></path><path d="M 904.41 152.10 C 904.41 156.80 900.60 160.61 895.90 160.61 C 891.20 160.61 887.39 156.80 887.39 152.10 C 887.39 147.40 891.20 143.59 895.90 143.59 C 900.60 143.59 904.41 147.40 904.41 152.10 Z" fill="#231815" fill-rule="nonzero" node-id="284" stroke="none" target-height="17.020004" target-width="17.019958" target-x="887.39" target-y="143.59"></path><path d="M 969.00 160.91 C 967.20 145.69 958.59 128.79 958.59 128.79 C 955.43 131.95 934.92 123.72 926.06 132.58 C 921.78 136.85 917.84 153.46 914.89 169.52 C 913.31 178.15 909.74 183.97 900.08 183.97 L 888.77 176.92 C 884.95 174.53 879.97 175.16 876.86 178.42 L 867.68 188.02 C 869.68 198.12 858.48 220.58 858.48 220.58 C 864.79 211.58 886.11 203.94 898.85 203.94 C 911.59 203.94 930.02 202.64 930.02 202.64 L 928.78 201.87 C 973.08 194.39 969.00 160.91 969.00 160.91 Z" fill="#231815" fill-rule="nonzero" node-id="286" stroke="none" target-height="96.86" target-width="114.60004" target-x="858.48" target-y="123.72"></path><path d="M 526.38 296.52 C 525.81 296.52 525.27 296.30 524.87 295.90 C 524.47 295.50 524.24 294.96 524.24 294.39 C 524.24 291.52 525.32 264.61 525.64 256.55 L 504.59 256.55 L 491.88 292.81 C 491.68 293.59 491.06 294.20 490.27 294.37 C 489.48 294.55 488.66 294.26 488.15 293.63 C 487.65 293.00 487.54 292.13 487.88 291.40 L 501.10 253.71 C 501.40 252.86 502.20 252.28 503.10 252.28 L 527.89 252.28 C 528.47 252.29 529.01 252.53 529.41 252.95 C 529.81 253.37 530.02 253.92 530.00 254.50 C 530.00 254.87 528.51 291.17 528.51 294.39 C 528.51 295.57 527.56 296.52 526.38 296.52 Z" fill="#040000" fill-rule="nonzero" node-id="288" stroke="none" target-height="44.23999" target-width="42.48001" target-x="487.54" target-y="252.28"></path><path d="M 799.93 168.65 C 799.79 168.66 799.65 168.66 799.51 168.65 C 798.36 168.42 797.61 167.30 797.84 166.15 C 799.61 158.96 804.67 153.03 811.49 150.15 C 812.58 149.69 813.83 150.20 814.28 151.29 C 814.74 152.37 814.24 153.62 813.15 154.08 C 807.63 156.39 803.50 161.15 802.00 166.94 C 801.80 167.93 800.94 168.64 799.93 168.65 Z" fill="#231815" fill-rule="nonzero" node-id="290" stroke="none" target-height="18.970001" target-width="17.130005" target-x="797.61" target-y="149.69"></path><path d="M 512.28 221.00 C 511.95 221.00 511.63 220.93 511.34 220.78 C 510.83 220.54 510.44 220.11 510.25 219.58 C 510.07 219.05 510.10 218.47 510.34 217.96 C 511.76 215.02 516.84 210.52 525.93 214.56 C 527.01 215.04 527.49 216.30 527.01 217.37 C 526.54 218.45 525.28 218.94 524.20 218.46 C 516.83 215.19 514.42 219.35 514.20 219.83 C 513.83 220.55 513.09 221.00 512.28 221.00 Z" fill="#040000" fill-rule="nonzero" node-id="292" stroke="none" target-height="10.479996" target-width="17.419983" target-x="510.07" target-y="210.52"></path><path d="M 525.08 267.94 L 499.08 267.94 C 498.28 267.99 497.52 267.60 497.11 266.92 C 496.69 266.23 496.69 265.38 497.11 264.69 C 497.52 264.01 498.28 263.62 499.08 263.67 L 525.08 263.67 C 525.88 263.62 526.64 264.01 527.05 264.69 C 527.47 265.38 527.47 266.23 527.05 266.92 C 526.64 267.60 525.88 267.99 525.08 267.94 Z" fill="#040000" fill-rule="nonzero" node-id="294" stroke="none" target-height="4.369995" target-width="30.779968" target-x="496.69" target-y="263.62"></path><path d="M 350.15 184.74 C 353.40 184.74 361.62 192.18 365.34 199.50 C 365.97 200.81 367.19 201.73 368.63 201.98 C 370.06 202.23 371.52 201.76 372.55 200.74 L 373.00 200.29 C 374.58 198.71 374.76 196.22 373.42 194.43 L 362.95 180.43 Z" fill="#040000" fill-rule="nonzero" node-id="296" stroke="none" target-height="21.800003" target-width="24.610016" target-x="350.15" target-y="180.43"></path><path d="M 448.22 128.54 C 447.22 131.62 451.61 141.78 457.36 147.64 C 458.40 148.66 458.88 150.11 458.66 151.54 C 458.43 152.98 457.54 154.22 456.24 154.87 L 455.67 155.15 C 453.67 156.15 451.24 155.52 449.97 153.68 L 440.09 139.30 Z" fill="#040000" fill-rule="nonzero" node-id="298" stroke="none" target-height="27.61" target-width="18.790009" target-x="440.09" target-y="128.54"></path><path d="M 0.00 0.00 L 1024.00 0.00 L 1024.00 1024.00 L 0.00 1024.00 Z" fill="none" node-id="300" stroke="none" target-height="1024" target-width="1024" target-x="0" target-y="0"></path></svg>