<svg height="1024" node-id="1" sillyvg="true" template-height="1024" template-width="1024" version="1.1" viewBox="0 0 1024 1024" width="1024" xmlns="http://www.w3.org/2000/svg" xmlns:xlink="http://www.w3.org/1999/xlink"><defs node-id="94"></defs><path d="M 0.00 0.00 L 1024.00 0.00 L 1024.00 1024.00 L 0.00 1024.00 Z" fill="none" node-id="96" stroke="none" target-height="1024" target-width="1024" target-x="0" target-y="0"></path><g node-id="286"><path d="M 852.32 442.43 C 849.81 445.05 845.72 445.32 842.89 443.06 C 840.06 440.79 839.43 436.74 841.43 433.72 C 847.67 425.92 862.79 415.56 882.02 420.62 C 910.58 360.93 924.51 296.94 845.61 209.35 C 672.08 16.69 479.69 92.47 342.93 192.35 C 205.93 292.35 280.09 473.94 280.09 473.94 C 280.09 473.94 326.45 533.94 151.62 622.10 C 82.00 657.17 56.76 723.33 62.41 773.00 C 84.07 786.00 97.88 772.76 98.01 772.61 C 100.79 770.26 104.90 770.43 107.48 773.00 C 110.05 775.57 110.23 779.69 107.88 782.47 C 103.19 787.17 93.53 792.73 80.99 792.73 C 75.77 792.69 70.60 791.76 65.69 789.98 C 82.69 853.30 151.13 909.28 228.80 909.28 L 790.00 888.49 C 790.00 888.49 958.21 819.64 850.92 650.07 C 795.92 563.20 841.46 500.22 875.59 433.56 C 861.41 431.44 852.78 441.86 852.32 442.43 Z" fill="#8a9ff2" fill-rule="nonzero" group-id="1" node-id="100" stroke="none" target-height="892.59" target-width="901.45" target-x="56.76" target-y="16.69"></path></g><path d="M 504.71 429.48 C 504.71 429.48 458.21 472.83 476.81 542.57 C 495.41 612.31 342.00 564.32 342.00 564.32 C 342.00 564.32 365.22 434.13 504.71 429.48 Z" fill="#040000" fill-rule="nonzero" node-id="103" stroke="none" target-height="182.82999" target-width="162.70999" target-x="342" target-y="429.48"></path><path d="M 890.62 634.07 C 890.62 634.07 858.07 420.19 639.54 410.89 C 584.91 408.56 545.75 413.50 509.36 424.84 C 427.64 450.28 416.36 596.84 448.91 671.26 L 458.21 745.66 L 760.43 750.30 L 774.43 671.30 Z" fill="#ffffff" fill-rule="nonzero" node-id="105" stroke="none" target-height="341.74" target-width="474.26" target-x="416.36" target-y="408.56"></path><path d="M 760.43 752.63 L 760.43 752.63 L 458.17 748.00 C 457.02 747.98 456.06 747.13 455.90 746.00 L 446.64 671.94 C 423.36 618.39 424.23 534.69 448.64 481.20 C 462.51 450.82 483.26 430.58 508.64 422.68 C 546.99 410.74 587.39 406.40 639.64 408.62 C 857.56 417.90 892.64 631.62 892.92 633.78 C 893.09 634.91 892.41 635.99 891.33 636.34 L 776.42 673.05 L 762.72 750.71 C 762.52 751.82 761.56 752.63 760.43 752.63 Z M 460.27 743.36 L 758.49 748.00 L 772.09 670.91 C 772.24 670.06 772.85 669.36 773.67 669.10 L 888.00 632.47 C 884.00 611.08 842.42 421.85 639.46 413.21 C 587.77 411.01 547.88 415.28 510.06 427.06 C 485.97 434.56 466.20 453.93 452.90 483.06 C 426.12 541.71 430.90 624.33 451.06 670.32 C 451.15 670.52 451.21 670.74 451.24 670.96 Z" fill="#040000" fill-rule="nonzero" node-id="107" stroke="none" target-height="346.23" target-width="469.73004" target-x="423.36" target-y="406.4"></path><path d="M 681.38 427.90 C 682.10 438.14 654.55 447.14 619.86 448.01 C 585.17 448.88 556.41 441.30 555.69 431.07 C 554.97 420.84 582.51 411.83 617.24 410.96 C 651.97 410.09 680.65 417.67 681.38 427.90 Z" fill="#040000" fill-rule="nonzero" node-id="109" stroke="none" target-height="38.79001" target-width="127.130005" target-x="554.97" target-y="410.09"></path><path d="M 656.81 373.69 C 656.81 373.69 650.71 402.17 655.41 415.52 C 656.44 418.68 654.96 422.11 651.95 423.52 C 641.48 428.62 619.13 437.31 595.72 432.60 C 589.53 431.30 585.04 425.92 584.87 419.60 C 584.43 407.60 583.12 387.70 579.10 378.33 Z" fill="#ffffff" fill-rule="nonzero" node-id="111" stroke="none" target-height="63.619995" target-width="77.71002" target-x="579.1" target-y="373.69"></path><path d="M 609.71 436.27 C 604.86 436.28 600.02 435.81 595.26 434.87 C 588.01 433.38 582.74 427.09 582.54 419.69 C 582.14 408.51 580.88 388.39 576.96 379.25 C 576.66 378.55 576.72 377.76 577.12 377.11 C 577.52 376.47 578.20 376.06 578.96 376.02 L 656.67 371.37 C 657.40 371.32 658.11 371.62 658.58 372.18 C 659.05 372.73 659.24 373.47 659.09 374.18 C 659.03 374.46 653.18 402.18 657.61 414.75 C 659.05 419.01 657.07 423.68 653.00 425.60 C 644.00 430.00 627.89 436.27 609.71 436.27 Z M 582.35 380.47 C 585.51 390.47 586.73 406.87 587.19 419.53 C 587.32 424.78 591.05 429.25 596.19 430.31 C 618.68 434.84 640.19 426.69 650.95 421.42 C 652.89 420.53 653.87 418.33 653.24 416.29 C 649.24 404.95 652.53 383.99 653.97 376.19 Z" fill="#040000" fill-rule="nonzero" node-id="113" stroke="none" target-height="64.95999" target-width="82.58002" target-x="576.66" target-y="371.32"></path><path d="M 498.87 253.00 L 509.64 253.00 C 521.54 253.00 531.18 262.64 531.18 274.54 L 531.18 285.64 C 531.18 297.54 521.54 307.18 509.64 307.18 L 498.87 307.18 C 483.91 307.18 471.78 295.05 471.78 280.09 L 471.78 280.09 C 471.78 265.13 483.91 253.00 498.87 253.00 Z" fill="#ffffff" fill-rule="nonzero" node-id="115" stroke="none" target-height="54.179993" target-width="59.399994" target-x="471.78" target-y="253"></path><path d="M 531.18 309.48 L 497.59 309.48 C 482.06 309.46 469.48 296.87 469.46 281.34 L 469.46 278.79 C 469.48 263.26 482.06 250.67 497.59 250.65 L 531.18 250.65 C 531.80 250.65 532.40 250.90 532.83 251.34 C 533.27 251.78 533.51 252.38 533.50 253.00 L 533.50 307.18 C 533.49 308.45 532.45 309.48 531.18 309.48 Z M 497.59 255.30 C 484.63 255.32 474.12 265.83 474.11 278.79 L 474.11 281.34 C 474.12 294.30 484.63 304.81 497.59 304.83 L 528.85 304.83 L 528.85 255.30 Z" fill="#040000" fill-rule="nonzero" node-id="117" stroke="none" target-height="58.830017" target-width="64.05002" target-x="469.46" target-y="250.65"></path><path d="M 502.61 287.77 C 502.61 287.77 501.48 273.77 488.02 273.77" fill="#ffffff" fill-rule="nonzero" node-id="119" stroke="none" target-height="14" target-width="14.589996" target-x="488.02" target-y="273.77"></path><path d="M 502.61 290.09 C 501.40 290.09 500.40 289.17 500.29 287.97 C 500.29 287.48 499.12 276.13 488.02 276.13 C 486.80 276.05 485.84 275.03 485.84 273.81 C 485.84 272.58 486.80 271.56 488.02 271.48 C 500.36 271.48 504.47 282.02 504.92 287.58 C 504.97 288.19 504.78 288.80 504.38 289.27 C 503.98 289.74 503.41 290.03 502.80 290.08 Z" fill="#040000" fill-rule="nonzero" node-id="121" stroke="none" target-height="18.609985" target-width="19.130005" target-x="485.84" target-y="271.48"></path><path d="M 596.87 406.24 L 592.26 406.24 L 584.72 405.92 L 577.44 405.04 L 570.40 403.60 L 563.57 401.61 L 556.88 399.08 L 550.51 396.09 L 544.44 392.64 L 538.65 388.72 L 533.16 384.37 L 528.07 379.65 L 523.35 374.56 L 519.00 369.07 L 515.08 363.28 L 511.63 357.21 L 508.64 350.84 L 506.11 344.15 L 504.12 337.32 L 502.68 330.28 L 501.80 323.00 L 501.48 315.46 L 501.48 243.78 L 501.73 237.85 L 502.43 232.12 L 503.56 226.58 L 505.12 221.20 L 507.11 215.94 L 509.47 210.93 L 512.18 206.15 L 515.26 201.59 L 518.69 197.27 L 522.40 193.26 L 526.41 189.55 L 530.73 186.12 L 535.29 183.04 L 540.07 180.33 L 545.08 177.97 L 550.34 175.98 L 555.72 174.42 L 561.26 173.29 L 566.99 172.59 L 572.92 172.34 L 616.20 172.34 L 622.13 172.59 L 627.86 173.29 L 633.40 174.42 L 638.78 175.98 L 644.04 177.97 L 649.05 180.33 L 653.83 183.04 L 658.39 186.12 L 662.71 189.55 L 666.72 193.26 L 670.43 197.27 L 673.86 201.59 L 676.94 206.15 L 679.65 210.93 L 682.01 215.94 L 684.00 221.20 L 685.56 226.58 L 686.69 232.12 L 687.39 237.85 L 687.64 243.78 L 687.64 315.46 L 687.32 323.00 L 686.44 330.28 L 685.00 337.32 L 683.01 344.15 L 680.48 350.84 L 677.49 357.21 L 674.04 363.28 L 670.12 369.07 L 665.77 374.56 L 661.05 379.65 L 655.96 384.37 L 650.47 388.72 L 644.68 392.64 L 638.61 396.09 L 632.24 399.08 L 625.55 401.61 L 618.72 403.60 L 611.68 405.04 L 604.40 405.92 L 596.86 406.24 Z" fill="#ffffff" fill-rule="nonzero" group-id="2" node-id="125" stroke="none" target-height="233.9" target-width="186.16" target-x="501.48" target-y="172.34"></path><path d="M 597.74 408.56 L 591.38 408.56 C 540.47 408.50 499.21 367.24 499.15 316.33 L 499.15 172.33 C 499.15 171.71 499.40 171.12 499.83 170.69 C 500.27 170.25 500.86 170.01 501.48 170.01 L 687.64 170.01 C 688.26 170.01 688.85 170.25 689.29 170.69 C 689.72 171.12 689.97 171.71 689.97 172.33 L 689.97 316.33 C 689.91 367.24 648.65 408.50 597.74 408.56 Z M 503.80 174.67 L 503.80 316.33 C 503.86 364.68 543.03 403.85 591.38 403.91 L 597.74 403.91 C 646.09 403.85 685.26 364.68 685.32 316.33 L 685.32 174.67 Z" fill="#040000" fill-rule="nonzero" node-id="128" stroke="none" target-height="238.55" target-width="190.81998" target-x="499.15" target-y="170.01"></path><path d="M 723.26 323.83 L 687.68 323.83 L 687.68 323.83 L 687.68 269.65 L 687.68 269.65 L 723.26 269.65 L 726.41 269.86 L 729.44 270.47 L 732.37 271.46 L 735.15 272.84 L 737.72 274.55 L 740.09 276.63 L 742.17 279.01 L 743.88 281.58 L 745.24 284.36 L 746.24 287.30 L 746.84 290.33 L 747.04 293.48 L 747.04 300.09 L 746.81 303.35 L 746.18 306.42 L 745.16 309.33 L 743.77 312.09 L 742.07 314.60 L 740.06 316.88 L 737.78 318.89 L 735.26 320.58 L 732.51 321.97 L 729.59 322.98 L 726.52 323.60 L 723.26 323.83 Z" fill="#ffffff" fill-rule="nonzero" group-id="3" node-id="132" stroke="none" target-height="54.179993" target-width="59.359985" target-x="687.68" target-y="269.65"></path><path d="M 721.23 326.15 L 687.64 326.15 C 686.36 326.15 685.32 325.11 685.32 323.83 L 685.32 269.65 C 685.32 268.37 686.36 267.33 687.64 267.33 L 721.23 267.33 C 736.76 267.35 749.35 279.94 749.37 295.47 L 749.37 298.00 C 749.36 313.54 736.77 326.13 721.23 326.15 Z M 690.00 321.51 L 721.26 321.51 C 734.22 321.48 744.71 310.96 744.72 298.00 L 744.72 295.45 C 744.68 282.50 734.18 272.02 721.23 272.00 L 690.00 272.00 Z" fill="#040000" fill-rule="nonzero" node-id="135" stroke="none" target-height="58.820007" target-width="64.04999" target-x="685.32" target-y="267.33"></path><path d="M 687.64 304.79 C 687.05 304.79 686.49 304.57 686.06 304.17 C 685.61 303.75 685.34 303.17 685.32 302.56 C 685.29 301.94 685.51 301.34 685.93 300.89 C 701.76 283.81 718.29 294.10 718.46 294.21 C 719.54 294.90 719.85 296.34 719.16 297.42 C 718.47 298.50 717.03 298.81 715.95 298.12 C 715.36 297.74 702.43 289.91 689.35 304.05 C 688.91 304.52 688.29 304.79 687.64 304.79 Z" fill="#040000" fill-rule="nonzero" node-id="137" stroke="none" target-height="20.980011" target-width="34.559998" target-x="685.29" target-y="283.81"></path><path d="M 471.86 166.40 C 469.00 152.51 472.54 138.07 481.49 127.08 C 490.45 116.09 503.88 109.72 518.06 109.72 C 518.37 109.72 518.66 109.72 518.97 109.72 C 570.86 57.82 624.87 97.55 624.87 97.55 C 625.95 97.47 627.02 97.39 628.12 97.39 C 641.13 97.38 653.52 102.97 662.12 112.74 C 678.03 113.09 691.12 123.13 693.59 136.24 C 715.34 142.40 728.89 163.88 728.89 185.58 C 728.87 187.97 728.64 190.35 728.21 192.70 L 728.89 192.99 C 728.89 192.99 741.50 205.91 741.50 225.09 C 741.50 243.86 735.82 274.62 735.82 274.62 C 735.82 274.62 689.95 259.05 689.95 302.42 L 677.31 299.72 C 671.33 298.45 666.95 293.32 666.64 287.22 C 666.20 278.22 665.00 264.49 661.71 251.70 C 659.94 251.86 658.14 251.94 656.32 251.94 C 628.54 251.94 604.23 241.08 602.21 217.02 C 592.64 228.72 578.70 232.89 561.10 232.89 C 544.34 232.89 529.49 221.28 519.83 210.53 C 507.63 223.78 486.99 224.64 473.74 212.44 C 460.49 200.24 459.63 179.60 471.83 166.35 Z" fill="#040000" fill-rule="nonzero" node-id="139" stroke="none" target-height="244.6" target-width="281.87" target-x="459.63" target-y="57.82"></path><path d="M 578.24 184.00 C 567.07 184.00 556.15 181.51 548.63 174.00 C 547.72 173.09 547.73 171.62 548.63 170.71 C 549.54 169.81 551.01 169.81 551.92 170.72 C 571.48 190.29 620.54 170.41 621.03 170.21 C 622.20 169.80 623.49 170.37 623.96 171.51 C 624.44 172.66 623.93 173.98 622.81 174.51 C 621.41 175.06 599.39 184.00 578.24 184.00 Z" fill="#ffffff" fill-rule="nonzero" node-id="141" stroke="none" target-height="20.48999" target-width="76.72003" target-x="547.72" target-y="169.8"></path><path d="M 535.08 165.50 C 534.56 165.50 534.05 165.33 533.64 165.00 C 533.26 164.71 524.39 157.63 521.78 150.00 C 521.36 148.79 522.01 147.47 523.22 147.05 C 524.43 146.63 525.75 147.28 526.17 148.49 C 528.34 154.79 536.44 161.26 536.53 161.32 C 537.53 162.12 537.70 163.58 536.90 164.59 C 536.47 165.16 535.79 165.49 535.08 165.50 Z" fill="#ffffff" fill-rule="nonzero" node-id="143" stroke="none" target-height="18.869995" target-width="16.340027" target-x="521.36" target-y="146.63"></path><path d="M 609.00 316.05 C 592.80 316.05 579.67 302.92 579.67 286.72 C 579.67 270.52 592.80 257.39 609.00 257.39 C 625.20 257.39 638.33 270.52 638.33 286.72 C 638.32 302.91 625.19 316.04 609.00 316.05 Z M 609.00 262.05 C 599.02 262.05 590.02 268.06 586.20 277.29 C 582.38 286.51 584.49 297.13 591.55 304.18 C 598.61 311.24 609.23 313.35 618.45 309.53 C 627.67 305.71 633.68 296.70 633.68 286.72 C 633.66 273.10 622.62 262.06 609.00 262.05 Z" fill="#040000" fill-rule="nonzero" node-id="145" stroke="none" target-height="58.659973" target-width="58.660034" target-x="579.67" target-y="257.39"></path><path d="M 529.61 312.94 C 517.75 312.94 507.05 305.80 502.50 294.84 C 497.96 283.88 500.47 271.26 508.86 262.87 C 517.25 254.48 529.87 251.97 540.83 256.51 C 551.79 261.06 558.93 271.76 558.93 283.62 C 558.91 299.80 545.79 312.92 529.61 312.94 Z M 529.61 258.94 C 519.63 258.94 510.62 264.95 506.80 274.17 C 502.98 283.39 505.09 294.01 512.15 301.07 C 519.20 308.13 529.82 310.24 539.04 306.42 C 548.27 302.60 554.28 293.60 554.28 283.62 C 554.26 270.00 543.23 258.96 529.61 258.94 Z" fill="#040000" fill-rule="nonzero" node-id="147" stroke="none" target-height="60.97" target-width="60.97" target-x="497.96" target-y="251.97"></path><path d="M 580.76 288.70 C 580.63 288.62 566.76 280.19 557.15 288.48 L 554.15 284.97 C 566.31 274.42 582.57 284.32 583.26 284.75 Z" fill="#040000" fill-rule="nonzero" node-id="149" stroke="none" target-height="14.279999" target-width="29.109985" target-x="554.15" target-y="274.42"></path><path d="M 635.01 284.67 L 671.56 267.58 L 673.53 271.79 L 636.98 288.88 Z" fill="#040000" fill-rule="nonzero" group-id="4" node-id="153" stroke="none" target-height="21.300018" target-width="38.52002" target-x="635.01" target-y="267.58"></path><path d="M 916.31 349.21 C 911.10 349.21 906.31 345.55 902.06 338.32 C 898.70 332.61 895.25 329.56 892.11 329.52 C 888.32 329.38 884.70 334.19 883.43 336.23 C 881.58 339.37 879.22 342.17 876.43 344.51 C 868.31 350.89 859.69 349.78 852.79 341.51 C 849.37 337.40 846.10 335.32 843.08 335.32 L 843.08 335.32 C 840.08 335.32 837.70 337.41 836.24 339.16 C 833.00 343.05 829.83 345.58 826.56 346.88 C 821.88 348.74 814.85 349.46 807.98 342.28 C 805.26 339.44 802.47 338.10 799.72 338.38 C 794.41 338.87 790.34 344.89 790.31 344.95 C 789.58 345.96 788.19 346.21 787.15 345.54 C 786.11 344.86 785.79 343.48 786.41 342.41 C 786.62 342.08 791.69 334.41 799.29 333.75 C 803.49 333.36 807.58 335.14 811.29 339.07 C 815.36 343.33 819.90 344.50 824.79 342.56 C 827.33 341.56 829.89 339.47 832.62 336.18 C 834.72 333.66 838.22 330.67 843.03 330.67 L 843.03 330.67 C 847.50 330.67 851.97 333.32 856.31 338.53 C 861.68 344.97 867.31 345.73 873.51 340.86 C 875.90 338.85 877.93 336.45 879.51 333.76 C 881.62 330.41 886.24 324.76 892.20 324.88 C 897.12 324.95 901.79 328.68 906.08 335.98 C 909.44 341.68 912.89 344.57 916.33 344.57 L 916.40 344.57 C 921.40 344.51 925.94 338.31 927.27 335.93 C 927.89 334.81 929.31 334.41 930.43 335.03 C 931.55 335.65 931.95 337.07 931.33 338.19 C 931.09 338.64 925.15 349.12 916.46 349.19 Z" fill="#040000" fill-rule="nonzero" node-id="156" stroke="none" target-height="26.130005" target-width="146.16003" target-x="785.79" target-y="324.76"></path><path d="M 916.31 380.66 C 911.10 380.66 906.31 377.00 902.06 369.78 C 898.70 364.06 895.25 361.02 892.11 360.97 L 892.00 360.97 C 888.00 360.97 884.67 365.66 883.40 367.68 C 881.55 370.82 879.19 373.62 876.40 375.96 C 868.26 382.34 859.65 381.24 852.75 372.96 C 849.33 368.85 846.06 366.77 843.04 366.77 L 843.04 366.77 C 840.04 366.77 837.66 368.86 836.20 370.61 C 832.96 374.51 829.79 377.03 826.52 378.33 C 821.84 380.19 814.81 380.92 807.94 373.74 C 805.22 370.89 802.43 369.54 799.68 369.83 C 794.37 370.32 790.30 376.34 790.27 376.40 C 789.54 377.41 788.15 377.66 787.11 376.99 C 786.07 376.31 785.75 374.93 786.37 373.86 C 786.58 373.53 791.65 365.86 799.25 365.20 C 803.45 364.82 807.54 366.59 811.25 370.52 C 815.32 374.78 819.86 375.96 824.75 374.01 C 827.29 373.01 829.85 370.92 832.58 367.63 C 834.68 365.12 838.18 362.12 842.99 362.12 L 842.99 362.12 C 847.46 362.12 851.93 364.77 856.27 369.99 C 861.64 376.43 867.27 377.19 873.47 372.32 C 875.86 370.31 877.89 367.91 879.47 365.22 C 881.56 361.89 885.96 356.33 892.01 356.33 L 892.16 356.33 C 897.08 356.41 901.75 360.14 906.04 367.43 C 909.40 373.13 912.85 376.03 916.29 376.03 L 916.36 376.03 C 921.36 375.97 925.89 369.77 927.23 367.38 C 927.90 366.34 929.25 366.00 930.33 366.60 C 931.40 367.21 931.83 368.54 931.29 369.65 C 931.05 370.09 925.11 380.57 916.42 380.65 Z" fill="#040000" fill-rule="nonzero" node-id="158" stroke="none" target-height="26.01001" target-width="146.08002" target-x="785.75" target-y="356.33"></path><path d="M 618.60 325.59 C 617.42 325.58 616.43 324.69 616.30 323.52 C 616.17 322.34 616.94 321.26 618.09 320.99 L 639.69 316.15 C 640.53 315.90 641.43 316.15 642.03 316.77 C 642.63 317.40 642.83 318.32 642.55 319.14 C 642.27 319.96 641.55 320.56 640.69 320.69 L 619.09 325.53 C 618.93 325.57 618.77 325.59 618.60 325.59 Z" fill="#231815" fill-rule="nonzero" node-id="160" stroke="none" target-height="9.690002" target-width="26.660034" target-x="616.17" target-y="315.9"></path><path d="M 518.06 320.80 C 517.65 320.80 517.25 320.69 516.90 320.49 L 503.24 312.63 C 502.41 312.28 501.86 311.48 501.82 310.58 C 501.79 309.68 502.27 308.84 503.07 308.42 C 503.87 308.00 504.84 308.08 505.56 308.63 L 519.22 316.49 C 520.12 317.02 520.56 318.09 520.29 319.10 C 520.02 320.11 519.11 320.82 518.06 320.83 Z" fill="#231815" fill-rule="nonzero" node-id="162" stroke="none" target-height="12.829987" target-width="18.769989" target-x="501.79" target-y="308"></path><path d="M 568.14 317.00 C 564.92 317.03 561.88 315.50 559.98 312.89 C 557.65 309.79 557.26 305.64 558.98 302.16 C 559.63 300.75 560.06 299.25 560.23 297.71 C 560.38 296.46 561.49 295.56 562.74 295.67 C 563.99 295.78 564.93 296.86 564.87 298.11 C 564.64 300.24 564.06 302.31 563.14 304.24 C 562.21 306.16 562.43 308.43 563.70 310.14 C 564.86 311.79 566.86 312.64 568.85 312.32 C 570.14 312.10 571.37 312.93 571.66 314.20 C 571.79 314.78 571.68 315.39 571.35 315.89 C 571.03 316.39 570.51 316.73 569.93 316.85 C 569.34 316.95 568.74 317.00 568.14 317.00 Z" fill="#231815" fill-rule="nonzero" node-id="164" stroke="none" target-height="21.470001" target-width="14.529968" target-x="557.26" target-y="295.56"></path><path d="M 350.87 241.23 C 346.04 241.23 341.27 240.05 337.00 237.79 C 328.06 233.14 323.21 227.42 321.13 221.90 C 299.26 217.80 289.01 195.71 288.89 195.45 C 288.36 194.28 288.88 192.91 290.04 192.37 C 291.21 191.84 292.59 192.36 293.12 193.53 C 293.55 194.45 301.96 212.47 319.95 216.92 C 319.74 214.83 319.91 212.73 320.44 210.70 C 322.65 202.46 330.51 196.99 339.73 197.42 C 345.12 197.66 350.04 202.93 350.27 208.70 C 350.37 211.37 349.45 220.23 333.34 222.22 C 331.09 222.51 328.81 222.61 326.54 222.51 C 328.67 226.36 332.64 230.28 339.14 233.66 C 363.09 246.09 388.09 213.66 388.34 213.32 C 389.12 212.30 390.57 212.10 391.60 212.87 C 392.62 213.65 392.82 215.11 392.04 216.13 C 391.15 217.35 372.76 241.22 350.87 241.23 Z M 324.80 217.74 C 327.46 217.99 330.15 217.95 332.80 217.61 C 341.14 216.61 345.80 213.40 345.65 208.88 C 345.52 205.51 342.56 202.20 339.55 202.06 C 332.55 201.75 326.60 205.80 324.96 211.91 C 324.46 213.82 324.41 215.81 324.80 217.74 Z" fill="#231815" fill-rule="nonzero" node-id="166" stroke="none" target-height="54.25" target-width="104.46002" target-x="288.36" target-y="191.84"></path><path d="M 199.45 858.32 C 199.45 858.32 201.69 872.89 212.45 881.41" fill="#040000" fill-rule="nonzero" node-id="168" stroke="none" target-height="23.089966" target-width="13" target-x="199.45" target-y="858.32"></path><path d="M 212.46 883.73 C 211.93 883.73 211.42 883.56 211.01 883.23 C 199.66 874.23 197.25 859.31 197.15 858.67 C 196.96 857.41 197.83 856.23 199.09 856.03 C 200.35 855.84 201.54 856.70 201.75 857.96 C 201.75 858.10 204.01 871.76 213.90 879.59 C 214.68 880.20 214.98 881.24 214.65 882.17 C 214.33 883.11 213.45 883.73 212.46 883.73 Z" fill="#231815" fill-rule="nonzero" node-id="170" stroke="none" target-height="27.889954" target-width="18.019989" target-x="196.96" target-y="855.84"></path><path d="M 205.13 896.77 C 204.61 896.77 204.10 896.59 203.69 896.26 C 181.80 878.94 177.12 850.07 176.94 848.85 C 176.84 848.24 176.99 847.62 177.36 847.12 C 177.72 846.62 178.27 846.29 178.88 846.20 C 180.15 846.01 181.33 846.88 181.53 848.14 C 181.58 848.42 186.14 876.45 206.53 892.62 C 207.30 893.24 207.60 894.27 207.28 895.20 C 206.95 896.14 206.08 896.76 205.09 896.77 Z" fill="#231815" fill-rule="nonzero" node-id="172" stroke="none" target-height="50.76001" target-width="30.76001" target-x="176.84" target-y="846.01"></path><path d="M 939.25 763.92 C 939.05 763.92 938.84 763.90 938.65 763.84 C 938.05 763.69 937.54 763.30 937.23 762.76 C 936.92 762.23 936.84 761.60 937.00 761.00 C 941.40 744.59 930.70 729.84 930.59 729.69 C 929.83 728.66 930.04 727.20 931.07 726.44 C 932.10 725.68 933.56 725.89 934.32 726.92 C 934.82 727.59 946.49 743.58 941.49 762.21 C 941.21 763.22 940.30 763.92 939.25 763.92 Z" fill="#231815" fill-rule="nonzero" node-id="174" stroke="none" target-height="38.23999" target-width="16.659973" target-x="929.83" target-y="725.68"></path><path d="M 956.00 770.18 C 955.70 770.18 955.40 770.12 955.12 770.01 C 953.95 769.52 953.39 768.19 953.85 767.01 C 967.29 734.17 940.74 715.25 940.47 715.01 C 939.48 714.25 939.27 712.85 939.98 711.83 C 940.69 710.81 942.08 710.53 943.13 711.19 C 943.43 711.40 972.99 732.47 958.13 768.72 C 957.78 769.59 956.94 770.17 956.00 770.18 Z" fill="#231815" fill-rule="nonzero" node-id="176" stroke="none" target-height="59.649963" target-width="33.71997" target-x="939.27" target-y="710.53"></path><path d="M 816.23 174.57 C 816.23 174.57 867.37 101.03 890.62 128.93 C 905.86 147.22 883.20 149.21 872.03 150.78 C 865.33 151.69 858.72 153.15 852.26 155.15 C 841.28 158.60 826.59 164.69 816.23 174.57 Z" fill="#ffffff" fill-rule="nonzero" node-id="178" stroke="none" target-height="73.54001" target-width="89.630005" target-x="816.23" target-y="101.03"></path><path d="M 816.23 176.90 C 815.36 176.91 814.56 176.42 814.16 175.65 C 813.75 174.88 813.82 173.95 814.32 173.24 C 815.79 171.13 850.63 121.45 876.76 120.31 C 882.83 119.99 888.67 122.65 892.40 127.44 C 897.40 133.49 899.09 138.44 897.45 142.70 C 894.59 150.07 882.75 151.70 874.11 152.84 L 872.36 153.08 C 865.79 153.97 859.30 155.40 852.96 157.37 C 842.53 160.65 827.96 166.58 817.83 176.25 C 817.40 176.66 816.83 176.90 816.23 176.90 Z M 877.70 124.90 L 877.00 124.90 C 860.95 125.60 840.00 148.20 827.94 163.06 C 835.44 158.82 843.37 155.41 851.60 152.88 C 858.18 150.84 864.92 149.35 871.75 148.43 L 873.53 148.18 C 880.17 147.29 891.28 145.78 893.16 140.96 C 894.35 137.89 891.48 133.51 888.87 130.37 C 886.21 126.90 882.07 124.89 877.70 124.94 Z" fill="#040000" fill-rule="nonzero" node-id="180" stroke="none" target-height="56.920006" target-width="85.34003" target-x="813.75" target-y="119.99"></path><path d="M 849.66 198.73 L 855.90 199.84 L 861.16 201.25 L 864.51 202.46 L 867.12 203.66 L 869.09 204.85 L 870.80 206.32 L 871.60 207.59 L 871.76 208.76 L 871.30 209.85 L 870.19 210.86 L 868.15 211.82 L 865.93 212.44 L 863.10 212.90 L 859.54 213.18 L 854.10 213.13 L 847.79 212.54 L 841.55 211.43 L 836.29 210.02 L 832.94 208.81 L 830.33 207.60 L 828.36 206.42 L 826.65 204.95 L 825.85 203.68 L 825.69 202.51 L 826.15 201.42 L 827.26 200.41 L 829.30 199.45 L 831.52 198.83 L 834.35 198.37 L 837.91 198.09 L 843.35 198.13 L 849.66 198.73 Z" fill="#ffffff" fill-rule="nonzero" group-id="5" node-id="184" stroke="none" target-height="15.089996" target-width="46.070007" target-x="825.69" target-y="198.09"></path><path d="M 857.41 215.56 C 854.10 215.55 850.80 215.32 847.52 214.87 C 835.32 213.21 822.58 208.54 823.44 202.21 C 823.84 199.21 826.99 197.21 832.78 196.21 C 838.51 195.47 844.32 195.53 850.03 196.39 C 862.23 198.05 874.97 202.72 874.11 209.05 L 874.11 209.05 C 873.70 212.05 870.56 214.05 864.76 215.00 C 862.33 215.38 859.87 215.57 857.41 215.56 Z M 840.22 200.38 C 832.58 200.38 828.42 201.95 828.04 202.87 C 828.22 204.12 834.67 208.43 848.15 210.26 C 861.63 212.09 868.86 209.70 869.50 208.46 C 869.21 207.10 862.76 202.86 849.40 201.04 C 846.36 200.62 843.29 200.39 840.22 200.38 Z" fill="#040000" fill-rule="nonzero" node-id="187" stroke="none" target-height="20.100006" target-width="52.389954" target-x="822.58" target-y="195.47"></path><path d="M 537.26 287.67 C 537.11 287.69 536.95 287.69 536.80 287.67 L 513.55 283.00 C 512.29 282.75 511.47 281.52 511.72 280.26 C 511.99 279.01 513.20 278.21 514.46 278.44 L 537.71 283.09 C 538.89 283.31 539.71 284.40 539.59 285.60 C 539.47 286.79 538.46 287.70 537.26 287.69 Z" fill="#231815" fill-rule="nonzero" node-id="189" stroke="none" target-height="9.490021" target-width="28.24002" target-x="511.47" target-y="278.21"></path><path d="M 597.69 287.67 C 596.49 287.68 595.48 286.77 595.36 285.58 C 595.24 284.38 596.06 283.29 597.24 283.07 L 620.49 278.42 C 621.75 278.17 622.97 278.99 623.22 280.25 C 623.48 281.50 622.66 282.73 621.40 282.98 L 598.15 287.63 C 598.00 287.66 597.84 287.67 597.69 287.67 Z" fill="#231815" fill-rule="nonzero" node-id="191" stroke="none" target-height="9.509979" target-width="28.23999" target-x="595.24" target-y="278.17"></path><path d="M 514.00 280.70 L 509.35 355.09 C 509.35 355.09 523.29 382.99 541.89 392.29 L 537.24 285.35 Z" fill="#ffffff" fill-rule="nonzero" node-id="193" stroke="none" target-height="111.59" target-width="32.54001" target-x="509.35" target-y="280.7"></path><path d="M 544.39 396.13 L 540.86 394.37 C 521.79 384.83 507.86 357.30 507.27 356.13 L 506.99 355.57 L 511.85 277.90 L 539.49 283.43 Z M 511.72 354.59 C 513.61 358.20 524.81 378.70 539.39 388.17 L 535.00 287.27 L 516.15 283.50 Z" fill="#040000" fill-rule="nonzero" node-id="195" stroke="none" target-height="118.23001" target-width="37.400024" target-x="506.99" target-y="277.9"></path><path d="M 621.00 280.70 L 639.59 396.94 C 639.59 396.94 616.35 406.24 593.10 406.24 L 597.75 286.16 Z" fill="#ffffff" fill-rule="nonzero" node-id="197" stroke="none" target-height="125.53998" target-width="46.49005" target-x="593.1" target-y="280.7"></path><path d="M 593.05 408.56 L 590.63 408.56 L 595.44 284.30 L 622.85 277.87 L 642.13 398.41 L 640.40 399.10 C 639.44 399.48 616.47 408.56 593.05 408.56 Z M 600.00 288.00 L 595.52 403.86 C 613.64 403.35 631.52 397.41 636.99 395.41 L 619.00 283.53 Z" fill="#040000" fill-rule="nonzero" node-id="199" stroke="none" target-height="130.69" target-width="51.5" target-x="590.63" target-y="277.87"></path><path d="M 551.20 352.77 C 550.20 352.76 549.32 352.12 549.00 351.17 C 548.69 350.23 549.01 349.18 549.81 348.58 C 550.00 348.43 570.18 333.58 585.39 348.80 C 586.21 349.72 586.18 351.13 585.30 352.00 C 584.43 352.88 583.02 352.91 582.10 352.09 C 569.72 339.70 552.76 352.18 552.59 352.30 C 552.19 352.61 551.70 352.77 551.20 352.77 Z" fill="#231815" fill-rule="nonzero" node-id="201" stroke="none" target-height="19.330017" target-width="37.52002" target-x="548.69" target-y="333.58"></path><path d="M 541.90 241.18 L 518.65 241.18 C 517.43 241.10 516.47 240.08 516.47 238.85 C 516.47 237.63 517.43 236.61 518.65 236.53 L 541.90 236.53 C 542.77 236.47 543.59 236.90 544.04 237.65 C 544.50 238.39 544.50 239.32 544.04 240.06 C 543.59 240.81 542.77 241.24 541.90 241.18 Z" fill="#040000" fill-rule="nonzero" node-id="203" stroke="none" target-height="4.7700043" target-width="28.03003" target-x="516.47" target-y="236.47"></path><path d="M 620.94 241.18 L 597.70 241.18 C 596.83 241.24 596.01 240.81 595.56 240.06 C 595.10 239.32 595.10 238.39 595.56 237.65 C 596.01 236.90 596.83 236.47 597.70 236.53 L 620.94 236.53 C 621.81 236.47 622.63 236.90 623.08 237.65 C 623.54 238.39 623.54 239.32 623.08 240.06 C 622.63 240.81 621.81 241.24 620.94 241.18 Z" fill="#040000" fill-rule="nonzero" node-id="205" stroke="none" target-height="4.7700043" target-width="28.440002" target-x="595.1" target-y="236.47"></path><path d="M 276.88 568.97 L 402.42 545.72 L 741.83 555.02 L 532.60 582.92 L 276.88 568.97 Z" fill="#060001" fill-rule="nonzero" node-id="207" stroke="none" target-height="37.200012" target-width="464.95" target-x="276.88" target-y="545.72"></path><path d="M 532.91 585.22 L 276.75 571.29 C 275.57 571.23 274.63 570.30 274.55 569.12 C 274.47 567.95 275.29 566.90 276.45 566.69 L 402.00 543.44 C 402.16 543.42 402.33 543.42 402.49 543.44 L 741.91 552.74 C 743.10 552.80 744.06 553.75 744.12 554.95 C 744.18 556.14 743.33 557.19 742.15 557.37 Z M 296.45 567.71 L 532.73 580.60 L 712.80 556.55 L 402.60 548.06 Z" fill="#040000" fill-rule="nonzero" node-id="209" stroke="none" target-height="41.799988" target-width="469.71" target-x="274.47" target-y="543.42"></path><path d="M 765.08 871.19 L 551.20 940.94 L 532.60 578.27 L 746.48 555.02 L 765.08 871.19 Z" fill="#040000" fill-rule="nonzero" node-id="211" stroke="none" target-height="385.91998" target-width="232.48004" target-x="532.6" target-y="555.02"></path><path d="M 779.00 443.43 C 768.74 437.30 753.75 433.50 741.80 433.07 C 723.75 432.42 699.29 444.07 686.01 475.98 C 671.57 510.63 718.30 632.20 735.61 674.90 C 739.04 683.34 748.41 687.70 757.08 684.90 L 884.33 643.73 C 893.28 640.82 898.30 631.32 895.66 622.28 C 885.00 585.30 855.85 489.40 779.00 443.43 Z" fill="#040000" fill-rule="nonzero" node-id="213" stroke="none" target-height="255.28" target-width="226.72998" target-x="671.57" target-y="432.42"></path><path d="M 546.59 519.09 L 560.50 592.22 L 672.09 568.97 L 652.33 499.92 L 546.59 519.09 Z" fill="#ffffff" fill-rule="nonzero" node-id="215" stroke="none" target-height="92.29996" target-width="125.5" target-x="546.59" target-y="499.92"></path><path d="M 560.50 594.54 C 560.04 594.54 559.59 594.41 559.21 594.15 C 558.68 593.81 558.32 593.27 558.21 592.65 L 544.30 519.52 C 544.19 518.91 544.32 518.28 544.67 517.77 C 545.01 517.25 545.56 516.89 546.17 516.77 L 651.91 497.60 C 653.08 497.39 654.23 498.11 654.56 499.25 L 674.31 568.30 C 674.49 568.92 674.40 569.59 674.07 570.15 C 673.73 570.70 673.18 571.09 672.55 571.22 L 561.00 594.49 C 560.84 594.53 560.67 594.55 560.50 594.54 Z M 549.32 521.00 L 562.32 589.50 L 669.14 567.25 L 650.66 502.62 Z" fill="#040000" fill-rule="nonzero" node-id="217" stroke="none" target-height="97.15997" target-width="130.29999" target-x="544.19" target-y="497.39"></path><path d="M 383.82 507.71 L 383.82 480.39 C 383.82 479.65 384.27 478.99 384.95 478.71 C 385.63 478.42 386.42 478.58 386.94 479.10 L 396.84 489.00 C 397.39 489.55 398.24 489.69 398.94 489.34 L 414.48 481.57 C 414.95 481.33 415.51 481.32 416.00 481.52 C 416.49 481.72 416.86 482.13 417.03 482.63 L 420.40 492.74 C 420.56 493.22 420.91 493.61 421.36 493.82 C 421.82 494.03 422.34 494.05 422.81 493.86 L 442.89 485.86 C 443.69 485.54 444.61 485.82 445.08 486.54 L 452.74 498.00 C 453.22 498.72 454.14 499.01 454.94 498.69 L 475.01 490.69 C 475.48 490.50 476.00 490.52 476.46 490.73 C 476.91 490.94 477.26 491.33 477.42 491.81 L 480.85 502.00 C 481.01 502.48 481.36 502.87 481.81 503.08 C 482.27 503.29 482.79 503.31 483.26 503.12 L 502.76 495.32 C 503.25 495.12 503.80 495.15 504.27 495.39 C 504.74 495.63 505.08 496.06 505.21 496.57 L 508.88 511.22 C 509.00 511.71 509.32 512.14 509.77 512.38 C 510.22 512.63 510.75 512.67 511.23 512.51 L 531.70 505.69 C 532.45 505.47 533.26 505.75 533.71 506.39 C 534.17 507.03 534.16 507.89 533.70 508.52 L 523.67 522.00 C 523.43 522.31 523.30 522.70 523.30 523.09 C 523.30 528.30 522.98 566.29 518.66 592.23 C 514.27 618.54 381.66 595.23 366.66 592.49 C 365.83 592.34 365.22 591.64 365.18 590.80 C 364.67 581.26 362.70 526.61 383.24 509.06 C 383.62 508.72 383.83 508.22 383.82 507.71 Z" fill="#ffffff" fill-rule="nonzero" node-id="219" stroke="none" target-height="140.11996" target-width="171.46997" target-x="362.7" target-y="478.42"></path><path d="M 476.34 606.94 C 436.07 606.94 380.71 597.40 366.20 594.76 C 364.32 594.42 362.92 592.83 362.82 590.92 C 362.23 580.17 360.43 525.77 381.49 507.44 L 381.49 480.39 C 381.49 478.71 382.50 477.20 384.05 476.55 C 385.61 475.91 387.39 476.27 388.58 477.46 L 398.22 487.10 L 413.44 479.49 C 414.52 478.95 415.77 478.91 416.89 479.37 C 418.00 479.83 418.86 480.75 419.24 481.89 L 422.44 491.50 L 442.00 483.67 C 443.82 482.95 445.90 483.59 447.00 485.22 L 454.43 496.37 L 474.13 488.49 C 475.19 488.07 476.38 488.10 477.42 488.58 C 478.46 489.06 479.25 489.95 479.61 491.04 L 482.86 500.80 L 501.86 493.20 C 502.97 492.75 504.23 492.81 505.29 493.36 C 506.36 493.90 507.14 494.89 507.43 496.05 L 511.00 510.18 L 531.00 503.52 C 532.74 502.94 534.65 503.56 535.71 505.05 C 536.77 506.54 536.72 508.55 535.60 510.00 L 525.53 523.43 C 525.60 530.24 525.22 566.98 520.95 592.65 C 520.36 595.74 518.52 598.45 515.86 600.13 C 508.70 605.11 494.00 606.94 476.34 606.94 Z M 367.44 590.26 C 413.21 598.55 495.01 609.07 513.19 596.26 C 514.81 595.29 515.96 593.68 516.36 591.83 C 520.67 565.97 520.96 527.37 520.98 523.06 C 520.98 522.17 521.27 521.30 521.81 520.59 L 530.93 508.43 L 511.93 514.75 C 510.83 515.12 509.63 515.01 508.62 514.45 C 507.61 513.90 506.87 512.94 506.59 511.82 L 503.07 497.72 L 484.07 505.31 C 483.01 505.73 481.82 505.70 480.78 505.22 C 479.75 504.74 478.95 503.85 478.59 502.77 L 475.38 493.00 L 455.80 500.84 C 453.98 501.56 451.90 500.92 450.80 499.29 L 443.36 488.14 L 423.68 496.00 C 422.62 496.43 421.43 496.39 420.39 495.91 C 419.35 495.43 418.56 494.54 418.20 493.46 L 415.00 483.91 L 400.00 491.42 C 398.40 492.21 396.47 491.90 395.20 490.65 L 386.15 481.59 L 386.15 507.71 C 386.15 508.90 385.63 510.04 384.72 510.81 C 365.06 527.60 367.00 582.22 367.44 590.26 Z M 367.44 590.67 L 367.44 590.67 Z" fill="#040000" fill-rule="nonzero" node-id="221" stroke="none" target-height="133.16" target-width="176.34003" target-x="360.43" target-y="475.91"></path><path d="M 276.88 568.97 L 295.48 903.74 L 551.20 940.94 L 532.60 578.27 L 276.88 568.97 Z" fill="#040000" fill-rule="nonzero" node-id="223" stroke="none" target-height="371.97003" target-width="274.32" target-x="276.88" target-y="568.97"></path><path d="M 309.42 569.00 C 309.42 569.00 249.00 499.23 281.53 443.43 C 314.06 387.63 337.32 434.13 346.62 471.33 C 355.92 508.53 369.87 564.33 379.17 573.62 Z" fill="#ffffff" fill-rule="nonzero" node-id="225" stroke="none" target-height="185.98999" target-width="130.17001" target-x="249" target-y="387.63"></path><path d="M 379.17 576.00 L 379.00 576.00 L 309.26 571.35 C 308.64 571.31 308.07 571.03 307.66 570.56 C 307.04 569.84 246.50 498.90 279.51 442.32 C 290.81 422.95 302.19 413.93 313.29 415.51 C 333.64 418.42 344.95 455.16 348.87 470.83 C 357.51 505.31 372.00 563.13 380.81 572.00 C 381.49 572.66 381.70 573.67 381.34 574.55 C 380.98 575.43 380.12 576.01 379.17 576.00 Z M 310.57 566.77 L 374.42 571.00 C 365.89 556.23 355.33 515.78 344.36 471.92 C 338.43 448.21 326.99 422.13 312.64 420.09 C 303.64 418.78 293.79 427.09 283.53 444.64 C 254.00 495.31 304.36 559.18 310.57 566.72 Z" fill="#040000" fill-rule="nonzero" node-id="227" stroke="none" target-height="162.08002" target-width="135.20001" target-x="246.5" target-y="413.93"></path><path d="M 332.67 473.66 C 332.21 473.66 331.76 473.52 331.38 473.27 C 318.38 464.62 296.16 468.91 295.93 468.96 C 295.33 469.08 294.70 468.96 294.18 468.62 C 293.67 468.28 293.31 467.75 293.19 467.14 C 292.94 465.89 293.75 464.67 295.00 464.40 C 296.00 464.20 319.36 459.68 333.94 469.40 C 334.80 469.96 335.19 471.03 334.89 472.01 C 334.59 473.00 333.68 473.67 332.65 473.66 Z" fill="#040000" fill-rule="nonzero" node-id="229" stroke="none" target-height="13.990021" target-width="42.25" target-x="292.94" target-y="459.68"></path><path d="M 337.32 501.55 C 336.97 501.54 336.63 501.46 336.32 501.31 C 318.91 492.60 296.60 501.31 296.38 501.39 C 295.21 501.79 293.93 501.20 293.47 500.05 C 293.01 498.90 293.53 497.59 294.65 497.07 C 295.65 496.68 319.09 487.49 338.40 497.15 C 339.36 497.63 339.87 498.70 339.64 499.74 C 339.40 500.79 338.47 501.54 337.40 501.55 Z" fill="#040000" fill-rule="nonzero" node-id="231" stroke="none" target-height="14.300018" target-width="46.859985" target-x="293.01" target-y="487.49"></path><path d="M 342.00 529.45 C 341.70 529.45 341.41 529.39 341.14 529.28 C 319.42 520.60 306.62 528.71 306.08 529.07 C 305.01 529.70 303.64 529.39 302.95 528.35 C 302.27 527.32 302.51 525.93 303.51 525.19 C 304.12 524.78 318.77 515.33 342.86 524.97 C 343.90 525.38 344.50 526.47 344.29 527.57 C 344.08 528.67 343.12 529.46 342.00 529.45 Z" fill="#040000" fill-rule="nonzero" node-id="233" stroke="none" target-height="14.369995" target-width="42.23001" target-x="302.27" target-y="515.33"></path><path d="M 323.37 557.35 C 322.30 557.33 321.38 556.58 321.15 555.54 C 320.91 554.49 321.41 553.42 322.37 552.94 C 323.18 552.54 342.37 543.16 357.25 553.09 C 358.23 553.83 358.46 555.21 357.78 556.24 C 357.10 557.26 355.73 557.58 354.67 556.96 C 342.00 548.51 324.67 556.96 324.45 557.10 C 324.12 557.27 323.75 557.36 323.37 557.35 Z" fill="#040000" fill-rule="nonzero" node-id="235" stroke="none" target-height="14.420044" target-width="37.549988" target-x="320.91" target-y="543.16"></path><path d="M 650.54 496.89 L 650.50 497.96 L 650.03 499.14 L 649.01 500.49 L 647.21 502.08 L 644.66 503.80 L 641.18 505.69 L 636.59 507.77 L 629.33 510.50 L 620.30 513.29 L 610.73 515.72 L 599.97 517.94 L 589.13 519.69 L 579.31 520.81 L 569.89 521.42 L 562.13 521.45 L 557.10 521.14 L 553.18 520.60 L 550.18 519.90 L 547.94 519.05 L 546.50 518.15 L 545.64 517.22 L 545.23 516.23 L 545.26 515.16 L 545.73 513.98 L 546.75 512.62 L 548.55 511.04 L 551.11 509.31 L 554.58 507.42 L 559.17 505.34 L 566.43 502.61 L 575.46 499.83 L 585.03 497.39 L 595.79 495.17 L 606.63 493.43 L 616.45 492.30 L 625.88 491.70 L 633.63 491.67 L 638.66 491.98 L 642.58 492.51 L 645.58 493.21 L 647.83 494.06 L 649.27 494.96 L 650.12 495.90 L 650.54 496.89 Z" fill="#040000" fill-rule="nonzero" group-id="6" node-id="239" stroke="none" target-height="29.779999" target-width="105.31" target-x="545.23" target-y="491.67"></path><path d="M 567.15 526.75 C 565.88 526.75 564.65 526.75 563.47 526.69 C 551.38 526.29 545.11 523.94 544.31 519.50 C 543.51 515.06 548.54 510.68 559.72 506.05 C 569.46 502.05 582.72 498.37 596.97 495.78 C 611.22 493.19 624.97 491.94 635.46 492.31 C 647.55 492.72 653.82 495.07 654.62 499.50 L 654.62 499.50 C 656.62 510.36 621.03 519.77 601.95 523.23 C 590.47 525.41 578.83 526.58 567.15 526.75 Z M 631.76 496.90 C 620.35 497.07 608.97 498.22 597.76 500.35 C 583.76 502.89 570.91 506.43 561.46 510.35 C 550.55 514.87 548.73 518.08 548.84 518.69 C 548.95 519.30 551.78 521.69 563.58 522.06 C 573.80 522.39 587.12 521.20 601.08 518.66 C 633.81 512.73 650.57 503.45 650.00 500.34 L 650.00 500.34 C 649.90 499.73 647.07 497.34 635.26 496.97 C 634.15 496.92 632.98 496.90 631.76 496.90 Z" fill="#040000" fill-rule="nonzero" node-id="242" stroke="none" target-height="34.809998" target-width="113.109985" target-x="543.51" target-y="491.94"></path><path d="M 532.60 578.27 L 276.88 568.97 L 174.59 731.71 L 439.61 759.60 L 532.60 578.27 Z" fill="#ffffff" fill-rule="nonzero" node-id="244" stroke="none" target-height="190.63" target-width="358.00998" target-x="174.59" target-y="568.97"></path><path d="M 439.61 761.93 L 439.37 761.93 L 174.34 734.00 C 173.54 733.91 172.85 733.42 172.50 732.70 C 172.14 731.98 172.19 731.13 172.62 730.45 L 274.91 567.73 C 275.31 567.01 276.09 566.59 276.91 566.65 L 532.69 576.00 C 533.49 576.02 534.22 576.45 534.62 577.14 C 535.03 577.82 535.05 578.67 534.69 579.38 L 441.69 760.71 C 441.28 761.47 440.48 761.95 439.61 761.93 Z M 178.54 729.79 L 438.27 757.12 L 528.87 580.46 L 278.13 571.34 Z" fill="#040000" fill-rule="nonzero" node-id="246" stroke="none" target-height="195.35999" target-width="362.90997" target-x="172.14" target-y="566.59"></path><path d="M 779.00 652.66 L 867.34 620.12 C 867.34 620.12 872.34 630.12 878.90 645.51 L 884.33 643.75 C 893.28 640.84 898.30 631.34 895.66 622.30 C 885.00 585.30 855.85 489.40 779.00 443.43 C 768.74 437.30 753.75 433.50 741.80 433.07 C 723.75 432.42 699.29 444.07 686.01 475.98 C 671.57 510.63 718.30 632.20 735.61 674.90 C 739.04 683.34 748.41 687.70 757.08 684.90 L 785.33 675.76 C 784.27 672.63 783.21 669.48 782.12 666.18 Z" fill="#040000" fill-rule="nonzero" node-id="248" stroke="none" target-height="255.28" target-width="226.72998" target-x="671.57" target-y="432.42"></path><path d="M 507.35 903.94 C 508.59 903.83 509.35 903.74 509.35 903.74 C 508.68 903.74 508.01 903.81 507.35 903.94 Z" fill="#ffffff" fill-rule="nonzero" node-id="250" stroke="none" target-height="0.2000122" target-width="2" target-x="507.35" target-y="903.74"></path><path d="M 507.35 906.27 C 506.16 906.26 505.18 905.35 505.06 904.17 C 504.94 902.98 505.74 901.90 506.90 901.66 C 507.71 901.50 508.53 901.42 509.35 901.42 C 510.61 901.37 511.69 902.33 511.76 903.59 C 511.84 904.85 510.90 905.95 509.64 906.05 L 507.56 906.26 Z" fill="#040000" fill-rule="nonzero" node-id="252" stroke="none" target-height="4.9000244" target-width="6.899994" target-x="504.94" target-y="901.37"></path><path d="M 619.33 792.52 C 617.77 792.52 616.22 792.46 614.68 792.36 C 584.14 790.36 558.22 769.94 544.94 783.22 C 530.94 797.17 558.89 811.11 558.89 811.11 C 558.89 811.11 529.21 816.06 520.36 843.99 C 512.61 868.46 532.36 893.06 557.97 891.27 C 645.71 885.13 826.70 818.27 875.06 790.01 C 916.85 765.63 882.99 670.82 863.37 624.77 L 769.80 655.00 C 779.31 683.09 780.36 695.71 791.37 726.09 Z" fill="#ffffff" fill-rule="nonzero" node-id="254" stroke="none" target-height="268.28998" target-width="404.24" target-x="512.61" target-y="624.77"></path><path d="M 555.40 893.69 C 543.40 893.67 532.07 888.14 524.67 878.69 C 516.68 868.73 514.22 855.42 518.14 843.26 C 525.00 821.63 543.43 813.20 552.85 810.26 C 547.63 806.84 540.05 800.73 538.85 793.45 C 538.16 789.19 539.65 785.20 543.28 781.57 C 552.21 772.64 565.66 777.05 581.28 782.17 C 591.39 785.49 602.85 789.26 614.87 790.04 C 616.21 790.13 617.57 790.18 618.93 790.19 L 788.44 724.78 C 782.90 709.22 779.91 698.14 777.02 687.41 C 774.51 678.09 771.91 668.41 767.63 655.78 C 767.43 655.19 767.47 654.55 767.75 653.99 C 768.03 653.44 768.52 653.02 769.11 652.83 L 862.68 622.56 C 863.82 622.18 865.06 622.74 865.53 623.85 C 887.74 676.00 918.70 767.24 876.23 792.00 C 826.68 820.90 644.34 887.53 558.13 893.57 C 557.22 893.65 556.31 893.69 555.40 893.69 Z M 556.78 781.09 C 552.78 781.09 549.30 782.15 546.59 784.86 C 544.04 787.41 543.02 789.97 543.46 792.70 C 544.63 799.91 555.75 806.94 559.93 809.03 C 560.83 809.48 561.34 810.46 561.19 811.46 C 561.04 812.45 560.27 813.24 559.28 813.41 C 558.99 813.46 530.88 818.50 522.58 844.69 C 519.13 855.38 521.29 867.09 528.32 875.85 C 535.38 884.83 546.41 889.76 557.81 889.00 C 643.44 883.00 824.63 816.78 873.89 788.00 C 914.11 764.54 879.75 669.58 862.06 627.63 L 772.75 656.53 C 776.64 668.24 779.10 677.36 781.48 686.20 C 784.61 697.83 787.57 708.83 793.55 725.34 C 793.77 725.92 793.76 726.56 793.51 727.12 C 793.25 727.68 792.79 728.12 792.21 728.34 L 620.21 794.72 C 619.95 794.83 619.66 794.88 619.38 794.88 C 617.76 794.88 616.16 794.82 614.58 794.72 C 601.97 793.90 590.21 790.04 579.84 786.63 C 570.87 783.65 563.07 781.09 556.78 781.09 Z" fill="#040000" fill-rule="nonzero" node-id="256" stroke="none" target-height="271.51" target-width="404.48004" target-x="514.22" target-y="622.18"></path><path d="M 886.00 643.36 C 886.00 643.36 816.26 671.26 788.36 675.91 C 760.46 680.56 746.51 629.42 746.51 629.42 L 858.10 601.52 Z" fill="#040000" fill-rule="nonzero" node-id="258" stroke="none" target-height="79.03998" target-width="139.48999" target-x="746.51" target-y="601.52"></path><path d="M 532.60 578.27 L 746.48 555.02 L 825.53 694.51 L 583.75 750.30 L 532.60 578.27 Z" fill="#ffffff" fill-rule="nonzero" node-id="260" stroke="none" target-height="195.27997" target-width="292.93005" target-x="532.6" target-y="555.02"></path><path d="M 583.75 752.63 C 582.72 752.63 581.82 751.95 581.52 750.97 L 530.37 578.97 C 530.18 578.31 530.29 577.60 530.67 577.02 C 531.06 576.46 531.67 576.09 532.35 576.02 L 746.23 552.77 C 747.15 552.66 748.05 553.13 748.50 553.94 L 827.50 693.42 C 827.87 694.06 827.91 694.84 827.61 695.51 C 827.32 696.18 826.72 696.67 826.01 696.84 L 584.27 752.57 C 584.10 752.61 583.93 752.63 583.75 752.63 Z M 535.63 580.28 L 585.35 747.55 L 822.00 693.00 L 745.21 557.50 Z" fill="#040000" fill-rule="nonzero" node-id="262" stroke="none" target-height="199.97003" target-width="297.72998" target-x="530.18" target-y="552.66"></path><path d="M 490.76 215.61 C 490.76 215.61 490.76 238.85 495.41 252.80 C 495.41 252.80 495.41 248.15 500.06 252.80 L 500.06 211.00 Z" fill="#040000" fill-rule="nonzero" node-id="264" stroke="none" target-height="41.800003" target-width="9.299988" target-x="490.76" target-y="211"></path><path d="M 337.32 844.00 C 337.32 867.25 318.72 881.19 300.13 881.19 C 269.25 881.19 225.73 871.89 225.73 834.70 C 225.73 774.08 294.35 765.70 314.07 778.90 C 328.02 788.20 318.72 802.15 300.13 802.15 C 300.13 802.16 337.32 813.86 337.32 844.00 Z" fill="#ffffff" fill-rule="nonzero" node-id="266" stroke="none" target-height="115.48999" target-width="111.59001" target-x="225.73" target-y="765.7"></path><path d="M 300.12 883.53 C 263.04 883.53 223.41 870.70 223.41 834.71 C 223.41 803.55 240.58 787.82 254.98 780.11 C 276.58 768.56 303.63 769.11 315.36 776.98 C 321.66 781.18 324.31 786.76 322.63 792.29 C 321.06 797.50 315.99 801.49 309.12 803.34 C 320.55 808.86 339.65 821.45 339.65 844.01 C 339.65 868.75 319.55 883.53 300.12 883.53 Z M 291.12 775.90 C 279.28 775.90 267.62 778.75 257.12 784.21 C 243.83 791.32 228.00 805.85 228.00 834.71 C 228.00 875.71 283.16 878.88 300.06 878.88 C 317.20 878.88 334.94 865.88 334.94 844.01 C 334.94 815.89 299.72 804.49 299.36 804.38 C 298.28 804.02 297.62 802.94 297.79 801.81 C 297.97 800.69 298.92 799.86 300.06 799.84 C 310.62 799.84 316.83 795.23 318.12 790.95 C 319.18 787.46 317.26 783.87 312.72 780.85 C 308.05 777.69 300.18 775.90 291.16 775.90 Z" fill="#040000" fill-rule="nonzero" node-id="268" stroke="none" target-height="114.97003" target-width="116.23999" target-x="223.41" target-y="768.56"></path><path d="M 305.39 336.49 L 190.76 336.49 C 180.76 336.49 175.26 324.06 182.63 317.33 C 183.15 316.86 183.70 316.43 184.28 316.04 C 184.28 316.04 194.51 292.18 218.37 312.63 C 218.37 312.63 221.08 280.70 245.64 281.95 C 262.64 282.82 269.50 302.41 269.50 302.41 C 269.50 302.41 286.18 299.30 286.18 313.25 C 286.18 313.25 292.92 304.73 309.42 309.92 C 324.26 314.59 320.94 336.49 305.39 336.49 Z" fill="#ffffff" fill-rule="nonzero" node-id="270" stroke="none" target-height="55.789978" target-width="149.00002" target-x="175.26" target-y="280.7"></path><path d="M 305.39 338.82 L 190.76 338.82 C 185.00 338.80 179.86 335.22 177.85 329.82 C 175.80 324.87 177.09 319.16 181.07 315.57 C 181.51 315.17 181.96 314.80 182.44 314.45 C 183.59 312.15 187.99 304.45 196.49 302.45 C 202.69 301.01 209.43 302.96 216.62 308.24 C 218.85 296.07 226.93 278.69 245.76 279.60 C 261.17 280.39 268.76 294.74 270.99 299.85 C 274.04 299.60 280.08 299.63 284.24 303.08 C 286.03 304.57 287.32 306.58 287.93 308.83 C 291.81 306.49 298.98 304.16 310.12 307.67 C 319.12 310.51 322.12 318.58 321.12 325.31 C 320.12 332.04 314.81 338.82 305.39 338.82 Z M 200.50 306.67 C 199.49 306.67 198.48 306.78 197.50 307.00 C 189.97 308.76 186.41 316.87 186.38 317.00 C 186.20 317.41 185.90 317.75 185.53 318.00 C 185.06 318.30 184.62 318.64 184.20 319.00 C 181.64 321.30 180.83 324.98 182.20 328.14 C 183.53 331.73 186.94 334.12 190.77 334.14 L 305.39 334.14 C 312.51 334.14 315.82 329.00 316.50 324.60 C 317.48 319.06 314.13 313.67 308.72 312.11 C 294.13 307.51 288.23 314.39 287.98 314.68 C 287.35 315.43 286.32 315.72 285.39 315.39 C 284.47 315.06 283.85 314.20 283.85 313.22 C 283.85 310.22 283.01 308.11 281.28 306.66 C 277.28 303.36 270.00 304.66 269.92 304.66 C 268.79 304.86 267.69 304.22 267.31 303.14 C 267.25 302.96 260.75 285.02 245.52 284.24 C 223.52 282.99 220.79 311.59 220.69 312.80 C 220.62 313.67 220.06 314.43 219.25 314.75 C 218.44 315.08 217.52 314.93 216.86 314.36 C 210.87 309.26 205.38 306.67 200.50 306.67 Z" fill="#040000" fill-rule="nonzero" node-id="272" stroke="none" target-height="60.130005" target-width="146.31999" target-x="175.8" target-y="278.69"></path><path d="M 393.12 508.53 C 393.12 508.53 397.77 517.83 402.42 517.83 C 407.07 517.83 425.66 513.18 425.66 513.18 C 425.66 513.18 425.66 522.48 448.91 522.48 L 476.81 522.48 C 486.11 522.48 500.06 531.78 504.71 531.78" fill="#ffffff" fill-rule="nonzero" node-id="274" stroke="none" target-height="23.25003" target-width="111.59" target-x="393.12" target-y="508.53"></path><path d="M 504.70 534.10 C 502.28 534.10 498.70 532.48 494.17 530.43 C 488.64 527.92 481.75 524.80 476.81 524.80 L 448.91 524.80 C 431.10 524.80 425.68 519.44 424.05 515.97 C 418.81 517.24 406.39 520.15 402.41 520.15 C 396.62 520.15 391.92 511.33 391.04 509.57 C 390.47 508.42 390.93 507.03 392.07 506.45 C 393.22 505.88 394.62 506.34 395.19 507.49 C 396.88 510.85 400.33 515.49 402.41 515.49 C 405.99 515.49 420.00 512.19 425.10 510.91 C 425.80 510.73 426.54 510.89 427.10 511.33 C 427.67 511.77 428.00 512.45 428.00 513.17 L 428.00 513.17 C 428.00 513.17 428.84 520.17 448.92 520.17 L 476.82 520.17 C 482.77 520.17 490.16 523.52 496.10 526.17 C 499.47 527.70 503.29 529.43 504.71 529.43 C 505.58 529.37 506.40 529.80 506.85 530.55 C 507.31 531.29 507.31 532.22 506.85 532.96 C 506.40 533.71 505.58 534.14 504.71 534.08 Z" fill="#040000" fill-rule="nonzero" node-id="276" stroke="none" target-height="28.26001" target-width="116.84" target-x="390.47" target-y="505.88"></path><path d="M 239.68 701.48 C 239.06 701.49 238.47 701.24 238.04 700.80 C 237.60 700.37 237.36 699.78 237.36 699.16 C 237.36 698.54 237.60 697.95 238.04 697.52 L 305.47 630.09 C 308.42 627.14 312.95 626.44 316.66 628.37 C 320.36 630.30 322.38 634.41 321.66 638.52 L 315.16 675.40 C 314.81 677.43 315.76 679.47 317.54 680.51 C 319.33 681.54 321.57 681.36 323.16 680.04 L 391.63 623.00 C 392.62 622.17 394.09 622.30 394.91 623.29 C 395.74 624.27 395.62 625.74 394.63 626.57 L 326.17 683.63 C 323.09 686.21 318.72 686.58 315.24 684.57 C 311.77 682.56 309.92 678.59 310.61 674.63 L 317.12 637.75 C 317.49 635.64 316.44 633.53 314.54 632.54 C 312.64 631.55 310.31 631.90 308.79 633.41 L 241.32 700.80 C 240.89 701.24 240.30 701.48 239.68 701.48 Z" fill="#040000" fill-rule="nonzero" node-id="278" stroke="none" target-height="79.32001" target-width="158.37999" target-x="237.36" target-y="622.17"></path><path d="M 397.76 720.08 C 396.96 720.08 396.22 719.67 395.79 719.00 C 395.37 718.33 395.32 717.48 395.66 716.76 L 437.51 628.42 C 438.06 627.26 439.45 626.77 440.61 627.32 C 441.77 627.87 442.26 629.26 441.71 630.42 L 399.87 718.76 C 399.48 719.57 398.66 720.08 397.76 720.08 Z" fill="#040000" fill-rule="nonzero" node-id="280" stroke="none" target-height="93.31" target-width="46.940002" target-x="395.32" target-y="626.77"></path><path d="M 631.85 675.48 L 631.16 675.48 C 624.27 675.30 618.25 670.78 616.16 664.21 L 600.16 616.21 C 599.75 614.99 600.41 613.68 601.63 613.27 C 602.85 612.86 604.16 613.52 604.57 614.74 L 620.57 662.74 C 622.13 667.42 626.42 670.64 631.35 670.83 C 636.28 671.02 640.81 668.14 642.72 663.59 L 656.72 630.29 C 658.90 625.11 663.57 621.40 669.10 620.44 C 674.64 619.48 680.28 621.40 684.08 625.54 L 720.30 665.00 C 720.93 665.60 721.17 666.50 720.92 667.33 C 720.68 668.17 719.99 668.80 719.14 668.97 C 718.29 669.14 717.41 668.82 716.87 668.14 L 680.66 628.63 C 677.93 625.66 673.87 624.28 669.89 624.98 C 665.91 625.67 662.56 628.35 661.00 632.08 L 647.00 665.39 C 644.51 671.55 638.50 675.56 631.85 675.48 Z" fill="#040000" fill-rule="nonzero" node-id="282" stroke="none" target-height="62.700012" target-width="121.41998" target-x="599.75" target-y="612.86"></path><path d="M 765.08 659.64 C 764.38 659.64 763.72 659.32 763.28 658.78 L 721.44 607.64 C 720.81 607.02 720.59 606.09 720.87 605.25 C 721.16 604.42 721.89 603.81 722.76 603.69 C 723.64 603.58 724.51 603.97 725.00 604.70 L 766.85 655.84 C 767.24 656.32 767.43 656.93 767.36 657.54 C 767.30 658.16 767.00 658.72 766.52 659.11 C 766.12 659.45 765.61 659.64 765.08 659.64 Z" fill="#040000" fill-rule="nonzero" node-id="284" stroke="none" target-height="56.059998" target-width="46.839966" target-x="720.59" target-y="603.58"></path></svg>