<?xml version="1.0" standalone="no"?><!DOCTYPE svg PUBLIC "-//W3C//DTD SVG 1.1//EN" "http://www.w3.org/Graphics/SVG/1.1/DTD/svg11.dtd"><svg height="1024" node-id="1" sillyvg="true" template-height="1024" template-width="1024" version="1.1" viewBox="0 0 1024 1024" width="1024" xmlns="http://www.w3.org/2000/svg" xmlns:xlink="http://www.w3.org/1999/xlink"><defs node-id="82"></defs><path d="M 0.00 0.00 L 1024.00 0.00 L 1024.00 1024.00 L 0.00 1024.00 Z" fill="none" node-id="84" stroke="none" target-height="1024" target-width="1024" target-x="0" target-y="0"></path><g node-id="247"><path d="M 892.19 468.81 C 888.74 469.60 885.31 467.45 884.52 464.00 C 883.72 460.56 885.87 457.12 889.32 456.33 C 891.03 455.94 920.10 449.53 946.84 460.26 C 956.84 440.75 962.79 419.04 960.18 391.69 C 937.69 155.37 715.46 279.07 512.30 101.94 C 410.11 12.84 309.18 34.37 243.66 98.27 C 256.32 117.10 275.34 134.97 286.02 143.57 C 288.78 145.78 289.23 149.81 287.02 152.57 C 284.81 155.33 280.78 155.78 278.02 153.57 C 265.08 142.85 253.16 130.94 242.43 118.00 C 239.55 114.48 236.93 111.03 234.56 107.66 C 163.91 184.79 141.21 312.66 216.87 390.74 C 238.63 413.21 248.18 434.98 250.33 456.25 C 275.59 455.64 300.18 460.49 315.25 477.25 C 317.61 479.88 317.40 483.93 314.77 486.29 C 312.14 488.65 308.09 488.44 305.73 485.81 C 293.54 472.27 272.73 468.31 250.73 468.92 C 247.40 586.07 45.29 689.44 470.00 816.65 C 683.73 880.65 790.93 849.99 834.64 770.65 C 878.05 691.82 852.90 671.86 866.69 601.40 C 877.95 543.80 916.30 511.15 940.42 471.65 C 917.60 463.19 892.55 468.73 892.19 468.81 Z" fill="#1943e6" fill-opacity="0.51" fill-rule="nonzero" group-id="1" node-id="88" stroke="none" target-height="867.81" target-width="917.5" target-x="45.29" target-y="12.84"></path></g><path d="M 445.95 222.22 L 482.06 222.22 L 482.06 222.22 L 482.06 277.43 L 482.06 277.43 L 445.95 277.43 C 439.47 277.43 433.26 274.86 428.68 270.28 C 424.10 265.69 421.52 259.48 421.53 253.00 L 421.53 246.62 C 421.53 233.14 432.46 222.21 445.94 222.21 Z" fill="#ffffff" fill-rule="nonzero" node-id="91" stroke="none" target-height="55.219986" target-width="60.54001" target-x="421.52" target-y="222.21"></path><path d="M 482.06 279.56 L 445.22 279.56 C 430.97 279.54 419.42 267.99 419.40 253.74 L 419.40 245.91 C 419.42 231.66 430.97 220.11 445.22 220.09 L 482.06 220.09 C 483.24 220.09 484.19 221.04 484.19 222.22 L 484.19 277.43 C 484.19 278.61 483.24 279.56 482.06 279.56 Z M 445.22 224.35 C 433.32 224.37 423.68 234.01 423.67 245.91 L 423.67 253.74 C 423.69 265.63 433.33 275.27 445.22 275.29 L 479.93 275.29 L 479.93 224.35 Z" fill="#040000" fill-rule="nonzero" node-id="93" stroke="none" target-height="59.47" target-width="64.79001" target-x="419.4" target-y="220.09"></path><path d="M 437.16 246.55 C 437.16 246.55 454.27 242.82 459.60 253.71" fill="#ffffff" fill-rule="nonzero" node-id="95" stroke="none" target-height="10.889999" target-width="22.440002" target-x="437.16" target-y="242.82"></path><path d="M 459.60 255.85 C 458.79 255.85 458.04 255.38 457.69 254.65 C 453.14 245.37 437.77 248.60 437.62 248.65 C 436.87 248.84 436.07 248.60 435.55 248.03 C 435.02 247.46 434.84 246.65 435.08 245.92 C 435.33 245.18 435.95 244.63 436.71 244.49 C 437.47 244.32 455.52 240.54 461.52 252.79 C 461.77 253.30 461.80 253.89 461.61 254.43 C 461.43 254.96 461.03 255.40 460.52 255.65 C 460.23 255.79 459.92 255.85 459.60 255.85 Z" fill="#040000" fill-rule="nonzero" node-id="97" stroke="none" target-height="15.310013" target-width="26.959991" target-x="434.84" target-y="240.54"></path><path d="M 332.29 593.16 C 332.29 593.16 311.00 678.51 317.59 720.67 C 324.18 762.83 368.59 742.96 368.59 742.96 L 395.90 613.49 L 328.07 593.82" fill="#ffffff" fill-rule="nonzero" node-id="99" stroke="none" target-height="169.67004" target-width="84.899994" target-x="311" target-y="593.16"></path><path d="M 346.64 749.79 C 341.13 749.91 335.69 748.65 330.79 746.13 C 322.53 741.64 317.37 733.13 315.48 721.00 C 309.64 683.44 325.25 613.53 329.31 596.40 L 327.48 595.86 C 326.74 595.66 326.17 595.07 325.98 594.32 C 325.79 593.58 326.02 592.79 326.58 592.26 C 327.14 591.73 327.94 591.55 328.67 591.77 L 330.36 592.26 C 330.80 591.30 331.87 590.80 332.89 591.09 C 333.91 591.39 334.55 592.38 334.41 593.43 L 396.50 611.43 C 397.57 611.74 398.22 612.83 397.99 613.92 L 370.64 743.41 C 370.50 744.08 370.04 744.63 369.42 744.91 C 362.20 747.96 354.47 749.61 346.64 749.79 Z M 333.42 597.59 C 329.42 614.78 314.07 684.19 319.69 720.34 C 321.37 731.14 325.79 738.55 332.81 742.34 C 345.19 749.09 362.43 743.07 366.70 741.34 L 393.41 615.00 Z" fill="#040000" fill-rule="nonzero" node-id="101" stroke="none" target-height="159.10999" target-width="88.57999" target-x="309.64" target-y="590.8"></path><path d="M 439.67 436.00 C 439.67 436.00 383.27 443.71 346.55 517.48 C 332.71 545.29 322.90 576.35 313.78 595.28 C 311.13 600.79 310.88 607.14 313.08 612.84 C 315.28 618.54 319.74 623.07 325.40 625.37 L 378.29 646.89 C 389.41 651.41 402.10 646.25 406.92 635.26 L 441.56 556.14 Z" fill="#040000" fill-rule="nonzero" node-id="103" stroke="none" target-height="215.40997" target-width="130.68" target-x="310.88" target-y="436"></path><path d="M 644.74 404.62 C 625.51 400.36 605.83 398.43 586.13 398.88 L 555.21 398.88 C 511.40 398.03 467.69 416.88 428.78 441.77 C 418.53 448.27 411.64 458.92 409.91 470.93 C 403.91 512.84 391.79 629.73 397.28 861.93 C 397.28 861.93 656.17 874.73 758.57 836.33 L 719.21 587.27 L 750.00 448.09 C 726.13 431.02 677.88 412.09 644.70 404.62" fill="#ffffff" fill-rule="nonzero" node-id="105" stroke="none" target-height="476.69998" target-width="366.78" target-x="391.79" target-y="398.03"></path><path d="M 493.66 866.07 C 438.66 866.07 398.19 864.14 397.17 864.07 C 396.07 864.00 395.20 863.10 395.17 861.99 C 389.64 627.76 402.17 510.26 407.83 470.61 C 409.66 458.01 416.89 446.83 427.63 440.00 C 473.71 410.56 516.71 396.00 555.26 396.78 L 586.11 396.78 C 605.97 396.35 625.81 398.29 645.21 402.56 C 676.58 409.56 726.05 428.34 751.28 446.39 C 751.98 446.88 752.31 447.75 752.12 448.58 L 721.38 587.33 L 760.68 836.00 C 760.84 837.00 760.27 837.98 759.32 838.33 C 697.66 861.48 578.45 866.07 493.66 866.07 Z M 399.36 859.92 C 423.46 861.00 659.00 870.30 756.19 835.00 L 717.10 587.60 C 717.05 587.34 717.05 587.07 717.10 586.81 L 747.65 449.00 C 722.52 431.51 674.77 413.50 644.28 406.68 C 625.24 402.48 605.77 400.57 586.28 400.99 L 555.28 400.99 C 517.28 400.23 475.34 414.57 430.00 443.55 C 420.24 449.70 413.66 459.82 412.00 471.23 C 406.41 510.66 394.00 627.35 399.36 859.92 Z" fill="#040000" fill-rule="nonzero" node-id="107" stroke="none" target-height="474.3" target-width="371.2" target-x="389.64" target-y="396"></path><path d="M 850.47 591.22 L 776.36 657.47 C 772.86 660.59 768.20 662.10 763.54 661.62 C 758.87 661.14 754.62 658.71 751.83 654.94 L 706.83 594.10 C 684.02 563.27 673.20 524.85 678.26 486.84 C 681.66 461.30 692.21 439.34 717.77 434.84 C 781.77 423.43 835.18 534.39 854.22 571.12 C 857.70 577.89 856.15 586.16 850.47 591.22 Z" fill="#040000" fill-rule="nonzero" node-id="109" stroke="none" target-height="238.66998" target-width="184.5" target-x="673.2" target-y="423.43"></path><path d="M 785.54 635.83 L 841.01 576.09 L 823.94 537.69 L 785.54 537.69 L 759.94 567.56 L 759.94 593.16 L 785.54 635.83 Z" fill="#040000" fill-rule="nonzero" node-id="111" stroke="none" target-height="98.140015" target-width="81.07001" target-x="759.94" target-y="537.69"></path><path d="M 438.57 174.74 C 438.57 174.74 452.78 212.64 448.05 222.12 C 448.05 222.12 452.78 217.38 462.26 222.12 L 462.26 189.00 Z" fill="#040000" fill-rule="nonzero" node-id="113" stroke="none" target-height="47.37999" target-width="23.690002" target-x="438.57" target-y="174.74"></path><path d="M 533.27 359.24 C 533.27 359.24 536.42 386.87 525.49 403.95 C 520.49 411.75 524.49 422.17 533.24 425.27 C 551.79 431.85 581.24 436.27 614.53 418.57 C 617.15 417.19 619.03 414.72 619.65 411.82 C 620.27 408.93 619.58 405.91 617.76 403.57 C 610.76 394.62 602.50 377.03 605.63 345.34 Z" fill="#ffffff" fill-rule="nonzero" node-id="115" stroke="none" target-height="90.92999" target-width="99.78003" target-x="520.49" target-y="345.34"></path><path d="M 566.33 433.17 C 554.81 433.14 543.38 431.15 532.53 427.28 C 527.61 425.55 523.75 421.66 522.07 416.72 C 520.44 412.08 521.04 406.94 523.69 402.80 C 534.08 386.57 531.19 359.75 531.15 359.48 C 531.03 358.37 531.78 357.36 532.87 357.14 L 605.23 343.21 C 605.89 343.08 606.58 343.27 607.07 343.73 C 607.56 344.18 607.82 344.84 607.76 345.51 C 604.76 376.15 612.44 393.26 619.44 402.21 C 621.65 405.05 622.49 408.73 621.74 412.25 C 620.98 415.77 618.71 418.77 615.53 420.46 C 597.71 429.89 581.00 433.17 566.33 433.17 Z M 535.57 361.00 C 536.08 367.76 536.91 390.10 527.28 405.13 C 525.34 408.18 524.91 411.95 526.11 415.36 C 527.37 419.06 530.26 421.99 533.95 423.29 C 552.30 429.80 581.01 433.93 613.54 416.71 C 615.60 415.62 617.08 413.67 617.57 411.38 C 618.06 409.10 617.51 406.71 616.08 404.87 C 608.82 395.59 600.83 378.24 603.25 347.96 Z" fill="#040000" fill-rule="nonzero" node-id="117" stroke="none" target-height="90.850006" target-width="102.04999" target-x="520.44" target-y="343.08"></path><path d="M 659.11 277.43 L 620.48 277.43 L 620.48 277.43 L 620.48 222.22 L 620.48 222.22 L 655.48 222.22 L 658.99 222.46 L 662.29 223.13 L 665.43 224.23 L 668.39 225.72 L 671.09 227.54 L 673.55 229.70 L 675.71 232.16 L 677.53 234.86 L 679.02 237.82 L 680.12 240.96 L 680.79 244.26 L 681.03 247.77 L 681.03 255.54 L 680.81 258.57 L 680.24 261.40 L 679.31 264.07 L 678.04 266.59 L 675.87 269.66 L 673.26 272.27 L 670.19 274.44 L 667.67 275.71 L 665.00 276.64 L 662.17 277.21 L 659.14 277.43 Z" fill="#ffffff" fill-rule="nonzero" group-id="2" node-id="121" stroke="none" target-height="55.20999" target-width="60.55005" target-x="620.48" target-y="222.22"></path><path d="M 657.31 279.56 L 620.48 279.56 C 619.91 279.56 619.37 279.34 618.97 278.94 C 618.57 278.54 618.34 278.00 618.34 277.43 L 618.34 222.22 C 618.34 221.65 618.57 221.11 618.97 220.71 C 619.37 220.31 619.91 220.09 620.48 220.09 L 657.31 220.09 C 671.57 220.10 683.12 231.65 683.14 245.91 L 683.14 253.74 C 683.12 268.00 671.57 279.55 657.31 279.56 Z M 622.61 275.29 L 657.31 275.29 C 669.21 275.28 678.85 265.64 678.87 253.74 L 678.87 245.91 C 678.86 234.01 669.21 224.36 657.31 224.35 L 622.61 224.35 Z" fill="#040000" fill-rule="nonzero" node-id="124" stroke="none" target-height="59.47" target-width="64.79999" target-x="618.34" target-y="220.09"></path><path d="M 525.86 130.65 L 570.32 130.65 C 610.43 130.65 642.94 163.16 642.94 203.27 L 642.94 274.14 C 642.94 299.30 632.95 323.43 615.16 341.22 C 597.37 359.01 573.25 369.00 548.09 369.00 L 548.09 369.00 C 495.71 369.00 453.24 326.53 453.24 274.15 L 453.24 203.27 C 453.24 163.16 485.75 130.65 525.86 130.65 Z" fill="#ffffff" fill-rule="nonzero" node-id="126" stroke="none" target-height="238.35" target-width="189.70001" target-x="453.24" target-y="130.65"></path><path d="M 548.09 371.12 C 494.54 371.08 451.13 327.67 451.09 274.12 L 451.09 130.65 C 451.09 129.47 452.04 128.52 453.22 128.52 L 642.92 128.52 C 644.10 128.52 645.05 129.47 645.05 130.65 L 645.05 274.14 C 644.99 327.67 601.62 371.05 548.09 371.12 Z M 455.37 132.79 L 455.37 274.14 C 455.37 325.35 496.88 366.86 548.09 366.86 C 599.30 366.86 640.81 325.35 640.81 274.14 L 640.81 132.79 Z" fill="#040000" fill-rule="nonzero" node-id="128" stroke="none" target-height="242.59999" target-width="193.95999" target-x="451.09" target-y="128.52"></path><path d="M 676.45 102.77 C 676.56 101.92 676.66 101.06 676.70 100.18 C 677.42 83.73 663.79 69.77 646.25 68.99 C 642.06 68.80 637.86 69.40 633.89 70.76 C 624.65 60.96 610.45 54.35 594.26 53.64 C 577.58 52.91 562.46 58.64 552.40 68.05 C 544.01 59.74 532.80 54.88 521.00 54.43 C 502.22 53.61 485.64 63.54 478.00 78.43 C 473.79 76.40 469.22 75.25 464.55 75.05 C 446.63 74.26 431.20 87.31 427.55 105.15 C 414.45 110.38 405.12 121.72 404.55 135.27 C 403.86 150.87 414.93 164.59 430.81 169.78 C 435.42 183.90 447.61 194.20 462.29 196.41 C 476.98 198.61 491.65 192.35 500.21 180.21 C 507.05 184.98 515.09 187.71 523.42 188.09 C 534.92 188.56 546.16 184.56 554.77 176.93 C 562.57 189.25 575.44 197.60 590.37 198.26 C 601.93 198.70 613.19 194.53 621.68 186.68 C 629.98 191.99 639.54 195.00 649.38 195.41 C 678.67 196.70 703.38 175.67 704.58 148.41 C 705.39 128.90 693.85 111.52 676.45 102.77 Z" fill="#040000" fill-rule="nonzero" node-id="130" stroke="none" target-height="145.79" target-width="301.53003" target-x="403.86" target-y="52.91"></path><path d="M 464.17 272.26 L 464.06 272.26 L 441.53 271.00 C 440.36 270.93 439.47 269.93 439.53 268.76 C 439.54 268.19 439.79 267.65 440.22 267.28 C 440.64 266.90 441.20 266.71 441.77 266.76 L 464.29 268.00 C 465.47 268.03 466.39 269.01 466.36 270.19 C 466.33 271.37 465.35 272.29 464.17 272.26 Z" fill="#040000" fill-rule="nonzero" node-id="132" stroke="none" target-height="5.580017" target-width="26.920013" target-x="439.47" target-y="266.71"></path><path d="M 587.91 275.29 C 586.73 275.32 585.75 274.40 585.72 273.22 C 585.69 272.04 586.61 271.06 587.79 271.03 L 610.31 269.80 C 610.88 269.73 611.46 269.91 611.89 270.29 C 612.32 270.67 612.56 271.22 612.56 271.80 C 612.62 272.97 611.73 273.97 610.56 274.04 L 588.00 275.29 Z" fill="#040000" fill-rule="nonzero" node-id="134" stroke="none" target-height="5.5899963" target-width="26.929993" target-x="585.69" target-y="269.73"></path><path d="M 482.17 271.00 C 468.85 271.00 456.84 262.97 451.74 250.66 C 446.65 238.36 449.47 224.19 458.90 214.77 C 468.32 205.36 482.49 202.55 494.79 207.66 C 507.10 212.76 515.11 224.78 515.10 238.10 C 515.05 256.26 500.33 270.96 482.17 271.00 Z M 482.17 209.40 C 470.57 209.40 460.12 216.38 455.68 227.09 C 451.23 237.80 453.68 250.14 461.88 258.34 C 470.08 266.54 482.41 269.00 493.13 264.56 C 503.84 260.12 510.83 249.67 510.83 238.07 C 510.80 222.26 497.98 209.45 482.17 209.43 Z" fill="#040000" fill-rule="nonzero" node-id="136" stroke="none" target-height="68.45" target-width="68.45999" target-x="446.65" target-y="202.55"></path><path d="M 571.77 271.00 C 558.45 271.00 546.44 262.97 541.34 250.66 C 536.25 238.36 539.07 224.19 548.50 214.77 C 557.92 205.36 572.09 202.55 584.39 207.66 C 596.70 212.76 604.71 224.78 604.70 238.10 C 604.65 256.26 589.93 270.96 571.77 271.00 Z M 571.77 209.40 C 560.17 209.40 549.72 216.38 545.28 227.09 C 540.83 237.80 543.28 250.14 551.48 258.34 C 559.68 266.54 572.01 269.00 582.73 264.56 C 593.44 260.12 600.43 249.67 600.43 238.07 C 600.40 222.26 587.58 209.45 571.77 209.43 Z" fill="#040000" fill-rule="nonzero" node-id="138" stroke="none" target-height="68.45" target-width="68.46002" target-x="536.25" target-y="202.55"></path><path d="M 540.16 236.89 C 539.64 236.89 539.13 236.70 538.74 236.35 C 529.54 228.10 517.08 236.19 516.55 236.54 C 515.57 237.10 514.32 236.81 513.70 235.87 C 513.08 234.93 513.29 233.66 514.19 232.98 C 519.58 229.39 532.19 224.80 541.59 233.17 C 542.25 233.76 542.48 234.70 542.16 235.52 C 541.84 236.35 541.05 236.90 540.16 236.89 Z" fill="#040000" fill-rule="nonzero" node-id="140" stroke="none" target-height="12.300003" target-width="29.399963" target-x="513.08" target-y="224.8"></path><path d="M 488.08 139.94 C 477.02 139.94 469.18 137.17 464.71 131.67 C 458.16 123.60 461.55 112.93 461.71 112.48 C 462.13 111.43 463.29 110.88 464.37 111.23 C 465.44 111.59 466.06 112.72 465.77 113.81 C 465.77 113.90 462.96 122.81 468.05 129.00 C 472.62 134.60 482.52 136.74 496.67 135.16 C 497.23 135.09 497.80 135.25 498.25 135.61 C 498.69 135.96 498.97 136.48 499.02 137.05 C 499.15 138.22 498.31 139.27 497.14 139.40 C 494.13 139.75 491.11 139.93 488.08 139.94 Z" fill="#fffdfd" fill-rule="nonzero" node-id="142" stroke="none" target-height="29.060005" target-width="40.98999" target-x="458.16" target-y="110.88"></path><path d="M 535.18 144.42 C 528.99 144.42 525.31 144.16 525.18 144.15 C 524.06 144.00 523.25 143.00 523.34 141.87 C 523.42 140.74 524.37 139.87 525.50 139.89 C 526.11 139.94 586.98 144.24 633.21 116.50 C 633.87 116.04 634.72 115.99 635.43 116.36 C 636.14 116.73 636.58 117.47 636.57 118.27 C 636.57 119.07 636.12 119.80 635.41 120.16 C 599.35 141.78 554.77 144.42 535.18 144.42 Z" fill="#fffdfd" fill-rule="nonzero" node-id="144" stroke="none" target-height="28.43" target-width="113.33002" target-x="523.25" target-y="115.99"></path><path d="M 528.76 290.10 C 516.69 290.10 509.70 283.31 509.60 283.20 C 508.89 282.35 508.95 281.11 509.73 280.33 C 510.51 279.55 511.75 279.49 512.60 280.20 C 513.16 280.75 526.05 293.00 547.90 279.88 C 548.91 279.28 550.22 279.60 550.83 280.61 C 551.43 281.63 551.10 282.94 550.09 283.54 C 541.90 288.44 534.71 290.10 528.76 290.10 Z" fill="#040000" fill-rule="nonzero" node-id="146" stroke="none" target-height="13.720001" target-width="42.539978" target-x="508.89" target-y="279.28"></path><path d="M 464.20 195.40 C 463.41 195.41 462.69 194.97 462.31 194.28 C 461.94 193.59 461.99 192.74 462.43 192.09 C 462.53 191.93 472.99 176.57 488.56 181.77 C 489.37 181.93 490.02 182.54 490.22 183.35 C 490.42 184.15 490.14 185.00 489.49 185.52 C 488.84 186.04 487.95 186.14 487.21 185.77 C 474.69 181.59 466.06 194.27 465.98 194.40 C 465.59 195.01 464.92 195.39 464.20 195.40 Z" fill="#040000" fill-rule="nonzero" node-id="148" stroke="none" target-height="18.839996" target-width="28.480011" target-x="461.94" target-y="176.57"></path><path d="M 607.33 198.49 C 606.35 198.49 605.50 197.83 605.26 196.88 C 605.26 196.81 603.40 189.88 597.85 187.30 C 594.29 185.67 589.85 186.17 584.59 188.79 C 583.54 189.31 582.25 188.88 581.73 187.83 C 581.21 186.78 581.64 185.49 582.69 184.97 C 589.15 181.74 594.87 181.23 599.69 183.43 C 607.10 186.84 609.34 195.43 609.43 195.84 C 609.71 196.98 609.02 198.13 607.88 198.42 C 607.70 198.47 607.52 198.49 607.33 198.49 Z" fill="#040000" fill-rule="nonzero" node-id="150" stroke="none" target-height="17.26001" target-width="28.5" target-x="581.21" target-y="181.23"></path><path d="M 274.39 258.00 C 269.96 258.00 265.60 256.92 261.69 254.84 C 253.48 250.59 249.04 245.33 247.12 240.27 C 227.05 236.51 217.64 216.27 217.54 215.99 C 217.05 214.92 217.53 213.66 218.60 213.17 C 219.67 212.68 220.93 213.16 221.42 214.23 C 221.81 215.08 229.54 231.62 246.04 235.69 C 245.84 233.78 246.00 231.85 246.49 229.99 C 248.49 222.43 255.77 217.40 264.19 217.80 C 269.13 218.02 273.65 222.86 273.86 228.15 C 273.95 230.60 273.11 238.74 258.32 240.57 C 256.25 240.83 254.17 240.92 252.09 240.83 C 254.04 244.36 257.68 247.96 263.65 251.06 C 285.65 262.47 308.56 232.70 308.79 232.39 C 309.50 231.45 310.84 231.27 311.78 231.98 C 312.72 232.69 312.90 234.03 312.19 234.97 C 311.34 236.08 294.47 258.00 274.39 258.00 Z M 250.46 236.45 C 252.90 236.68 255.37 236.64 257.80 236.33 C 265.46 235.38 269.80 232.46 269.59 228.33 C 269.47 225.24 266.75 222.20 263.99 222.07 C 257.57 221.75 252.11 225.50 250.61 231.07 C 250.15 232.83 250.10 234.66 250.46 236.44 Z" fill="#231815" fill-rule="nonzero" node-id="152" stroke="none" target-height="49.79001" target-width="95.84999" target-x="217.05" target-y="212.68"></path><path d="M 848.09 395.68 C 848.09 405.86 839.83 414.12 829.65 414.12 C 819.47 414.12 811.21 405.86 811.21 395.68 C 811.21 385.50 819.47 377.24 829.65 377.24 C 839.83 377.24 848.09 385.50 848.09 395.68 Z" fill="#ffffff" fill-rule="nonzero" node-id="154" stroke="none" target-height="36.880005" target-width="36.880005" target-x="811.21" target-y="377.24"></path><path d="M 829.65 416.26 C 821.33 416.26 813.82 411.25 810.63 403.56 C 807.44 395.87 809.20 387.02 815.08 381.13 C 820.97 375.24 829.82 373.48 837.51 376.67 C 845.20 379.85 850.22 387.36 850.22 395.68 C 850.21 407.04 841.01 416.24 829.65 416.26 Z M 829.65 379.37 C 820.65 379.39 813.37 386.70 813.38 395.71 C 813.39 404.71 820.70 412.00 829.70 411.99 C 838.71 411.98 846.00 404.68 846.00 395.68 C 845.99 391.35 844.27 387.20 841.20 384.14 C 838.14 381.08 833.98 379.36 829.65 379.37 Z" fill="#040000" fill-rule="nonzero" node-id="156" stroke="none" target-height="42.78" target-width="42.77997" target-x="807.44" target-y="373.48"></path><path d="M 476.97 245.25 C 476.97 248.69 474.18 251.48 470.74 251.48 C 467.30 251.48 464.51 248.69 464.51 245.25 C 464.51 241.81 467.30 239.02 470.74 239.02 C 474.18 239.02 476.97 241.81 476.97 245.25 Z" fill="#040000" fill-rule="nonzero" node-id="158" stroke="none" target-height="12.459991" target-width="12.459991" target-x="464.51" target-y="239.02"></path><path d="M 562.31 245.25 C 562.31 248.69 559.52 251.48 556.08 251.48 C 552.64 251.48 549.85 248.69 549.85 245.25 C 549.85 241.81 552.64 239.02 556.08 239.02 C 559.52 239.02 562.31 241.81 562.31 245.25 Z" fill="#040000" fill-rule="nonzero" node-id="160" stroke="none" target-height="12.459991" target-width="12.460022" target-x="549.85" target-y="239.02"></path><path d="M 357.84 367.36 C 357.84 367.36 310.91 299.87 289.58 325.47 C 275.58 342.26 296.39 344.08 306.63 345.47 C 312.78 346.30 318.85 347.64 324.78 349.47 C 334.86 352.70 348.34 358.29 357.84 367.36 Z" fill="#ffffff" fill-rule="nonzero" node-id="162" stroke="none" target-height="67.48999" target-width="82.26001" target-x="275.58" target-y="299.87"></path><path d="M 357.84 369.49 C 357.29 369.49 356.77 369.28 356.37 368.90 C 347.07 360.02 333.71 354.57 324.14 351.57 C 318.33 349.77 312.37 348.45 306.34 347.63 L 304.73 347.41 C 296.80 346.34 285.94 344.87 283.31 338.11 C 281.80 334.23 283.31 329.65 287.94 324.11 C 291.36 319.71 296.72 317.26 302.29 317.56 C 326.29 318.61 358.24 364.20 359.59 366.14 C 360.05 366.79 360.10 367.64 359.73 368.35 C 359.36 369.05 358.63 369.49 357.84 369.49 Z M 301.44 321.81 C 297.43 321.78 293.65 323.63 291.21 326.81 C 288.82 329.69 286.21 333.71 287.29 336.53 C 289.00 340.95 299.20 342.33 305.29 343.16 L 306.92 343.38 C 313.19 344.23 319.37 345.59 325.41 347.47 C 332.96 349.78 340.24 352.92 347.11 356.81 C 336.02 343.17 316.81 322.44 302.11 321.81 Z" fill="#040000" fill-rule="nonzero" node-id="164" stroke="none" target-height="52.22998" target-width="78.30002" target-x="281.8" target-y="317.26"></path><path d="M 349.09 393.02 L 348.94 394.09 L 348.21 395.26 L 346.64 396.61 L 343.71 398.25 L 339.37 399.92 L 334.54 401.21 L 328.82 402.23 L 323.03 402.77 L 318.03 402.81 L 313.40 402.36 L 310.14 401.57 L 308.27 400.68 L 307.25 399.75 L 306.82 398.76 L 306.97 397.68 L 307.70 396.51 L 309.27 395.16 L 312.20 393.53 L 316.54 391.86 L 321.37 390.57 L 327.10 389.55 L 332.89 389.00 L 337.88 388.96 L 342.51 389.41 L 345.77 390.21 L 347.64 391.09 L 348.66 392.02 L 349.09 393.02 Z" fill="#ffffff" fill-rule="nonzero" group-id="3" node-id="168" stroke="none" target-height="13.850006" target-width="42.26999" target-x="306.82" target-y="388.96"></path><path d="M 320.05 405.00 C 317.79 405.01 315.54 404.86 313.31 404.53 C 307.99 403.69 305.10 401.85 304.73 399.06 L 304.73 399.06 C 303.94 393.25 315.63 388.97 326.83 387.45 C 332.07 386.66 337.39 386.61 342.65 387.28 C 347.97 388.12 350.86 389.96 351.23 392.75 C 352.02 398.56 340.33 402.84 329.13 404.36 C 326.12 404.78 323.09 404.99 320.05 405.00 Z M 309.00 398.46 C 309.59 399.59 316.33 401.76 328.59 400.10 C 340.85 398.44 346.88 394.47 347.04 393.26 C 346.57 392.19 339.83 389.96 327.45 391.65 C 315.07 393.34 309.22 397.20 309.00 398.46 Z" fill="#040000" fill-rule="nonzero" node-id="171" stroke="none" target-height="18.400024" target-width="48.079987" target-x="303.94" target-y="386.61"></path><path d="M 664.70 179.29 C 664.70 179.29 651.90 213.43 656.17 221.96 C 656.17 221.96 651.90 217.69 643.37 221.96 L 643.37 192.09 Z" fill="#040000" fill-rule="nonzero" node-id="173" stroke="none" target-height="42.670013" target-width="21.330017" target-x="643.37" target-y="179.29"></path><path d="M 897.37 302.36 C 892.59 302.36 888.20 299.00 884.30 292.36 C 881.21 287.12 878.05 284.36 875.16 284.28 L 875.10 284.28 C 871.46 284.28 868.36 288.58 867.20 290.44 C 865.50 293.32 863.32 295.89 860.75 298.04 C 853.30 303.89 845.40 302.89 839.06 295.28 C 835.92 291.51 832.92 289.60 830.15 289.60 C 827.38 289.60 825.21 291.51 823.88 293.12 C 820.88 296.70 817.99 299.02 814.99 300.21 C 810.70 301.91 804.25 302.57 797.99 295.99 C 795.49 293.38 792.99 292.15 790.43 292.41 C 785.51 292.85 781.81 298.41 781.77 298.41 C 781.12 299.40 779.80 299.67 778.82 299.02 C 777.83 298.38 777.55 297.06 778.20 296.07 C 778.39 295.77 783.05 288.77 790.01 288.13 C 793.91 287.77 797.63 289.41 801.07 293.01 C 804.81 296.92 808.99 298.01 813.46 296.21 C 815.78 295.29 818.14 293.38 820.65 290.36 C 822.57 288.05 825.78 285.30 830.19 285.30 L 830.19 285.30 C 834.29 285.30 838.39 287.73 842.38 292.52 C 847.30 298.43 852.46 299.13 858.16 294.65 C 860.34 292.81 862.19 290.61 863.63 288.14 C 865.56 285.06 869.78 280.00 875.27 279.99 C 879.79 280.05 884.08 283.48 888.01 290.17 C 891.09 295.40 894.25 298.06 897.42 298.06 L 897.48 298.06 C 902.04 298.06 906.23 292.32 907.48 290.13 C 908.05 289.10 909.35 288.73 910.38 289.30 C 911.41 289.87 911.78 291.17 911.21 292.20 C 910.98 292.62 905.53 302.20 897.56 302.32 Z" fill="#040000" fill-rule="nonzero" node-id="175" stroke="none" target-height="23.900024" target-width="134.23004" target-x="777.55" target-y="279.99"></path><path d="M 897.37 327.67 C 892.59 327.67 888.20 324.31 884.30 317.67 C 881.21 312.42 878.05 309.67 875.16 309.59 L 875.10 309.59 C 871.46 309.59 868.36 313.89 867.20 315.74 C 865.50 318.62 863.32 321.19 860.75 323.34 C 853.30 329.20 845.40 328.19 839.06 320.58 C 835.92 316.81 832.92 314.90 830.15 314.90 C 827.38 314.90 825.21 316.82 823.88 318.42 C 820.88 322.00 817.99 324.32 814.99 325.51 C 810.70 327.21 804.25 327.88 797.99 321.29 C 795.49 318.69 792.99 317.47 790.43 317.71 C 785.51 318.15 781.81 323.71 781.77 323.71 C 781.13 324.70 779.81 324.97 778.82 324.33 C 777.83 323.69 777.56 322.37 778.20 321.38 C 778.39 321.08 783.05 314.08 790.01 313.43 C 793.91 313.07 797.63 314.72 801.07 318.31 C 804.81 322.22 808.99 323.31 813.46 321.52 C 815.78 320.60 818.14 318.68 820.65 315.66 C 822.57 313.36 825.78 310.61 830.19 310.61 L 830.19 310.61 C 834.29 310.61 838.39 313.03 842.38 317.82 C 847.30 323.73 852.46 324.44 858.16 319.96 C 860.34 318.11 862.19 315.91 863.63 313.44 C 865.56 310.37 869.78 305.19 875.27 305.29 C 879.79 305.36 884.08 308.78 888.01 315.48 C 891.09 320.71 894.25 323.36 897.42 323.36 L 897.48 323.36 C 902.04 323.36 906.23 317.62 907.48 315.43 C 908.09 314.48 909.33 314.17 910.32 314.72 C 911.30 315.27 911.69 316.49 911.21 317.51 C 910.98 317.92 905.53 327.51 897.56 327.63 Z" fill="#040000" fill-rule="nonzero" node-id="177" stroke="none" target-height="24.01001" target-width="134.13" target-x="777.56" target-y="305.19"></path><path d="M 643.37 254.00 C 643.16 254.00 642.95 253.97 642.75 253.91 C 641.62 253.56 640.99 252.37 641.33 251.24 C 641.33 251.11 645.67 237.80 665.16 242.04 C 666.31 242.29 667.04 243.43 666.79 244.58 C 666.54 245.73 665.40 246.46 664.25 246.21 C 648.57 242.77 645.44 252.39 645.41 252.49 C 645.14 253.39 644.31 254.00 643.37 254.00 Z" fill="#040000" fill-rule="nonzero" node-id="179" stroke="none" target-height="16.199997" target-width="26.049988" target-x="640.99" target-y="237.8"></path><path d="M 572.84 418.61 C 546.06 419.69 531.60 412.26 523.90 401.16 C 519.64 401.16 506.70 402.34 506.84 405.43 C 507.52 420.59 540.27 436.51 572.84 435.21 C 605.41 433.91 631.24 417.90 630.56 402.73 C 630.47 400.73 624.48 400.67 620.66 399.81 C 618.74 399.36 616.73 400.05 615.49 401.59 C 608.00 411.08 596.26 417.68 572.84 418.61 Z" fill="#040000" fill-rule="nonzero" node-id="181" stroke="none" target-height="37.150024" target-width="124.53998" target-x="506.7" target-y="399.36"></path><path d="M 247.26 722.75 L 979.74 635.66 L 982.11 635.70 L 984.28 636.33 L 986.21 637.48 L 987.78 639.09 L 988.90 641.05 L 989.49 643.34 L 1013.11 841.99 L 1013.07 844.36 L 1012.44 846.53 L 1011.29 848.45 L 1009.69 850.03 L 1007.73 851.15 L 1005.43 851.74 L 272.95 938.82 L 270.57 938.79 L 268.40 938.16 L 266.48 937.00 L 264.91 935.40 L 263.79 933.44 L 263.19 931.14 L 239.58 732.50 L 239.61 730.13 L 240.24 727.96 L 241.40 726.03 L 243.00 724.46 L 244.96 723.34 L 247.26 722.75 Z" fill="#040000" fill-rule="nonzero" group-id="4" node-id="185" stroke="none" target-height="303.16003" target-width="773.52997" target-x="239.58" target-y="635.66"></path><path d="M 273.30 652.83 C 279.27 648.42 287.14 647.53 293.94 650.49 C 300.74 653.46 305.45 659.82 306.30 667.19 L 322.84 812.75 L 339.39 958.30 C 340.23 965.68 337.07 972.95 331.10 977.36 C 325.13 981.78 317.26 982.67 310.45 979.71 L 176.13 921.26 L 41.80 862.81 C 34.97 859.85 30.24 853.47 29.41 846.08 C 28.57 838.69 31.75 831.41 37.74 827.00 L 155.52 739.89 Z" fill="#040000" fill-rule="nonzero" node-id="188" stroke="none" target-height="335.13995" target-width="311.66" target-x="28.57" target-y="647.53"></path><path d="M 234.05 676.66 L 966.52 589.58 L 968.89 589.61 L 971.06 590.24 L 972.99 591.40 L 974.56 593.00 L 975.68 594.96 L 976.28 597.26 L 995.97 762.92 L 996.25 767.28 L 996.12 771.49 L 995.57 775.57 L 994.62 779.54 L 993.28 783.43 L 991.61 787.10 L 989.61 790.57 L 987.26 793.86 L 984.61 796.92 L 981.71 799.68 L 978.53 802.17 L 975.07 804.38 L 971.42 806.23 L 967.58 807.72 L 963.53 808.84 L 959.22 809.59 L 259.74 892.75 L 257.37 892.71 L 255.20 892.08 L 253.27 890.93 L 251.70 889.32 L 250.58 887.36 L 249.98 885.06 L 226.37 686.46 L 226.41 684.09 L 227.04 681.92 L 228.19 679.99 L 229.80 678.42 L 231.76 677.30 L 234.05 676.71 Z" fill="#ffffff" fill-rule="nonzero" group-id="5" node-id="192" stroke="none" target-height="303.16998" target-width="769.88" target-x="226.37" target-y="589.58"></path><path d="M 283.84 891.71 C 263.80 891.67 246.93 876.68 244.54 856.78 L 227.69 715.14 C 226.45 704.71 229.40 694.21 235.90 685.96 C 242.40 677.71 251.91 672.38 262.34 671.14 L 937.82 590.78 C 959.53 588.24 979.21 603.74 981.82 625.44 L 998.67 767.08 C 1001.25 788.80 985.73 808.50 964.01 811.08 L 288.55 891.43 C 286.99 891.62 285.41 891.71 283.84 891.71 Z M 942.52 594.71 C 941.12 594.71 939.71 594.79 938.32 594.96 L 262.84 675.36 C 243.46 677.67 229.62 695.25 231.92 714.63 L 248.77 856.27 C 251.09 875.63 268.63 889.47 288.00 887.20 L 963.48 806.83 C 972.79 805.73 981.28 800.97 987.08 793.60 C 992.88 786.24 995.52 776.87 994.41 767.56 L 977.60 625.92 C 975.46 608.16 960.41 594.79 942.52 594.75 Z" fill="#040000" fill-rule="nonzero" node-id="195" stroke="none" target-height="303.47003" target-width="774.8" target-x="226.45" target-y="588.24"></path><path d="M 260.08 606.74 C 266.05 602.33 273.92 601.44 280.72 604.40 C 287.52 607.37 292.23 613.73 293.08 621.10 L 309.63 766.66 L 326.17 912.21 C 327.01 919.59 323.85 926.86 317.88 931.27 C 311.91 935.69 304.04 936.58 297.23 933.62 L 162.91 875.17 L 28.58 816.72 C 21.80 813.75 17.11 807.39 16.27 800.03 C 15.44 792.67 18.58 785.42 24.52 781.00 L 142.30 693.84 Z" fill="#ffffff" fill-rule="nonzero" node-id="197" stroke="none" target-height="335.14" target-width="311.57" target-x="15.44" target-y="601.44"></path><path d="M 305.59 937.51 C 302.42 937.51 299.29 936.85 296.39 935.57 L 27.74 818.67 C 20.23 815.40 15.04 808.38 14.11 800.25 C 13.19 792.11 16.67 784.10 23.25 779.23 L 258.82 605.00 C 265.40 600.13 274.08 599.14 281.59 602.41 C 289.10 605.68 294.29 612.70 295.21 620.84 L 328.30 912.00 C 329.02 918.48 326.96 924.95 322.63 929.82 C 318.30 934.69 312.11 937.50 305.59 937.54 Z M 272.40 604.77 C 268.43 604.79 264.58 606.08 261.40 608.45 L 25.79 782.66 C 20.43 786.62 17.59 793.14 18.35 799.76 C 19.10 806.39 23.33 812.10 29.44 814.76 L 298.09 931.66 C 304.20 934.33 311.28 933.54 316.64 929.57 C 322.01 925.61 324.85 919.08 324.09 912.45 L 291.00 621.35 C 289.90 611.92 281.93 604.80 272.43 604.77 Z" fill="#040000" fill-rule="nonzero" node-id="199" stroke="none" target-height="338.39996" target-width="315.83" target-x="13.19" target-y="599.14"></path><path d="M 845.06 839.08 C 853.59 843.35 850.39 846.29 839.64 870.49 C 839.64 870.56 839.64 874.76 839.64 883.29 C 839.64 897.70 828.22 907.29 814.45 911.49 L 814.04 911.62 C 771.37 924.42 746.92 890.28 746.92 890.28 C 746.92 890.28 725.59 869.00 725.59 856.15 C 725.59 843.30 742.66 856.15 742.66 856.15 C 738.39 834.82 755.46 847.62 755.46 847.62 C 751.19 826.28 772.52 843.35 772.52 843.35 C 768.26 826.28 781.06 830.55 789.59 843.35 C 796.59 853.81 815.19 860.42 815.19 860.42 C 815.19 860.42 834.26 833.69 845.06 839.08 Z" fill="#ffffff" fill-rule="nonzero" node-id="201" stroke="none" target-height="98.13995" target-width="128" target-x="725.59" target-y="826.28"></path><path d="M 795.37 916.60 C 763.58 916.60 745.37 891.82 745.19 891.52 C 744.52 890.90 723.46 869.68 723.46 856.15 C 723.46 851.68 725.35 849.79 726.94 849.00 C 730.64 847.15 736.10 849.54 739.89 851.77 C 739.59 847.13 740.62 844.11 743.01 842.60 C 745.94 840.76 749.84 841.98 752.78 843.46 C 752.62 839.55 753.64 836.97 755.85 835.63 C 759.62 833.33 765.51 836.10 769.59 838.63 C 769.26 833.40 771.18 831.26 773.11 830.41 C 778.41 828.07 786.30 834.54 791.36 842.14 C 796.76 850.23 810.00 856.04 814.43 857.81 C 818.88 851.81 835.01 831.65 846.01 837.14 C 855.11 841.69 853.01 846.36 845.89 861.83 C 844.68 864.47 843.30 867.49 841.76 870.94 L 841.76 883.26 C 841.76 897.09 831.76 908.40 815.06 913.50 L 814.65 913.63 C 808.40 915.55 801.91 916.55 795.37 916.60 Z M 730.04 852.60 C 729.63 852.59 729.22 852.66 728.85 852.83 C 727.92 853.30 727.72 854.90 727.72 856.17 C 727.72 865.94 742.67 883.03 748.43 888.79 C 749.62 890.40 772.76 921.79 813.43 909.59 L 813.86 909.46 C 828.65 904.95 837.51 895.17 837.51 883.31 L 837.51 874.80 C 837.51 870.11 837.51 870.11 837.70 869.66 C 839.32 866.01 840.76 862.85 842.02 860.10 C 849.52 843.72 849.22 843.56 844.11 841.01 L 844.11 841.01 C 837.46 837.67 823.90 851.92 816.94 861.68 C 816.39 862.45 815.39 862.77 814.49 862.45 C 813.70 862.17 795.11 855.45 787.82 844.55 C 782.75 836.93 776.82 833.47 774.82 834.36 C 774.02 834.71 773.08 836.89 774.57 842.85 C 774.79 843.74 774.42 844.66 773.65 845.16 C 772.88 845.65 771.89 845.60 771.17 845.04 C 767.09 841.77 760.24 837.94 758.04 839.29 C 757.60 839.56 756.27 840.92 757.53 847.22 C 757.70 848.09 757.32 848.97 756.58 849.44 C 755.83 849.91 754.87 849.87 754.16 849.34 C 751.51 847.34 746.95 845.18 745.27 846.23 C 744.76 846.55 743.27 848.23 744.73 855.75 C 744.90 856.62 744.52 857.49 743.77 857.97 C 743.03 858.44 742.07 858.40 741.36 857.88 C 738.23 855.50 733.00 852.58 730.00 852.58 Z" fill="#040000" fill-rule="nonzero" node-id="203" stroke="none" target-height="93.71997" target-width="131.64996" target-x="723.46" target-y="828.07"></path><path d="M 772.52 843.35 C 772.52 843.35 776.79 860.42 798.12 868.95" fill="#ffffff" fill-rule="nonzero" node-id="205" stroke="none" target-height="25.600037" target-width="25.599976" target-x="772.52" target-y="843.35"></path><path d="M 798.12 871.08 C 797.85 871.08 797.58 871.03 797.33 870.93 C 775.24 862.09 770.64 844.61 770.45 843.87 C 770.17 842.73 770.86 841.57 772.00 841.28 C 772.55 841.14 773.13 841.22 773.62 841.51 C 774.11 841.80 774.46 842.28 774.59 842.83 C 774.76 843.48 778.94 858.98 798.91 866.97 C 799.86 867.35 800.41 868.35 800.22 869.35 C 800.02 870.36 799.14 871.08 798.12 871.08 Z" fill="#040000" fill-rule="nonzero" node-id="207" stroke="none" target-height="29.940002" target-width="30.23999" target-x="770.17" target-y="841.14"></path><path d="M 755.46 847.62 C 755.46 847.62 764.00 869.00 785.32 877.48" fill="#ffffff" fill-rule="nonzero" node-id="209" stroke="none" target-height="29.859985" target-width="29.859985" target-x="755.46" target-y="847.62"></path><path d="M 785.32 879.62 C 785.05 879.62 784.78 879.57 784.53 879.46 C 762.60 870.69 753.84 849.31 753.53 848.41 C 753.09 847.31 753.63 846.05 754.74 845.62 C 755.84 845.18 757.09 845.72 757.53 846.82 C 757.61 847.03 766.01 867.42 786.20 875.50 C 787.14 875.89 787.68 876.88 787.49 877.88 C 787.30 878.88 786.43 879.61 785.41 879.62 Z" fill="#040000" fill-rule="nonzero" node-id="211" stroke="none" target-height="34.440002" target-width="34.589966" target-x="753.09" target-y="845.18"></path><path d="M 742.66 856.15 C 742.66 856.15 751.19 877.48 768.26 886.02" fill="#ffffff" fill-rule="nonzero" node-id="213" stroke="none" target-height="29.869995" target-width="25.600037" target-x="742.66" target-y="856.15"></path><path d="M 768.26 888.15 C 767.91 888.16 767.57 888.08 767.26 887.92 C 749.67 879.13 741.00 857.84 740.64 856.92 C 740.20 855.82 740.75 854.57 741.85 854.13 C 742.95 853.69 744.20 854.24 744.64 855.34 C 744.72 855.54 753.09 876.03 769.21 884.09 C 770.06 884.55 770.49 885.54 770.26 886.48 C 770.02 887.42 769.18 888.08 768.21 888.09 Z" fill="#040000" fill-rule="nonzero" node-id="215" stroke="none" target-height="34.46997" target-width="30.289978" target-x="740.2" target-y="853.69"></path><path d="M 337.39 936.38 C 337.39 936.38 319.26 860.97 337.39 860.97 C 347.44 860.97 347.44 906.22 347.44 906.22 C 347.44 906.22 342.42 856.00 357.50 861.00 C 362.27 862.59 367.55 906.25 367.55 906.25 C 367.55 906.25 366.37 861.00 377.61 861.00 C 387.66 861.00 382.61 906.25 382.61 906.25 C 382.61 906.25 394.77 868.14 402.72 876.09 C 407.72 881.09 400.02 905.44 399.92 911.09 C 399.61 928.40 397.69 946.43 372.56 951.46 C 362.51 953.47 342.42 951.46 337.39 936.38 Z" fill="#ffffff" fill-rule="nonzero" node-id="217" stroke="none" target-height="97.46997" target-width="88.45999" target-x="319.26" target-y="856"></path><path d="M 365.45 954.23 C 354.61 954.23 339.85 950.50 335.36 937.05 C 335.35 936.99 335.33 936.94 335.31 936.88 C 333.80 930.59 320.84 875.04 331.15 861.96 C 332.62 859.99 334.93 858.83 337.39 858.84 C 339.10 858.84 343.11 860.06 346.06 870.38 C 347.06 865.77 348.65 861.99 351.06 860.06 C 353.06 858.46 355.76 858.03 358.16 858.95 C 361.30 859.95 364.05 870.16 366.28 882.66 C 367.22 873.71 369.10 864.80 372.78 861.02 C 375.43 858.31 379.30 858.02 381.78 860.81 C 386.01 865.53 386.36 879.94 385.89 891.38 C 389.46 883.06 394.32 874.16 399.15 872.98 C 401.01 872.54 402.97 873.14 404.26 874.55 C 408.26 878.55 406.45 889.12 403.62 902.48 C 402.92 905.33 402.41 908.22 402.08 911.13 C 401.76 929.72 399.25 948.30 373.00 953.55 C 370.51 954.02 367.98 954.25 365.45 954.23 Z M 339.45 935.79 C 344.23 949.89 363.91 951.01 372.17 949.37 C 395.32 944.74 397.51 928.61 397.81 911.06 C 398.13 907.87 398.67 904.71 399.45 901.60 C 401.02 894.15 403.95 880.27 401.24 877.60 C 400.68 877.05 400.36 877.11 400.15 877.17 C 395.67 878.26 388.40 895.17 384.67 906.91 C 384.35 907.97 383.27 908.60 382.19 908.37 C 381.11 908.14 380.38 907.12 380.52 906.02 C 382.06 892.20 382.89 868.49 378.60 863.69 C 378.37 863.36 378.00 863.16 377.60 863.15 C 376.91 863.17 376.26 863.50 375.83 864.04 C 370.03 870.04 369.42 896.49 369.68 906.20 C 369.77 907.37 368.88 908.39 367.71 908.48 C 366.54 908.57 365.52 907.68 365.43 906.51 C 363.10 887.27 359.04 865.12 356.54 862.90 C 355.57 862.56 354.50 862.76 353.72 863.43 C 350.29 866.17 348.97 876.03 348.78 886.50 C 349.28 891.95 349.57 898.50 349.57 906.26 C 349.53 907.37 348.65 908.27 347.54 908.32 C 346.43 908.38 345.46 907.57 345.31 906.47 C 344.71 900.21 344.43 893.92 344.47 887.63 C 343.23 874.00 340.68 863.15 337.38 863.15 C 336.23 863.14 335.15 863.70 334.49 864.64 C 326.86 874.29 335.46 919.18 339.44 935.79 Z" fill="#040000" fill-rule="nonzero" node-id="219" stroke="none" target-height="96.22998" target-width="87.42001" target-x="320.84" target-y="858.02"></path><path d="M 402.17 810.73 L 403.17 753.66 L 396.02 754.53 L 396.30 741.34 L 425.82 737.74 L 424.91 788.00 L 431.17 785.36 L 430.85 799.23 Z M 420.17 714.73 L 425.47 730.73 L 404.69 733.26 L 399.39 717.26 Z M 457.55 727.24 L 457.55 723.89 L 433.86 726.77 L 433.98 716.68 L 457.80 713.78 L 457.80 712.84 L 452.44 708.52 L 480.90 705.05 L 480.68 710.99 L 504.63 708.07 L 504.52 718.16 L 480.52 721.08 L 480.40 724.45 L 500.25 722.03 L 500.02 732.27 L 480.30 734.67 L 480.17 738.05 L 506.11 734.88 L 505.89 745.12 L 430.31 754.33 L 430.54 744.09 L 457.14 740.85 L 457.27 737.48 L 436.36 740.03 L 436.59 729.79 Z M 475.89 801.71 L 480.96 793.71 L 481.01 786.45 L 454.68 789.66 L 454.45 804.33 L 432.74 807.00 L 433.74 756.51 L 503.46 748.00 L 502.62 789.60 C 502.66 791.90 502.10 794.16 501.01 796.18 C 499.92 798.00 498.00 799.16 495.88 799.29 Z M 454.89 780.62 L 481.23 777.41 L 481.29 773.51 L 455.00 776.77 Z M 455.06 767.70 L 481.40 764.49 L 481.50 760.86 L 455.16 764.06 Z" fill="#000000" fill-rule="nonzero" node-id="221" stroke="none" target-height="105.67999" target-width="110.09" target-x="396.02" target-y="705.05"></path><path d="M 535.82 707.15 L 532.05 703.71 L 558.39 700.50 L 555.11 711.11 L 568.21 709.51 L 568.46 699.41 L 563.46 694.91 L 593.64 691.24 L 593.34 706.45 L 626.03 702.45 L 625.84 715.23 L 593.02 719.23 L 592.74 734.58 L 630.61 730.00 L 630.29 742.80 L 615.21 744.64 L 614.81 769.00 L 627.39 767.47 L 632.46 761.75 L 632.10 781.94 L 598.35 786.00 C 596.06 786.39 593.72 785.74 591.96 784.23 C 590.23 782.67 589.36 780.38 589.60 778.07 L 590.06 747.65 L 566.63 750.51 L 549.12 792.00 L 524.00 795.09 L 541.52 753.60 L 524.71 755.60 L 525.02 742.80 L 567.64 737.61 L 568.00 722.30 L 551.00 724.38 L 547.68 735.00 L 526.37 737.60 Z" fill="#000000" fill-rule="nonzero" node-id="223" stroke="none" target-height="103.85004" target-width="108.46002" target-x="524" target-y="691.24"></path><path d="M 646.40 779.10 L 651.62 765.71 L 652.46 719.66 L 647.46 720.28 L 647.65 707.50 L 675.31 704.13 L 674.42 757.43 L 693.21 760.64 L 754.76 753.15 L 754.57 765.93 L 684.15 774.51 L 670.72 772.25 L 669.07 776.35 Z M 668.20 684.57 L 675.46 699.00 L 655.35 701.45 L 648.08 687.00 Z M 703.41 680.28 L 701.00 693.34 L 710.67 692.16 L 710.90 681.93 L 705.90 677.43 L 731.00 674.37 L 730.72 689.71 L 748.33 687.57 L 748.13 699.00 L 730.53 701.15 L 730.36 714.06 L 750.47 711.61 L 750.26 723.06 L 737.69 724.59 L 737.45 734.82 L 747.51 733.60 L 752.72 727.86 L 752.26 748.33 L 717.06 752.62 L 717.56 727.04 L 709.89 727.97 L 702.00 754.47 L 681.89 756.92 L 689.81 730.43 L 679.88 731.65 L 680.10 720.20 L 710.28 716.53 L 710.45 703.61 L 698.89 705.00 L 697.81 711.58 L 680.21 713.72 L 685.00 687.00 L 680.77 683.00 Z" fill="#000000" fill-rule="nonzero" node-id="225" stroke="none" target-height="104.72998" target-width="108.359985" target-x="646.4" target-y="674.37"></path><path d="M 774.31 719.87 L 774.75 696.98 L 766.14 697.98 L 766.46 685.18 L 775.07 684.13 L 775.29 672.68 L 771.64 669.23 L 795.99 666.23 L 795.71 681.57 L 802.07 680.80 L 801.75 693.60 L 795.53 694.36 L 795.19 711.46 L 801.47 708.95 L 801.31 723.07 L 794.90 725.60 L 794.36 754.27 C 794.29 756.76 793.31 759.15 791.62 760.98 C 789.97 762.82 787.70 763.99 785.24 764.25 L 764.85 766.73 L 773.73 753.56 L 774.14 733.77 L 765.41 737.12 L 765.72 723.12 Z M 827.89 733.00 L 827.94 726.82 L 806.10 729.48 L 806.40 717.62 L 828.11 714.97 L 828.27 709.72 L 849.45 707.14 L 849.29 712.40 L 871.00 709.70 L 870.70 721.56 L 849.13 724.19 L 849.07 730.37 L 872.50 727.52 L 872.22 739.52 L 848.79 742.37 L 848.61 756.37 L 827.44 758.95 L 827.61 744.95 L 801.54 748.13 L 801.82 736.13 Z M 872.17 659.91 L 872.17 661.66 L 871.80 678.50 L 852.29 691.50 L 876.19 702.43 L 850.65 705.54 L 839.36 699.93 L 823.69 710.30 L 804.63 712.63 L 804.80 707.37 L 826.00 693.16 L 805.25 682.66 L 827.47 680.00 L 838.16 685.00 L 854.80 673.80 L 805.30 679.80 L 805.60 667.94 Z" fill="#000000" fill-rule="nonzero" node-id="227" stroke="none" target-height="106.82001" target-width="111.34003" target-x="764.85" target-y="659.91"></path><path d="M 102.56 780.50 C 99.20 780.42 96.30 778.12 95.46 774.86 C 94.62 771.61 96.05 768.19 98.96 766.50 L 171.87 725.29 C 172.89 724.70 174.20 725.06 174.79 726.08 C 175.38 727.10 175.02 728.41 174.00 729.00 L 101.09 770.21 C 99.71 770.92 99.08 772.54 99.60 774.00 C 100.04 775.53 101.58 776.46 103.14 776.15 L 275.00 750.59 C 276.16 750.43 277.24 751.23 277.42 752.39 C 277.51 752.95 277.37 753.52 277.03 753.97 C 276.69 754.43 276.19 754.73 275.63 754.81 L 103.75 780.41 C 103.36 780.47 102.96 780.50 102.56 780.50 Z" fill="#040000" fill-rule="nonzero" node-id="229" stroke="none" target-height="55.799988" target-width="182.89001" target-x="94.62" target-y="724.7"></path><path d="M 104.65 810.30 C 103.53 810.30 102.60 809.44 102.52 808.32 C 102.44 807.20 103.24 806.21 104.35 806.06 L 279.28 780.46 C 280.45 780.29 281.53 781.09 281.70 782.26 C 281.87 783.43 281.07 784.51 279.90 784.68 L 105.00 810.28 C 104.88 810.30 104.77 810.31 104.65 810.30 Z" fill="#040000" fill-rule="nonzero" node-id="231" stroke="none" target-height="30.02002" target-width="179.43" target-x="102.44" target-y="780.29"></path><path d="M 768.85 155.86 L 833.46 162.85" fill="#060001" fill-rule="nonzero" node-id="233" stroke="none" target-height="6.9900055" target-width="64.61005" target-x="768.85" target-y="155.86"></path><path d="M 833.47 165.00 L 833.24 165.00 L 768.62 158.00 C 767.45 157.87 766.61 156.82 766.73 155.65 C 766.88 154.49 767.92 153.66 769.08 153.76 L 833.69 160.76 C 834.82 160.87 835.67 161.85 835.61 162.99 C 835.55 164.13 834.61 165.02 833.47 165.01 Z" fill="#040000" fill-rule="nonzero" node-id="235" stroke="none" target-height="11.360001" target-width="69.06" target-x="766.61" target-y="153.66"></path><path d="M 811.40 106.37 L 772.35 123.55" fill="#060001" fill-rule="nonzero" node-id="237" stroke="none" target-height="17.18" target-width="39.05005" target-x="772.35" target-y="106.37"></path><path d="M 772.35 125.69 C 771.33 125.70 770.45 124.99 770.24 124.00 C 770.03 123.00 770.55 122.00 771.49 121.60 L 810.49 104.41 C 811.55 104.02 812.73 104.52 813.19 105.56 C 813.64 106.59 813.21 107.80 812.21 108.32 L 773.21 125.51 C 772.94 125.63 772.65 125.69 772.35 125.69 Z" fill="#040000" fill-rule="nonzero" node-id="239" stroke="none" target-height="21.68" target-width="43.609985" target-x="770.03" target-y="104.02"></path><path d="M 792.58 61.50 L 754.22 103.56" fill="#060001" fill-rule="nonzero" node-id="241" stroke="none" target-height="42.059998" target-width="38.360046" target-x="754.22" target-y="61.5"></path><path d="M 754.22 105.70 C 753.38 105.69 752.61 105.19 752.27 104.42 C 751.93 103.65 752.08 102.74 752.65 102.12 L 791.00 60.07 C 791.79 59.20 793.14 59.14 794.01 59.93 C 794.88 60.72 794.94 62.07 794.15 62.94 L 755.80 105.00 C 755.40 105.45 754.82 105.70 754.22 105.70 Z" fill="#040000" fill-rule="nonzero" node-id="243" stroke="none" target-height="46.559998" target-width="43.01001" target-x="751.93" target-y="59.14"></path><path d="M 600.62 230.00 C 599.55 230.01 598.63 229.22 598.49 228.15 C 598.35 227.09 599.02 226.08 600.06 225.81 L 647.00 213.05 C 648.13 212.74 649.31 213.41 649.62 214.54 C 649.93 215.67 649.26 216.85 648.13 217.16 L 601.19 230.00 C 601.00 230.02 600.81 230.02 600.62 230.00 Z" fill="#040000" fill-rule="nonzero" node-id="245" stroke="none" target-height="17.279999" target-width="51.580017" target-x="598.35" target-y="212.74"></path></svg>