<svg height="1024" node-id="1" sillyvg="true" template-height="1024" template-width="1024" version="1.1" viewBox="0 0 1024 1024" width="1024" xmlns="http://www.w3.org/2000/svg" xmlns:xlink="http://www.w3.org/1999/xlink"><defs node-id="86"></defs><g node-id="250"><path d="M 805.48 163.00 C 654.88 -4.19 488.81 48.93 365.07 132.68 C 373.32 138.20 381.15 144.98 385.94 152.97 C 387.76 156.01 386.77 159.94 383.73 161.76 C 380.69 163.58 376.76 162.59 374.94 159.55 C 370.58 152.29 362.28 145.81 353.61 140.55 C 350.43 142.79 347.27 145.05 344.16 147.32 C 218.46 239.08 286.50 405.73 286.50 405.73 C 286.50 405.73 329.03 460.78 168.60 541.73 C 101.00 575.86 79.00 642.00 88.00 688.18 C 90.15 698.85 93.72 709.18 98.63 718.90 L 137.29 684.79 C 138.99 683.21 141.42 682.68 143.63 683.40 C 145.84 684.12 147.49 685.99 147.93 688.27 C 148.37 690.56 147.53 692.90 145.75 694.39 L 105.00 730.32 C 131.52 772.80 182.77 805.25 239.42 805.25 L 754.42 786.25 C 754.42 786.25 908.81 723.00 810.36 567.43 C 711.91 411.86 964.71 339.79 805.48 163.00 Z" fill="#8a9ff2" fill-rule="nonzero" group-id="1" node-id="90" stroke="none" target-height="809.44" target-width="885.71" target-x="79" target-y="-4.19"></path></g><path d="M 508.67 492.51 C 478.39 377.31 459.00 198.45 581.46 85.74 C 586.10 81.44 593.19 81.21 598.10 85.19 C 640.65 120.19 820.61 296.78 657.79 671.66 C 657.79 671.66 627.92 735.66 644.99 808.20 L 602.32 821.00 C 602.32 821.00 641.25 764.38 570.85 641.47 C 544.00 594.57 522.41 544.78 508.67 492.51 Z" fill="#040000" fill-rule="nonzero" node-id="93" stroke="none" target-height="739.79" target-width="361.61" target-x="459" target-y="81.21"></path><path d="M 567.11 887.18 L 551.11 873.06 C 645.86 812.15 647.53 576.87 647.53 576.87 C 633.23 434.47 678.00 356.72 678.00 356.72 L 715.26 372.54 L 687.53 344.64 C 710.99 265.19 768.66 239.84 783.46 215.34 C 798.26 190.84 782.60 172.46 782.60 172.46 C 795.02 177.74 805.68 187.15 814.38 197.36 C 836.81 223.68 875.38 279.13 871.16 334.60 C 866.94 390.07 881.77 522.43 567.11 887.18 Z" fill="#ffffff" fill-rule="nonzero" node-id="95" stroke="none" target-height="714.72" target-width="330.66003" target-x="551.11" target-y="172.46"></path><path d="M 567.11 889.31 C 566.59 889.31 566.09 889.12 565.70 888.78 L 549.70 874.66 C 549.20 874.22 548.93 873.57 548.98 872.90 C 549.03 872.23 549.41 871.62 549.98 871.27 C 642.68 811.66 645.40 579.19 645.41 576.85 C 631.21 435.64 675.67 356.44 676.12 355.66 C 676.66 354.73 677.81 354.34 678.80 354.76 L 706.00 366.32 L 686.00 346.15 C 685.45 345.60 685.25 344.79 685.47 344.04 C 701.93 288.29 734.71 259.21 758.64 237.97 C 768.64 229.10 777.27 221.45 781.64 214.23 C 795.43 191.41 781.58 174.55 780.98 173.84 C 780.34 173.09 780.30 171.99 780.89 171.19 C 781.47 170.40 782.53 170.11 783.44 170.50 C 794.74 175.30 805.70 183.87 816.01 195.97 C 834.75 217.97 877.85 275.52 873.30 334.76 C 873.01 338.48 872.81 342.54 872.59 346.99 C 869.64 407.09 862.74 547.82 568.78 888.58 C 568.41 889.01 567.88 889.27 567.31 889.31 Z M 554.62 873.31 L 566.91 884.16 C 858.54 545.69 865.36 406.36 868.28 346.80 C 868.50 342.30 868.70 338.20 868.99 334.44 C 873.43 276.78 831.12 220.34 812.72 198.75 C 804.82 189.48 796.57 182.39 788.12 177.60 C 791.80 185.45 795.37 199.68 785.24 216.45 C 780.55 224.22 772.12 231.70 761.44 241.17 C 738.07 261.90 706.13 290.25 689.89 344.00 L 716.73 371.00 C 717.44 371.72 717.55 372.85 716.98 373.69 C 716.41 374.53 715.33 374.85 714.39 374.46 L 678.92 359.41 C 672.73 371.41 636.72 447.85 649.66 576.61 C 648.72 618.84 644.48 660.94 637.00 702.51 C 620.90 789.53 593.20 847.00 554.62 873.30 Z" fill="#040000" fill-rule="nonzero" node-id="97" stroke="none" target-height="719.2" target-width="328.91998" target-x="548.93" target-y="170.11"></path><path d="M 551.12 875.20 C 550.19 875.19 549.37 874.59 549.09 873.70 C 548.81 872.81 549.14 871.85 549.90 871.31 C 630.20 815.10 675.26 685.31 727.44 535.06 C 742.44 491.86 757.95 447.18 774.99 402.39 C 813.77 300.44 813.42 243.77 806.30 214.18 C 798.67 182.49 781.85 174.49 781.68 174.41 C 780.62 173.92 780.15 172.66 780.62 171.59 C 780.85 171.07 781.27 170.67 781.80 170.47 C 782.33 170.27 782.92 170.28 783.43 170.52 C 786.37 171.83 854.67 204.92 778.97 403.91 C 761.97 448.64 746.46 493.29 731.47 536.46 C 679.05 687.46 633.78 817.80 552.34 874.81 C 551.98 875.06 551.56 875.20 551.12 875.20 Z" fill="#040000" fill-rule="nonzero" node-id="99" stroke="none" target-height="704.93" target-width="305.86" target-x="548.81" target-y="170.27"></path><path d="M 666.00 967.67 C 666.00 967.67 725.39 775.67 697.26 669.00 C 680.68 606.17 619.11 438.60 422.20 468.47 C 225.29 498.34 250.29 643.40 337.81 639.14 C 419.12 635.14 586.81 590.70 662.81 758.91 C 673.55 782.67 676.81 811.36 672.24 838.57 L 650.41 967.67 Z" fill="#ffffff" fill-rule="nonzero" node-id="101" stroke="none" target-height="529.06995" target-width="500.10004" target-x="225.29" target-y="438.6"></path><path d="M 666.00 969.80 L 650.38 969.80 C 649.75 969.80 649.15 969.53 648.75 969.05 C 648.34 968.57 648.17 967.93 648.28 967.31 L 670.10 838.21 C 674.63 811.42 671.25 782.84 660.84 759.79 C 595.72 615.69 463.05 629.16 375.25 638.06 C 361.72 639.43 348.95 640.73 337.92 641.27 C 302.10 642.99 273.74 619.67 270.35 585.77 C 267.89 561.16 278.88 536.29 301.29 515.77 C 327.85 491.41 369.55 474.34 421.88 466.40 C 616.44 436.90 680.71 597.91 699.33 668.50 C 727.33 774.50 668.64 966.42 668.05 968.34 C 667.76 969.22 666.93 969.81 666.00 969.80 Z M 652.89 965.54 L 664.42 965.54 C 669.86 947.32 721.54 769.45 695.19 669.54 C 676.87 600.06 613.59 441.59 422.52 470.54 C 314.06 487.00 270.07 540.07 274.60 585.34 C 277.75 616.91 304.29 638.68 337.71 637.01 C 348.63 636.48 361.35 635.18 374.82 633.82 C 463.82 624.82 598.34 611.13 664.73 758.03 C 675.64 782.19 679.05 810.91 674.31 838.92 Z" fill="#040000" fill-rule="nonzero" node-id="103" stroke="none" target-height="532.91003" target-width="459.44" target-x="267.89" target-y="436.9"></path><path d="M 261.00 799.66 C 261.00 799.66 77.53 479.66 197.00 338.86 C 197.00 338.86 346.33 304.73 444.46 577.80 C 517.38 780.72 418.85 829.53 261.00 799.66 Z" fill="#ffffff" fill-rule="nonzero" node-id="105" stroke="none" target-height="524.80005" target-width="439.85" target-x="77.53" target-y="304.73"></path><path d="M 338.16 809.90 C 315.18 809.90 289.32 807.19 260.59 801.76 C 259.98 801.65 259.45 801.29 259.14 800.76 C 258.68 799.95 212.80 719.44 182.14 622.76 C 153.77 533.15 133.00 411.00 195.36 337.49 C 195.65 337.14 196.06 336.89 196.51 336.79 C 198.07 336.43 235.17 328.38 284.90 354.04 C 367.50 396.67 418.35 498.86 446.46 577.04 C 479.09 667.83 479.20 733.13 446.80 771.11 C 424.78 797.00 388.37 809.90 338.16 809.90 Z M 262.36 797.75 C 351.66 814.49 412.63 804.62 443.55 768.38 C 474.89 731.65 474.55 667.77 442.44 578.52 C 414.64 501.16 364.44 400.10 283.26 357.99 C 238.44 334.75 203.37 339.87 198.13 340.81 C 84.92 475.63 252.00 779.34 262.36 797.75 Z" fill="#040000" fill-rule="nonzero" node-id="107" stroke="none" target-height="486.11" target-width="394.28003" target-x="84.92" target-y="328.38"></path><path d="M 196.99 338.86 L 388.99 799.66" fill="#ffffff" fill-rule="nonzero" node-id="109" stroke="none" target-height="460.8" target-width="191.99998" target-x="196.99" target-y="338.86"></path><path d="M 389.00 801.80 C 388.13 801.81 387.34 801.29 387.00 800.49 L 195.00 339.69 C 194.53 338.59 195.05 337.31 196.16 336.85 C 197.26 336.38 198.53 336.90 199.00 338.00 L 391.00 798.80 C 391.22 799.32 391.22 799.91 391.01 800.43 C 390.79 800.95 390.38 801.37 389.86 801.59 C 389.59 801.72 389.30 801.80 389.00 801.80 Z" fill="#040000" fill-rule="nonzero" node-id="111" stroke="none" target-height="465.43" target-width="196.69" target-x="194.53" target-y="336.38"></path><path d="M 325.00 671.66 C 325.00 671.66 162.85 466.86 94.59 449.80 C 94.59 449.80 86.05 479.66 98.85 496.73 C 98.85 496.73 90.32 513.80 107.39 530.86 C 107.39 530.86 98.85 565.00 120.19 577.80 C 120.19 577.80 124.45 611.93 141.52 624.73 C 141.52 624.73 132.99 650.33 154.32 658.86 C 154.32 658.86 150.05 684.46 175.65 693.00 C 175.65 693.00 167.12 722.86 201.25 731.40 C 201.25 731.40 209.79 761.26 235.39 765.53 C 235.39 765.53 248.19 795.40 273.79 795.40 L 346.32 765.53 Z" fill="#ffffff" fill-rule="nonzero" node-id="113" stroke="none" target-height="345.60004" target-width="260.27002" target-x="86.05" target-y="449.8"></path><path d="M 273.79 797.53 C 249.58 797.53 236.54 772.97 233.91 767.43 C 210.76 762.86 201.47 738.88 199.57 733.16 C 188.80 730.24 181.10 724.90 176.69 717.26 C 171.43 708.15 172.41 698.44 173.16 694.37 C 151.88 686.21 151.62 666.16 152.04 660.20 C 133.88 651.81 137.65 631.20 139.04 625.53 C 123.85 612.94 119.04 584.88 118.17 579.08 C 98.81 566.54 103.68 537.80 105.01 531.53 C 90.72 516.53 94.78 501.38 96.39 497.02 C 84.13 479.21 92.14 450.45 92.49 449.21 C 92.81 448.11 93.94 447.45 95.06 447.73 C 123.79 454.91 171.51 494.60 236.92 565.73 C 285.48 618.51 326.21 669.87 326.62 670.38 C 326.82 670.63 326.96 670.92 327.03 671.23 L 348.36 765.10 C 348.59 766.11 348.05 767.15 347.09 767.54 L 274.60 797.37 C 274.34 797.48 274.07 797.53 273.79 797.53 Z M 96.13 452.43 C 94.55 459.32 90.42 481.94 100.56 495.43 C 101.04 496.08 101.12 496.94 100.76 497.66 C 100.45 498.30 93.19 513.66 108.89 529.34 C 109.41 529.86 109.63 530.62 109.46 531.34 C 109.38 531.67 101.57 564.10 121.28 575.93 C 121.83 576.27 122.20 576.84 122.28 577.49 C 122.28 577.82 126.64 610.88 142.78 622.99 C 143.51 623.54 143.81 624.49 143.52 625.36 C 143.20 626.36 135.90 649.17 155.09 656.84 C 156.02 657.21 156.56 658.18 156.40 659.17 C 156.25 660.17 152.79 683.10 176.31 690.94 C 177.39 691.30 178.00 692.45 177.68 693.54 C 177.68 693.65 174.55 705.05 180.39 715.13 C 184.39 721.97 191.55 726.74 201.75 729.29 C 202.49 729.47 203.07 730.04 203.28 730.77 C 203.37 731.06 211.78 759.40 235.72 763.39 C 236.44 763.51 237.04 763.98 237.33 764.65 C 237.45 764.93 249.75 792.90 273.33 793.22 L 343.80 764.22 L 323.00 672.61 C 315.20 662.80 162.69 472.23 96.13 452.43 Z" fill="#040000" fill-rule="nonzero" node-id="115" stroke="none" target-height="350.08002" target-width="264.46" target-x="84.13" target-y="447.45"></path><path d="M 743.12 842.33 C 743.12 842.33 922.36 859.40 888.19 936.20 C 870.76 975.37 561.65 967.67 561.65 967.67 C 561.65 967.67 542.00 946.16 618.50 910.60 C 691.92 876.46 798.59 906.33 798.59 906.33" fill="#ffffff" fill-rule="nonzero" node-id="117" stroke="none" target-height="133.03998" target-width="380.36" target-x="542" target-y="842.33"></path><path d="M 623.00 970.46 C 589.17 970.46 565.00 969.89 561.59 969.80 C 561.01 969.79 560.46 969.54 560.07 969.11 C 559.91 968.93 556.07 964.63 557.61 956.99 C 559.67 946.71 571.75 929.99 617.61 908.66 C 655.97 890.83 703.32 890.59 736.28 893.54 C 757.50 895.39 778.54 898.98 799.17 904.28 C 800.30 904.60 800.97 905.78 800.65 906.91 C 800.33 908.04 799.15 908.71 798.02 908.39 C 796.96 908.09 691.26 879.13 619.41 912.53 C 573.13 934.05 563.48 950.03 561.86 957.63 C 561.15 960.30 561.48 963.13 562.79 965.56 C 649.15 967.65 872.48 966.27 886.25 935.33 C 891.98 922.44 891.73 910.49 885.49 899.80 C 859.96 856.09 744.09 844.57 742.93 844.45 C 742.37 844.40 741.85 844.13 741.49 843.69 C 741.13 843.25 740.95 842.69 741.01 842.13 C 741.05 841.56 741.32 841.04 741.76 840.68 C 742.20 840.31 742.77 840.15 743.33 840.21 C 748.19 840.67 862.54 852.05 889.17 897.65 C 896.17 909.59 896.47 922.85 890.17 937.06 C 877.13 966.29 714.63 970.46 623.00 970.46 Z" fill="#040000" fill-rule="nonzero" node-id="119" stroke="none" target-height="130.31" target-width="340.39996" target-x="556.07" target-y="840.15"></path><path d="M 986.32 852.93 C 986.32 852.93 864.26 550.00 643.82 709.53 C 643.82 709.53 554.19 788.12 642.16 849.99 C 748.26 924.62 858.17 691.14 986.32 852.93 Z" fill="#ffffff" fill-rule="nonzero" node-id="121" stroke="none" target-height="374.62" target-width="432.13" target-x="554.19" target-y="550"></path><path d="M 688.69 867.40 C 672.69 867.40 656.84 862.92 640.93 851.73 C 615.93 834.18 602.69 813.55 601.45 790.42 C 599.10 746.42 640.65 709.48 642.45 707.93 C 701.36 665.29 758.62 651.65 812.80 667.27 C 925.80 699.85 987.72 850.62 988.33 852.14 C 988.74 853.12 988.35 854.26 987.43 854.79 C 986.51 855.33 985.33 855.10 984.68 854.26 C 912.76 763.50 847.00 798.87 783.43 833.09 C 750.94 850.56 719.64 867.40 688.69 867.40 Z M 768.69 665.29 C 728.75 665.29 687.34 680.66 645.04 711.29 C 644.78 711.53 603.43 748.29 605.68 790.29 C 606.85 812.04 619.52 831.56 643.35 848.29 C 687.94 879.65 733.35 855.23 781.35 829.38 C 843.54 795.92 907.75 761.38 977.93 839.76 C 959.62 801.68 902.20 697.55 811.52 671.41 C 797.61 667.37 783.20 665.31 768.72 665.29 Z" fill="#040000" fill-rule="nonzero" node-id="123" stroke="none" target-height="228" target-width="389.64" target-x="599.1" target-y="651.65"></path><path d="M 986.32 855.07 C 985.58 855.07 984.90 854.69 984.51 854.07 C 936.00 776.26 879.05 734.13 815.40 728.85 C 706.33 719.76 613.51 823.34 612.59 824.39 C 612.10 825.02 611.30 825.32 610.52 825.18 C 609.74 825.04 609.10 824.47 608.86 823.71 C 608.62 822.95 608.83 822.12 609.39 821.56 C 610.33 820.50 704.56 715.36 815.73 724.56 C 880.80 729.95 938.81 772.75 988.13 851.78 C 988.75 852.78 988.45 854.09 987.45 854.72 C 987.11 854.94 986.72 855.06 986.32 855.07 Z" fill="#040000" fill-rule="nonzero" node-id="125" stroke="none" target-height="139.71002" target-width="380.13" target-x="608.62" target-y="715.36"></path><path d="M 755.92 876.46 C 758.92 865.74 752.63 835.34 743.12 829.53 C 703.83 805.53 601.89 766.68 516.99 782.60 C 448.72 795.40 410.73 778.25 367.65 786.86 C 324.99 795.40 239.65 791.13 192.72 850.86 C 145.79 910.59 187.94 944.46 243.92 940.46 C 303.65 936.20 448.72 936.20 448.72 936.20 L 687.65 936.20 C 687.65 936.20 741.73 926.72 755.92 876.46 Z" fill="#040000" fill-rule="nonzero" node-id="127" stroke="none" target-height="177.78003" target-width="613.13" target-x="145.79" target-y="766.68"></path><path d="M 367.57 684.16 L 416.57 684.16 L 416.57 684.16 L 416.57 733.88 L 416.57 733.88 L 367.57 733.88 C 364.50 733.88 362.02 731.40 362.02 728.33 L 362.02 689.71 C 362.02 686.64 364.50 684.16 367.57 684.16 Z" fill="#ffffff" fill-rule="nonzero" node-id="129" stroke="none" target-height="49.72003" target-width="54.55002" target-x="362.02" target-y="684.16"></path><path d="M 416.52 736.00 L 385.70 736.00 C 371.45 735.98 359.90 724.43 359.88 710.18 L 359.88 707.84 C 359.89 693.58 371.44 682.02 385.70 682.00 L 416.52 682.00 C 417.09 682.00 417.63 682.23 418.03 682.63 C 418.43 683.03 418.65 683.57 418.65 684.14 L 418.65 733.85 C 418.66 734.42 418.43 734.97 418.03 735.37 C 417.63 735.77 417.09 736.00 416.52 736.00 Z M 385.70 686.29 C 373.80 686.31 364.16 695.95 364.15 707.85 L 364.15 710.19 C 364.17 722.08 373.81 731.72 385.70 731.74 L 414.39 731.74 L 414.39 686.29 Z" fill="#040000" fill-rule="nonzero" node-id="131" stroke="none" target-height="54" target-width="58.78" target-x="359.88" target-y="682"></path><path d="M 578.94 733.87 L 563.83 733.87 L 560.74 733.58 L 557.91 732.81 L 555.29 731.56 L 552.92 729.88 L 550.90 727.86 L 549.22 725.49 L 547.97 722.87 L 547.20 720.04 L 546.91 716.95 L 546.91 701.08 L 547.20 697.99 L 547.97 695.16 L 549.22 692.54 L 550.90 690.17 L 552.92 688.15 L 555.29 686.47 L 557.91 685.22 L 560.74 684.45 L 563.83 684.16 L 578.94 684.16 L 582.05 684.39 L 584.96 684.98 L 587.70 685.92 L 590.28 687.23 L 592.70 688.86 L 594.83 690.74 L 596.71 692.88 L 598.35 695.29 L 599.65 697.88 L 600.60 700.61 L 601.19 703.52 L 601.42 706.63 L 601.42 711.39 L 601.19 714.50 L 600.60 717.41 L 599.66 720.15 L 598.35 722.74 L 596.72 725.15 L 594.84 727.29 L 592.70 729.17 L 590.29 730.80 L 587.70 732.11 L 584.96 733.05 L 582.05 733.64 L 578.94 733.87 Z" fill="#ffffff" fill-rule="nonzero" group-id="2" node-id="135" stroke="none" target-height="49.710022" target-width="54.51001" target-x="546.91" target-y="684.16"></path><path d="M 577.72 736.00 L 546.90 736.00 C 545.72 735.99 544.77 735.04 544.77 733.86 L 544.77 684.16 C 544.76 683.59 544.99 683.04 545.39 682.64 C 545.79 682.23 546.33 682.00 546.90 682.00 L 577.72 682.00 C 591.98 682.02 603.53 693.57 603.54 707.83 L 603.54 710.17 C 603.53 724.43 591.98 735.98 577.72 736.00 Z M 549.00 731.74 L 577.68 731.74 C 589.58 731.73 599.22 722.09 599.24 710.19 L 599.24 707.85 C 599.23 695.95 589.58 686.30 577.68 686.29 L 549.00 686.29 Z" fill="#040000" fill-rule="nonzero" node-id="138" stroke="none" target-height="54" target-width="58.77997" target-x="544.76" target-y="682"></path><path d="M 585.25 706.07 C 585.25 706.07 569.85 702.71 565.05 712.52" fill="#ffffff" fill-rule="nonzero" node-id="140" stroke="none" target-height="9.809998" target-width="20.200012" target-x="565.05" target-y="702.71"></path><path d="M 565.00 714.65 C 564.68 714.65 564.36 714.57 564.07 714.43 C 563.56 714.19 563.17 713.75 562.98 713.21 C 562.79 712.68 562.82 712.09 563.07 711.58 C 568.55 700.39 584.95 703.83 585.65 703.99 C 586.80 704.24 587.53 705.37 587.28 706.52 C 587.02 707.67 585.89 708.39 584.74 708.15 C 584.60 708.15 570.91 705.28 566.90 713.46 C 566.54 714.18 565.81 714.64 565.00 714.65 Z" fill="#040000" fill-rule="nonzero" node-id="142" stroke="none" target-height="14.26001" target-width="24.740051" target-x="562.79" target-y="700.39"></path><path d="M 462.38 601.70 L 501.05 601.70 C 537.54 601.70 567.13 631.29 567.13 667.78 L 567.13 730.92 C 567.13 778.10 528.89 816.34 481.71 816.34 L 481.71 816.34 C 434.53 816.34 396.29 778.10 396.29 730.92 L 396.29 667.78 C 396.29 631.29 425.88 601.70 462.37 601.70 Z" fill="#ffffff" fill-rule="nonzero" node-id="144" stroke="none" target-height="214.64001" target-width="170.84" target-x="396.29" target-y="601.7"></path><path d="M 484.63 818.47 L 478.80 818.47 C 432.08 818.41 394.22 780.55 394.16 733.83 L 394.16 601.70 C 394.16 600.52 395.12 599.56 396.30 599.56 L 567.13 599.56 C 567.70 599.56 568.24 599.79 568.64 600.19 C 569.04 600.59 569.26 601.13 569.26 601.70 L 569.26 733.83 C 569.21 780.55 531.35 818.41 484.63 818.47 Z M 398.43 603.83 L 398.43 733.83 C 398.48 778.20 434.43 814.15 478.80 814.20 L 484.63 814.20 C 529.00 814.15 564.95 778.20 565.00 733.83 L 565.00 603.83 Z" fill="#040000" fill-rule="nonzero" node-id="146" stroke="none" target-height="218.90997" target-width="175.1" target-x="394.16" target-y="599.56"></path><path d="M 588.05 571.82 C 588.12 571.04 588.17 570.27 588.17 569.47 C 588.17 554.64 575.36 542.62 559.55 542.62 C 555.77 542.62 552.01 543.32 548.49 544.70 C 539.80 536.25 526.76 530.86 512.16 530.86 C 497.16 530.86 483.75 536.59 475.07 545.48 C 467.20 538.34 456.94 534.42 446.31 534.48 C 429.38 534.48 414.85 544.07 408.53 557.77 C 404.66 556.12 400.50 555.26 396.30 555.26 C 380.14 555.26 366.77 567.61 364.19 583.81 C 352.61 589.03 344.66 599.60 344.66 611.81 C 344.66 625.88 355.17 637.81 369.66 641.81 C 374.36 654.33 385.73 663.13 399.03 664.53 C 412.33 665.94 425.28 659.72 432.50 648.46 C 448.04 658.32 468.32 656.20 481.50 643.35 C 489.01 654.13 500.92 661.13 514.37 661.13 C 524.79 661.07 534.76 656.87 542.09 649.47 C 549.77 653.92 558.49 656.26 567.36 656.24 C 593.76 656.24 615.16 636.34 615.16 611.80 C 615.12 594.18 604.05 579.00 588.05 571.82 Z" fill="#040000" fill-rule="nonzero" node-id="148" stroke="none" target-height="135.08002" target-width="270.49997" target-x="344.66" target-y="530.86"></path><path d="M 376.09 706.07 C 376.09 706.07 391.49 702.71 396.30 712.52" fill="#ffffff" fill-rule="nonzero" node-id="150" stroke="none" target-height="9.809998" target-width="20.209991" target-x="376.09" target-y="702.71"></path><path d="M 396.30 714.65 C 395.48 714.65 394.74 714.19 394.38 713.45 C 390.38 705.28 376.68 708.12 376.54 708.15 C 375.78 708.35 374.98 708.11 374.45 707.54 C 373.91 706.97 373.73 706.15 373.98 705.41 C 374.23 704.67 374.87 704.12 375.64 703.99 C 376.33 703.83 392.74 700.40 398.21 711.58 C 398.46 712.09 398.49 712.68 398.30 713.21 C 398.11 713.75 397.72 714.19 397.21 714.43 C 396.93 714.57 396.62 714.65 396.30 714.65 Z" fill="#040000" fill-rule="nonzero" node-id="152" stroke="none" target-height="14.25" target-width="24.75998" target-x="373.73" target-y="700.4"></path><path d="M 98.41 377.51 C 82.41 377.51 64.63 368.04 63.70 367.51 C 62.79 366.90 62.48 365.70 63.00 364.72 C 63.51 363.75 64.68 363.33 65.70 363.75 C 65.97 363.90 92.51 378.08 108.18 371.48 C 112.29 369.79 115.54 366.50 117.18 362.37 C 111.39 360.98 106.44 357.22 104.33 353.37 C 102.83 350.65 102.79 347.94 104.22 345.93 C 106.42 342.84 108.86 341.16 111.46 340.93 C 113.87 340.75 116.21 341.78 118.46 344.02 C 122.18 347.88 123.81 353.30 122.82 358.57 C 129.45 358.14 134.82 353.26 138.45 344.46 C 138.90 343.37 140.14 342.85 141.24 343.29 C 142.33 343.74 142.85 344.99 142.40 346.08 C 137.00 359.40 128.82 362.59 123.00 362.93 C 122.53 362.93 122.07 362.93 121.62 362.93 C 119.67 368.56 115.41 373.10 109.91 375.41 C 106.26 376.87 102.35 377.58 98.41 377.51 Z M 112.00 345.26 L 111.79 345.26 C 110.19 345.39 108.67 347.08 107.68 348.47 C 107.08 349.31 107.68 350.64 108.05 351.36 C 109.69 354.31 113.79 357.31 118.50 358.36 C 119.41 354.34 118.24 350.12 115.39 347.14 C 114.55 346.10 113.33 345.42 112.00 345.26 Z" fill="#231815" fill-rule="nonzero" node-id="154" stroke="none" target-height="37.329987" target-width="80.37001" target-x="62.48" target-y="340.75"></path><path d="M 948.82 605.82 C 944.04 605.82 939.64 602.46 935.74 595.82 C 932.65 590.57 929.50 587.82 926.61 587.74 L 926.54 587.74 C 922.90 587.74 919.81 592.03 918.64 593.89 C 916.94 596.77 914.76 599.34 912.20 601.49 C 904.74 607.35 896.84 606.34 890.50 598.73 C 887.37 594.96 884.37 593.05 881.59 593.05 C 878.81 593.05 876.66 594.96 875.32 596.57 C 872.32 600.15 869.43 602.47 866.43 603.66 C 862.13 605.37 855.69 606.03 849.43 599.44 C 846.93 596.83 844.43 595.61 841.87 595.86 C 836.96 596.30 833.25 601.86 833.21 601.86 C 832.56 602.85 831.24 603.12 830.26 602.47 C 829.27 601.83 828.99 600.51 829.64 599.52 C 829.84 599.22 834.49 592.22 841.46 591.58 C 845.33 591.24 849.06 592.86 852.51 596.46 C 856.25 600.37 860.42 601.46 864.91 599.66 C 867.23 598.74 869.58 596.82 872.09 593.81 C 874.01 591.50 877.23 588.75 881.64 588.75 C 885.74 588.75 889.84 591.18 893.83 595.97 C 898.75 601.88 903.92 602.58 909.61 598.11 C 911.79 596.26 913.63 594.05 915.08 591.59 C 917.00 588.59 921.08 583.44 926.59 583.44 L 926.72 583.44 C 931.24 583.51 935.53 586.93 939.47 593.62 C 942.54 598.86 945.71 601.51 948.87 601.51 L 948.93 601.51 C 953.49 601.51 957.68 595.77 958.93 593.58 C 959.50 592.55 960.80 592.19 961.83 592.76 C 962.86 593.33 963.22 594.63 962.65 595.66 C 962.42 596.07 956.97 605.66 949.00 605.77 Z" fill="#040000" fill-rule="nonzero" node-id="156" stroke="none" target-height="23.909973" target-width="134.22998" target-x="828.99" target-y="583.44"></path><path d="M 948.82 631.13 C 944.04 631.13 939.64 627.77 935.74 621.13 C 932.65 615.89 929.50 613.13 926.61 613.05 L 926.54 613.05 C 922.90 613.05 919.81 617.35 918.64 619.21 C 916.94 622.09 914.76 624.66 912.20 626.80 C 904.74 632.66 896.84 631.65 890.50 624.04 C 887.37 620.27 884.37 618.36 881.59 618.36 C 878.81 618.36 876.66 620.28 875.32 621.88 C 872.32 625.46 869.43 627.78 866.43 628.97 C 862.13 630.68 855.69 631.34 849.43 624.75 C 846.93 622.15 844.43 620.94 841.87 621.17 C 836.96 621.62 833.25 627.17 833.21 627.17 C 832.57 628.16 831.25 628.43 830.26 627.79 C 829.27 627.15 829.00 625.83 829.64 624.84 C 829.84 624.54 834.49 617.54 841.46 616.84 C 845.33 616.48 849.06 618.12 852.51 621.72 C 856.25 625.63 860.42 626.72 864.91 624.93 C 867.23 624.00 869.58 622.09 872.09 619.07 C 874.01 616.77 877.23 614.07 881.64 614.07 C 885.74 614.07 889.84 616.49 893.83 621.28 C 898.75 627.20 903.92 627.90 909.61 623.42 C 911.75 621.59 913.57 619.42 915.00 617.00 C 916.92 613.94 921.00 608.84 926.51 608.84 L 926.64 608.84 C 931.16 608.90 935.45 612.33 939.39 619.02 C 942.46 624.25 945.63 626.90 948.79 626.90 L 948.85 626.90 C 953.41 626.90 957.60 621.16 958.85 618.97 C 959.42 617.94 960.72 617.58 961.75 618.15 C 962.78 618.72 963.14 620.02 962.57 621.05 C 962.34 621.46 956.89 631.05 948.92 631.17 Z" fill="#040000" fill-rule="nonzero" node-id="158" stroke="none" target-height="23.819946" target-width="134.14001" target-x="829" target-y="608.84"></path><path d="M 305.89 184.13 C 301.11 184.13 296.71 180.78 292.81 174.13 C 289.73 168.89 286.57 166.13 283.68 166.05 L 283.62 166.05 C 279.98 166.05 276.88 170.35 275.72 172.21 C 274.02 175.09 271.84 177.66 269.27 179.81 C 261.82 185.66 253.92 184.66 247.58 177.05 C 244.44 173.28 241.44 171.37 238.67 171.37 L 238.67 171.37 C 235.92 171.37 233.74 173.28 232.41 174.89 C 229.41 178.47 226.52 180.79 223.52 181.98 C 219.21 183.68 212.77 184.34 206.46 177.76 C 203.96 175.15 201.39 173.92 198.89 174.18 C 194.02 174.63 190.29 180.18 190.25 180.18 C 189.61 181.17 188.29 181.44 187.30 180.80 C 186.31 180.16 186.04 178.84 186.68 177.85 C 186.87 177.55 191.52 170.55 198.49 169.91 C 202.36 169.55 206.10 171.19 209.55 174.79 C 213.29 178.70 217.46 179.79 221.94 177.99 C 224.26 177.07 226.61 175.15 229.13 172.14 C 231.05 169.83 234.26 167.08 238.67 167.08 L 238.67 167.08 C 242.77 167.08 246.87 169.51 250.86 174.30 C 255.78 180.21 260.94 180.91 266.63 176.43 C 268.81 174.61 270.66 172.44 272.10 170.00 C 274.04 166.92 278.05 161.85 283.74 161.85 C 288.27 161.91 292.55 165.34 296.49 172.03 C 299.57 177.26 302.73 179.92 305.89 179.92 L 306.00 179.92 C 310.57 179.87 314.75 174.18 316.00 171.98 C 316.61 171.03 317.85 170.72 318.84 171.27 C 319.82 171.82 320.21 173.04 319.73 174.06 C 319.50 174.47 314.05 184.06 306.08 184.18 Z" fill="#040000" fill-rule="nonzero" node-id="160" stroke="none" target-height="23.809998" target-width="134.17" target-x="186.04" target-y="161.85"></path><path d="M 305.89 209.45 C 301.11 209.45 296.71 206.09 292.81 199.45 C 289.73 194.20 286.57 191.45 283.68 191.37 L 283.62 191.37 C 279.98 191.37 276.88 195.67 275.72 197.52 C 274.02 200.41 271.84 202.98 269.27 205.12 C 261.82 210.97 253.92 209.97 247.58 202.36 C 244.44 198.59 241.44 196.68 238.67 196.68 L 238.67 196.68 C 235.92 196.68 233.74 198.60 232.41 200.20 C 229.41 203.78 226.52 206.10 223.52 207.29 C 219.21 208.99 212.77 209.65 206.46 203.07 C 203.96 200.46 201.39 199.23 198.89 199.49 C 194.02 199.94 190.29 205.49 190.25 205.49 C 189.61 206.48 188.29 206.75 187.30 206.11 C 186.31 205.47 186.04 204.15 186.68 203.16 C 186.87 202.86 191.52 195.86 198.49 195.21 C 202.36 194.87 206.10 196.49 209.55 200.09 C 213.29 204.00 217.46 205.09 221.94 203.30 C 224.26 202.37 226.61 200.46 229.13 197.44 C 231.05 195.14 234.26 192.44 238.67 192.44 L 238.67 192.44 C 242.77 192.44 246.87 194.86 250.86 199.65 C 255.78 205.56 260.94 206.26 266.63 201.79 C 268.81 199.95 270.66 197.75 272.10 195.28 C 274.04 192.20 278.05 187.14 283.74 187.12 C 288.27 187.19 292.55 190.61 296.49 197.31 C 299.59 202.57 302.87 205.13 305.95 205.19 C 310.52 205.19 314.70 199.45 315.95 197.26 C 316.56 196.31 317.80 196.00 318.79 196.55 C 319.77 197.10 320.16 198.32 319.68 199.34 C 319.45 199.75 314.00 209.34 306.03 209.46 Z" fill="#040000" fill-rule="nonzero" node-id="162" stroke="none" target-height="23.850006" target-width="134.12001" target-x="186.04" target-y="187.12"></path><path d="M 869.00 191.66 C 862.09 191.66 855.87 187.51 853.22 181.13 C 850.58 174.75 852.04 167.40 856.92 162.52 C 861.80 157.64 869.15 156.18 875.53 158.82 C 881.91 161.47 886.06 167.69 886.06 174.60 C 886.05 184.02 878.42 191.65 869.00 191.66 Z M 869.00 161.80 C 861.93 161.80 856.20 167.53 856.20 174.60 C 856.20 181.67 861.93 187.40 869.00 187.40 C 876.07 187.40 881.80 181.67 881.80 174.60 C 881.79 167.53 876.07 161.81 869.00 161.80 Z" fill="#040000" fill-rule="nonzero" node-id="164" stroke="none" target-height="35.48001" target-width="35.47998" target-x="850.58" target-y="156.18"></path><path d="M 348.45 289.80 C 336.66 289.80 327.11 280.25 327.11 268.46 C 327.11 256.67 336.66 247.12 348.45 247.12 C 360.24 247.12 369.79 256.67 369.79 268.46 C 369.78 280.24 360.23 289.79 348.45 289.80 Z M 348.45 251.40 C 341.54 251.40 335.32 255.56 332.68 261.94 C 330.04 268.32 331.50 275.66 336.38 280.54 C 341.27 285.43 348.61 286.88 354.99 284.24 C 361.37 281.59 365.52 275.37 365.52 268.46 C 365.51 259.04 357.87 251.41 348.45 251.40 Z" fill="#040000" fill-rule="nonzero" node-id="166" stroke="none" target-height="42.679993" target-width="42.680023" target-x="327.11" target-y="247.12"></path><path d="M 542.59 706.45 C 542.06 706.45 541.54 706.25 541.15 705.89 C 525.43 691.54 505.48 703.24 505.28 703.36 C 504.27 703.96 502.96 703.64 502.36 702.62 C 501.75 701.61 502.08 700.30 503.09 699.70 C 503.32 699.57 525.99 686.27 544.03 702.70 C 544.67 703.30 544.89 704.23 544.57 705.04 C 544.25 705.86 543.47 706.40 542.59 706.41 Z" fill="#040000" fill-rule="nonzero" node-id="168" stroke="none" target-height="20.179993" target-width="43.140015" target-x="501.75" target-y="686.27"></path><path d="M 478.74 763.14 C 464.15 763.14 451.94 754.61 451.74 754.47 C 450.78 753.79 450.55 752.46 451.24 751.50 C 451.92 750.53 453.25 750.31 454.21 750.99 C 455.37 751.82 482.75 770.85 502.54 747.10 C 503.29 746.19 504.64 746.07 505.54 746.83 C 506.45 747.58 506.57 748.92 505.82 749.83 C 497.37 760.00 487.61 763.14 478.74 763.14 Z" fill="#040000" fill-rule="nonzero" node-id="170" stroke="none" target-height="24.779968" target-width="56.02002" target-x="450.55" target-y="746.07"></path><path d="M 525.52 746.33 C 505.49 746.33 489.25 730.09 489.25 710.06 C 489.25 690.03 505.49 673.79 525.52 673.79 C 545.55 673.79 561.79 690.03 561.79 710.06 C 561.77 730.08 545.54 746.31 525.52 746.33 Z M 525.52 678.06 C 507.85 678.06 493.52 692.39 493.52 710.06 C 493.52 727.73 507.85 742.06 525.52 742.06 C 543.19 742.06 557.52 727.73 557.52 710.06 C 557.52 692.39 543.19 678.06 525.52 678.06 Z" fill="#040000" fill-rule="nonzero" node-id="172" stroke="none" target-height="72.54004" target-width="72.53998" target-x="489.25" target-y="673.79"></path><path d="M 427.39 746.33 C 412.72 746.33 399.49 737.50 393.87 723.95 C 388.26 710.39 391.36 694.79 401.73 684.42 C 412.10 674.04 427.70 670.94 441.26 676.55 C 454.81 682.16 463.65 695.39 463.65 710.06 C 463.63 730.08 447.41 746.30 427.39 746.33 Z M 427.39 678.06 C 409.72 678.06 395.39 692.39 395.39 710.06 C 395.39 727.73 409.72 742.06 427.39 742.06 C 445.06 742.06 459.39 727.73 459.39 710.06 C 459.39 692.39 445.06 678.06 427.39 678.06 Z" fill="#040000" fill-rule="nonzero" node-id="174" stroke="none" target-height="75.390015" target-width="75.389984" target-x="388.26" target-y="670.94"></path><path d="M 461.52 707.93 C 460.58 707.93 459.74 707.32 459.47 706.42 C 459.20 705.51 459.55 704.54 460.34 704.02 C 474.00 694.90 491.59 703.52 492.34 703.89 C 493.31 704.46 493.68 705.69 493.17 706.69 C 492.67 707.70 491.47 708.15 490.43 707.71 C 490.28 707.63 474.30 699.84 462.70 707.57 C 462.35 707.80 461.94 707.93 461.52 707.93 Z" fill="#040000" fill-rule="nonzero" node-id="176" stroke="none" target-height="13.25" target-width="34.47998" target-x="459.2" target-y="694.9"></path><path d="M 298.21 721.10 C 298.21 721.10 164.05 869.35 164.56 933.91 C 165.07 998.47 245.39 956.91 257.50 920.76 C 269.61 884.61 331.36 742.26 331.36 742.26 Z" fill="#ffffff" fill-rule="nonzero" node-id="178" stroke="none" target-height="277.37" target-width="167.30998" target-x="164.05" target-y="721.1"></path><path d="M 191.41 969.79 C 189.63 969.79 187.85 969.66 186.09 969.38 C 175.41 967.69 162.64 960.16 162.43 933.93 C 161.92 869.28 291.12 725.74 296.63 719.66 C 297.33 718.89 298.48 718.74 299.35 719.30 L 332.51 740.46 C 333.40 741.02 333.74 742.15 333.32 743.11 C 332.70 744.53 271.48 885.75 259.53 921.44 C 251.44 945.58 216.35 969.79 191.41 969.79 Z M 298.59 723.87 C 285.24 738.87 166.22 874.13 166.69 933.87 C 166.84 952.27 173.78 963.09 186.75 965.15 C 209.57 968.77 247.49 943.92 255.48 920.07 C 266.78 886.33 321.71 759.17 328.69 743.07 Z" fill="#040000" fill-rule="nonzero" node-id="180" stroke="none" target-height="251.04999" target-width="171.81999" target-x="161.92" target-y="718.74"></path><path d="M 342.05 675.93 L 371.92 641.80 C 371.92 641.80 410.32 624.73 423.12 658.86 L 431.65 697.26 Z" fill="#ffffff" fill-rule="nonzero" node-id="182" stroke="none" target-height="72.53003" target-width="89.600006" target-x="342.05" target-y="624.73"></path><path d="M 431.65 699.40 C 431.48 699.40 431.32 699.38 431.16 699.34 L 341.56 678.00 C 340.83 677.82 340.25 677.28 340.02 676.57 C 339.79 675.86 339.95 675.08 340.45 674.52 L 370.31 640.38 C 370.52 640.15 370.77 639.97 371.05 639.84 C 371.85 639.49 390.77 631.24 407.05 638.08 C 415.35 641.55 421.42 648.29 425.10 658.08 L 433.72 696.77 C 433.88 697.49 433.65 698.25 433.13 698.77 C 432.74 699.16 432.21 699.39 431.65 699.40 Z M 346.00 674.68 L 428.84 694.40 L 421.00 659.33 C 417.87 651.00 412.60 645.00 405.44 642.00 C 392.09 636.39 375.97 642.42 373.20 643.55 Z" fill="#040000" fill-rule="nonzero" node-id="184" stroke="none" target-height="68.160034" target-width="94.09" target-x="339.79" target-y="631.24"></path><path d="M 438.16 713.35 C 435.80 687.43 417.28 665.14 391.76 660.00 C 388.04 659.24 384.25 658.86 380.45 658.86 C 377.02 658.86 373.58 659.08 370.18 659.54 C 357.03 661.36 344.88 667.57 335.71 677.17 C 325.30 687.93 310.62 705.09 307.92 718.60 L 431.65 765.53 L 440.19 735.66 Z" fill="#ffffff" fill-rule="nonzero" node-id="186" stroke="none" target-height="106.670044" target-width="132.26999" target-x="307.92" target-y="658.86"></path><path d="M 431.65 767.66 C 431.39 767.66 431.14 767.62 430.90 767.53 L 307.16 720.59 C 306.19 720.22 305.63 719.20 305.83 718.18 C 308.57 704.45 322.76 687.50 334.18 675.69 C 343.70 665.76 356.28 659.33 369.90 657.42 C 377.30 656.36 384.83 656.52 392.18 657.91 C 418.02 663.11 437.80 685.83 440.28 713.15 L 442.28 735.47 C 442.30 735.73 442.28 736.00 442.21 736.25 L 433.67 766.12 C 433.42 767.04 432.57 767.67 431.62 767.66 Z M 310.43 717.27 L 430.24 762.71 L 438.00 735.46 L 436.00 713.54 L 436.00 713.54 C 433.69 688.08 415.31 666.93 391.31 662.09 C 384.42 660.80 377.37 660.65 370.43 661.65 C 357.76 663.42 346.06 669.41 337.21 678.65 C 322.56 693.84 313.12 707.45 310.43 717.27 Z" fill="#040000" fill-rule="nonzero" node-id="188" stroke="none" target-height="111.31" target-width="136.66998" target-x="305.63" target-y="656.36"></path><path d="M 371.92 779.40 C 347.22 779.40 327.12 761.69 327.12 739.93 C 327.12 718.17 347.22 700.46 371.92 700.46 C 396.62 700.46 416.72 718.17 416.72 739.93 C 416.72 761.69 396.62 779.40 371.92 779.40 Z M 371.92 704.73 C 349.57 704.73 331.39 720.52 331.39 739.93 C 331.39 759.34 349.57 775.13 371.92 775.13 C 394.27 775.13 412.45 759.34 412.45 739.93 C 412.45 720.52 394.27 704.73 371.92 704.73 Z" fill="#040000" fill-rule="nonzero" node-id="190" stroke="none" target-height="78.94" target-width="89.600006" target-x="327.12" target-y="700.46"></path><path d="M 192.72 620.46 L 222.59 624.73" fill="#ffffff" fill-rule="nonzero" node-id="192" stroke="none" target-height="4.2699585" target-width="29.869995" target-x="192.72" target-y="620.46"></path><path d="M 222.59 626.86 C 222.49 626.87 222.38 626.87 222.28 626.86 L 192.42 622.60 C 191.31 622.37 190.57 621.32 190.73 620.20 C 190.89 619.08 191.89 618.28 193.02 618.37 L 222.89 622.64 C 224.00 622.79 224.80 623.78 224.72 624.90 C 224.64 626.02 223.71 626.88 222.59 626.88 Z" fill="#040000" fill-rule="nonzero" node-id="194" stroke="none" target-height="8.599976" target-width="34.229996" target-x="190.57" target-y="618.28"></path><path d="M 201.25 654.60 L 248.19 646.06" fill="#ffffff" fill-rule="nonzero" node-id="196" stroke="none" target-height="8.539978" target-width="46.940002" target-x="201.25" target-y="646.06"></path><path d="M 201.25 656.73 C 200.14 656.74 199.20 655.90 199.10 654.79 C 199.00 653.68 199.77 652.69 200.87 652.50 L 247.80 644.00 C 248.96 643.79 250.07 644.55 250.28 645.71 C 250.49 646.87 249.73 647.98 248.57 648.19 L 201.63 656.73 C 201.50 656.74 201.38 656.74 201.25 656.73 Z" fill="#040000" fill-rule="nonzero" node-id="198" stroke="none" target-height="12.950012" target-width="51.490005" target-x="199" target-y="643.79"></path><path d="M 235.39 701.53 L 265.25 663.13" fill="#ffffff" fill-rule="nonzero" node-id="200" stroke="none" target-height="38.400024" target-width="29.86" target-x="235.39" target-y="663.13"></path><path d="M 235.38 703.66 C 234.91 703.66 234.45 703.50 234.08 703.21 C 233.63 702.86 233.34 702.35 233.27 701.79 C 233.19 701.23 233.35 700.66 233.70 700.21 L 263.57 661.81 C 264.29 660.88 265.63 660.71 266.56 661.44 C 267.50 662.16 267.66 663.50 266.94 664.43 L 237.07 702.83 C 236.67 703.35 236.04 703.66 235.38 703.66 Z" fill="#040000" fill-rule="nonzero" node-id="202" stroke="none" target-height="42.94995" target-width="34.47" target-x="233.19" target-y="660.71"></path><path d="M 18.40 929.40 L 1005.59 929.40 L 1005.59 967.68 L 18.40 967.68 Z" fill="#ffffff" fill-rule="nonzero" node-id="204" stroke="none" target-height="38.27997" target-width="987.19" target-x="18.4" target-y="929.4"></path><path d="M 1005.60 969.80 L 18.41 969.80 C 17.85 969.79 17.32 969.56 16.94 969.16 C 16.55 968.76 16.34 968.23 16.35 967.67 L 16.35 929.40 C 16.34 928.84 16.55 928.30 16.94 927.90 C 17.32 927.50 17.85 927.27 18.41 927.26 L 1005.60 927.26 C 1006.74 927.31 1007.62 928.26 1007.60 929.40 L 1007.60 967.67 C 1007.62 968.81 1006.73 969.75 1005.60 969.80 Z M 20.46 965.54 L 1003.54 965.54 L 1003.54 931.54 L 20.46 931.54 Z" fill="#040000" fill-rule="nonzero" node-id="206" stroke="none" target-height="42.539978" target-width="991.27997" target-x="16.34" target-y="927.26"></path><path d="M 371.92 680.20 C 369.80 680.20 367.71 680.31 365.64 680.48 C 365.02 680.48 364.41 680.60 363.79 680.66 C 362.28 680.82 360.79 681.02 359.31 681.26 C 358.70 681.36 358.09 681.45 357.49 681.56 C 355.49 681.93 353.58 682.35 351.68 682.87 L 351.26 683.00 C 349.49 683.49 347.76 684.00 346.06 684.66 C 345.45 684.88 344.85 685.12 344.25 685.35 C 342.98 685.85 341.73 686.35 340.50 686.93 C 339.92 687.20 339.34 687.45 338.77 687.73 C 337.10 688.55 335.45 689.41 333.86 690.34 C 318.36 699.47 307.45 714.03 304.52 730.89 L 304.52 730.89 C 304.28 732.27 304.06 733.66 303.93 735.07 C 303.75 736.68 303.66 738.31 303.65 739.93 C 303.65 772.93 334.22 799.66 371.92 799.66 C 409.62 799.66 440.19 772.92 440.19 739.93 C 440.19 706.94 409.62 680.20 371.92 680.20 Z" fill="#040000" fill-rule="nonzero" node-id="208" stroke="none" target-height="119.45996" target-width="136.54001" target-x="303.65" target-y="680.2"></path><path d="M 371.92 801.80 C 333.10 801.80 301.52 774.04 301.52 739.93 C 301.53 738.23 301.62 736.53 301.81 734.84 C 301.94 733.40 302.17 731.96 302.42 730.53 C 305.42 713.43 316.42 698.11 332.78 688.53 C 334.42 687.53 336.11 686.68 337.84 685.84 L 339.18 685.22 L 339.62 685.02 C 340.88 684.45 342.17 683.91 343.48 683.40 C 344.35 683.06 344.84 682.87 345.34 682.69 C 347.09 682.06 348.87 681.48 350.68 680.97 L 351.12 680.84 C 353.07 680.31 355.07 679.84 357.12 679.50 L 358.99 679.18 C 360.50 678.93 361.99 678.73 363.59 678.57 L 365.49 678.38 C 367.62 678.21 369.76 678.09 371.94 678.09 C 410.76 678.09 442.34 705.85 442.34 739.96 C 442.34 774.07 410.74 801.80 371.92 801.80 Z M 351.25 683.00 L 351.83 685.06 C 350.11 685.53 348.43 686.06 346.78 686.67 L 345.41 687.19 C 343.79 687.82 342.58 688.33 341.41 688.88 L 339.73 689.65 C 338.10 690.44 336.50 691.27 334.96 692.18 C 319.72 701.18 309.40 715.40 306.64 731.26 C 306.41 732.58 306.20 733.91 306.08 735.26 C 305.91 736.81 305.81 738.37 305.81 739.93 C 305.81 771.69 335.47 797.53 371.94 797.53 C 408.41 797.53 438.07 771.69 438.07 739.93 C 438.07 708.17 408.41 682.33 371.94 682.33 C 369.87 682.33 367.84 682.44 365.83 682.60 L 364.46 682.74 L 364.03 682.74 C 362.56 682.89 361.11 683.09 359.67 683.32 L 357.91 683.62 C 355.99 683.98 354.10 684.39 352.25 684.89 Z" fill="#040000" fill-rule="nonzero" node-id="210" stroke="none" target-height="123.70996" target-width="140.82" target-x="301.52" target-y="678.09"></path><path d="M 333.69 679.29 C 334.38 678.56 335.05 677.85 335.69 677.17 C 339.12 673.62 342.96 670.51 347.14 667.89 C 346.86 667.72 346.58 667.59 346.30 667.40 C 336.50 660.85 334.22 671.87 333.69 679.29 Z" fill="none" node-id="212" stroke="none" target-height="18.440002" target-width="13.450012" target-x="333.69" target-y="660.85"></path><path d="M 371.09 650.45 C 366.39 639.16 350.59 641.80 350.59 641.80 C 303.65 646.06 295.12 727.13 295.12 727.13 L 304.52 730.89 C 305.25 726.69 306.47 722.60 308.17 718.69 L 307.92 718.60 C 310.45 705.94 323.50 690.09 333.69 679.29 C 334.22 671.87 336.50 660.85 346.32 667.40 C 346.60 667.59 346.88 667.72 347.16 667.89 C 351.58 670.54 356.96 671.06 361.80 669.29 C 366.42 667.74 370.02 664.06 371.47 659.41 C 372.40 656.47 372.26 653.30 371.09 650.45 Z" fill="#ffffff" fill-rule="nonzero" node-id="214" stroke="none" target-height="91.73004" target-width="77.28" target-x="295.12" target-y="639.16"></path><path d="M 304.52 733.00 C 304.25 733.00 303.98 732.95 303.73 732.85 L 294.33 729.09 C 293.44 728.74 292.90 727.84 293.00 726.89 C 293.35 723.51 302.27 644.03 350.39 639.65 C 350.94 639.56 367.77 636.91 373.06 649.65 L 373.06 649.65 C 374.43 652.96 374.59 656.64 373.51 660.05 C 371.87 665.36 367.78 669.56 362.51 671.33 C 357.08 673.29 351.05 672.71 346.10 669.74 C 345.78 669.57 345.47 669.39 345.17 669.19 C 342.88 667.66 341.09 667.19 339.86 667.81 C 337.76 668.81 336.30 673.08 335.86 679.46 C 335.82 679.95 335.62 680.41 335.28 680.77 C 325.28 691.33 312.98 706.32 310.21 718.30 C 310.35 718.71 310.35 719.15 310.21 719.56 C 308.59 723.32 307.41 727.25 306.70 731.28 C 306.52 732.30 305.63 733.04 304.60 733.04 Z M 297.44 725.74 L 302.93 727.94 C 303.63 724.81 304.59 721.74 305.82 718.77 C 305.79 718.57 305.79 718.36 305.82 718.16 C 308.39 705.28 321.14 689.51 331.61 678.36 C 332.28 670.52 334.41 665.67 337.94 663.94 C 340.64 662.62 343.86 663.18 347.49 665.60 L 348.26 666.04 C 352.14 668.37 356.86 668.82 361.11 667.25 C 365.07 665.90 368.15 662.76 369.42 658.77 C 370.20 656.31 370.09 653.64 369.12 651.25 C 365.12 641.64 351.07 643.85 350.93 643.88 C 309.70 647.66 299.00 714.52 297.44 725.76 Z" fill="#040000" fill-rule="nonzero" node-id="216" stroke="none" target-height="96.130005" target-width="81.69" target-x="292.9" target-y="636.91"></path><path d="M 415.81 739.93 C 415.81 761.14 396.16 778.33 371.92 778.33 C 347.68 778.33 328.03 761.14 328.03 739.93 C 328.03 718.72 347.68 701.53 371.92 701.53 C 396.16 701.53 415.81 718.72 415.81 739.93 Z" fill="#ffffff" fill-rule="nonzero" node-id="218" stroke="none" target-height="76.79999" target-width="87.78" target-x="328.03" target-y="701.53"></path><path d="M 371.92 780.46 C 346.54 780.46 325.92 762.28 325.92 739.93 C 325.92 717.58 346.56 699.40 371.92 699.40 C 397.28 699.40 417.92 717.58 417.92 739.93 C 417.92 762.28 397.29 780.46 371.92 780.46 Z M 371.92 703.66 C 348.92 703.66 330.17 719.93 330.17 739.93 C 330.17 759.93 348.90 776.20 371.92 776.20 C 394.94 776.20 413.67 759.93 413.67 739.93 C 413.67 719.93 394.94 703.66 371.92 703.66 Z" fill="#040000" fill-rule="nonzero" node-id="220" stroke="none" target-height="81.06" target-width="92" target-x="325.92" target-y="699.4"></path><path d="M 815.65 897.80 C 815.65 897.80 738.85 880.73 666.32 902.06 C 666.32 902.06 587.98 887.66 576.72 927.66 L 832.72 927.66" fill="#ffffff" fill-rule="nonzero" node-id="222" stroke="none" target-height="46.929993" target-width="256" target-x="576.72" target-y="880.73"></path><path d="M 834.85 930.66 L 578.85 930.66 C 578.19 930.66 577.58 930.35 577.18 929.83 C 576.78 929.31 576.64 928.64 576.80 928.00 C 588.10 887.86 660.90 899.48 668.33 900.78 C 740.42 879.78 817.48 896.45 818.25 896.62 C 819.34 896.93 820.00 898.04 819.75 899.14 C 819.50 900.25 818.44 900.97 817.32 900.79 C 816.56 900.62 740.21 884.10 669.05 905.02 C 668.72 905.10 668.38 905.10 668.05 905.02 C 667.30 904.88 595.21 892.09 581.79 926.39 L 834.79 926.39 C 835.59 926.34 836.35 926.73 836.76 927.41 C 837.18 928.10 837.18 928.95 836.76 929.64 C 836.35 930.32 835.59 930.71 834.79 930.66 Z" fill="#040000" fill-rule="nonzero" node-id="224" stroke="none" target-height="50.929993" target-width="260.53998" target-x="576.64" target-y="879.78"></path><path d="M 777.00 405.29 C 775.88 405.21 775.01 404.28 775.01 403.15 C 775.01 402.03 775.88 401.10 777.00 401.02 L 819.93 400.73 L 819.93 400.73 C 821.05 400.81 821.92 401.74 821.92 402.87 C 821.92 403.99 821.05 404.92 819.93 405.00 L 776.99 405.29 Z" fill="#040000" fill-rule="nonzero" node-id="226" stroke="none" target-height="4.5599976" target-width="46.909973" target-x="775.01" target-y="400.73"></path><path d="M 794.32 362.33 C 793.27 362.31 792.39 361.54 792.24 360.50 C 792.09 359.46 792.71 358.47 793.71 358.15 L 836.37 345.35 C 837.47 345.10 838.58 345.74 838.90 346.82 C 839.23 347.90 838.66 349.05 837.60 349.44 L 794.93 362.24 C 794.73 362.30 794.53 362.33 794.32 362.33 Z" fill="#040000" fill-rule="nonzero" node-id="228" stroke="none" target-height="17.22998" target-width="47.139954" target-x="792.09" target-y="345.1"></path><path d="M 807.12 481.80 L 751.65 481.80 C 750.53 481.72 749.66 480.79 749.66 479.67 C 749.66 478.54 750.53 477.61 751.65 477.53 L 807.12 477.53 C 808.24 477.61 809.11 478.54 809.11 479.67 C 809.11 480.79 808.24 481.72 807.12 481.80 Z" fill="#040000" fill-rule="nonzero" node-id="230" stroke="none" target-height="4.269989" target-width="59.450012" target-x="749.66" target-y="477.53"></path><path d="M 785.78 379.40 C 785.30 379.40 784.83 379.23 784.45 378.93 L 741.79 344.80 C 740.87 344.07 740.72 342.72 741.45 341.80 C 742.18 340.88 743.53 340.73 744.45 341.46 L 787.12 375.60 C 787.83 376.16 788.11 377.12 787.81 377.98 C 787.50 378.84 786.69 379.41 785.78 379.40 Z" fill="#040000" fill-rule="nonzero" node-id="232" stroke="none" target-height="38.679993" target-width="47.390015" target-x="740.72" target-y="340.73"></path><path d="M 760.19 443.40 C 759.66 443.40 759.14 443.20 758.75 442.84 L 711.82 400.18 C 710.95 399.39 710.88 398.04 711.67 397.16 C 712.47 396.29 713.82 396.23 714.69 397.02 L 761.62 439.69 C 762.49 440.48 762.55 441.82 761.77 442.69 C 761.37 443.14 760.79 443.39 760.19 443.40 Z" fill="#040000" fill-rule="nonzero" node-id="234" stroke="none" target-height="47.169983" target-width="51.669983" target-x="710.88" target-y="396.23"></path><path d="M 636.45 575.66 C 635.53 575.65 634.72 575.04 634.45 574.16 C 579.51 396.68 587.33 90.16 587.45 87.07 C 587.56 85.95 588.46 85.08 589.58 85.00 C 590.14 85.02 590.68 85.26 591.07 85.67 C 591.46 86.08 591.67 86.63 591.65 87.19 C 591.57 90.26 583.77 396.09 638.49 572.90 C 638.66 573.44 638.60 574.03 638.34 574.53 C 638.08 575.03 637.62 575.40 637.08 575.57 C 636.88 575.63 636.66 575.66 636.45 575.66 Z" fill="#ffffff" fill-rule="nonzero" node-id="236" stroke="none" target-height="490.65997" target-width="59.149963" target-x="579.51" target-y="85"></path><path d="M 598.05 319.66 C 597.88 319.66 597.71 319.64 597.54 319.60 C 580.08 315.24 544.70 253.11 540.73 246.04 C 540.19 245.02 540.57 243.76 541.57 243.19 C 542.57 242.63 543.85 242.96 544.44 243.95 C 554.75 262.27 583.86 309.79 597.59 315.14 C 603.68 310.00 640.00 277.93 651.46 235.90 C 651.82 234.83 652.96 234.23 654.05 234.53 C 655.14 234.83 655.81 235.92 655.58 237.03 C 642.74 284.09 599.82 318.85 599.39 319.20 C 599.01 319.50 598.54 319.66 598.05 319.66 Z" fill="#ffffff" fill-rule="nonzero" node-id="238" stroke="none" target-height="85.43001" target-width="115.619995" target-x="540.19" target-y="234.23"></path><path d="M 610.85 460.46 C 597.64 460.46 546.68 392.21 536.60 378.53 C 536.09 377.59 536.35 376.42 537.20 375.79 C 538.06 375.15 539.25 375.24 540.00 376.00 C 562.33 406.31 600.50 454.00 610.19 456.12 C 615.74 451.77 656.00 418.25 659.88 360.06 C 659.98 358.89 660.98 358.01 662.15 358.06 C 662.72 358.09 663.25 358.35 663.62 358.78 C 664.00 359.20 664.19 359.76 664.15 360.33 C 659.87 424.58 612.55 459.70 612.08 460.05 C 611.72 460.31 611.29 460.45 610.85 460.46 Z" fill="#ffffff" fill-rule="nonzero" node-id="240" stroke="none" target-height="102.44998" target-width="128.09998" target-x="536.09" target-y="358.01"></path><path d="M 589.52 641.80 C 589.52 641.80 576.72 675.93 580.99 684.46 C 580.99 684.46 576.72 680.20 568.19 684.46 L 568.19 654.60 Z" fill="#040000" fill-rule="nonzero" node-id="242" stroke="none" target-height="42.660034" target-width="21.330017" target-x="568.19" target-y="641.8"></path><path d="M 429.07 614.48 C 410.16 614.48 397.32 610.48 390.83 602.48 C 387.01 597.81 385.57 591.64 386.93 585.77 C 387.31 584.71 388.44 584.12 389.53 584.43 C 390.61 584.73 391.27 585.83 391.04 586.93 C 390.04 591.49 391.20 596.26 394.20 599.85 C 398.88 605.56 410.65 611.85 440.03 609.85 C 440.60 609.80 441.16 609.99 441.59 610.37 C 442.02 610.74 442.28 611.28 442.31 611.85 C 442.35 612.42 442.16 612.98 441.79 613.41 C 441.41 613.84 440.88 614.10 440.31 614.13 C 436.37 614.34 432.62 614.48 429.07 614.48 Z" fill="#fffdfd" fill-rule="nonzero" node-id="244" stroke="none" target-height="30.359985" target-width="56.78" target-x="385.57" target-y="584.12"></path><path d="M 453.00 614.06 C 451.82 614.06 450.87 613.11 450.87 611.93 C 450.87 610.75 451.82 609.80 453.00 609.80 C 465.15 609.80 479.08 608.43 481.35 606.16 C 481.87 605.54 482.69 605.27 483.47 605.45 C 484.26 605.64 484.87 606.25 485.06 607.04 C 485.24 607.82 484.97 608.64 484.35 609.16 C 479.70 613.83 457.41 614.06 453.00 614.06 Z" fill="#fffdfd" fill-rule="nonzero" node-id="246" stroke="none" target-height="8.789978" target-width="34.369995" target-x="450.87" target-y="605.27"></path><path d="M 0.00 0.00 L 1024.00 0.00 L 1024.00 1024.00 L 0.00 1024.00 Z" fill="none" node-id="248" stroke="none" target-height="1024" target-width="1024" target-x="0" target-y="0"></path></svg>